<svg width="97" height="18" viewBox="0 0 97 18" fill="none" xmlns="http://www.w3.org/2000/svg">
<path fill-rule="evenodd" clip-rule="evenodd" d="M96.0279 13.5799C95.3382 12.2172 93.6459 11.0514 90.7654 9.85144C91.4186 9.15194 92.0907 8.38169 92.7132 7.66394L93.1919 7.11194C93.3151 6.94744 93.5511 6.83969 93.7411 6.75269C93.8249 6.71444 93.9044 6.67769 93.9706 6.63744C94.0807 6.56769 94.1481 6.47319 94.1669 6.36419C94.1874 6.24144 94.1454 6.10369 94.0511 5.98544C93.5862 5.45569 93.0742 4.98269 92.4859 4.54019C92.3642 4.44019 92.2214 4.42519 92.1477 4.42519C92.0371 4.42519 91.9332 4.45669 91.8549 4.51469C91.4164 4.85394 91.2979 4.88569 91.0834 4.94344C91.0834 4.94344 86.7889 6.04319 84.8749 6.11894H84.7014C84.2994 6.11894 84.0559 6.03394 83.8629 5.82744C83.8459 5.80794 83.8324 5.79019 83.8206 5.77519C83.7877 5.73244 83.7591 5.69544 83.7094 5.69544C83.5897 5.69544 83.5527 5.82144 83.5334 5.88494C83.5101 5.98844 83.5101 6.08919 83.5101 6.18669C83.5101 7.44769 85.1136 7.85744 85.2964 7.89994C85.2964 7.89994 85.5182 7.82444 85.8932 7.63594C86.5852 7.28819 87.3776 6.94694 87.8987 6.81569C88.8226 6.55969 89.4837 6.43069 90.1842 6.29394L90.2112 6.28869C90.4602 6.23994 90.7122 6.19044 90.9767 6.13394C90.9767 6.13394 91.0661 6.10569 91.0856 6.13694C91.1019 6.16269 91.0644 6.23094 91.0327 6.28269C88.0409 11.4279 83.2332 14.9932 81.1217 16.1282L81.1589 16.2489V16.2492C83.6849 15.5432 87.6189 13.1349 90.4099 10.2307C91.9019 11.3152 92.9329 12.5687 93.9019 14.3467C93.9407 14.4184 94.1282 14.7772 94.1282 14.7772C94.4184 15.3369 94.7472 15.9712 95.3857 15.9712C95.5911 15.9712 95.7834 15.8854 95.9277 15.7294C96.3732 15.2452 96.4146 14.3614 96.0279 13.5799ZM82.4089 11.8474C82.5224 11.6009 82.5819 11.3392 82.5819 11.0907C82.5819 10.3367 82.1542 9.76044 81.7549 9.47069C81.5177 9.29844 79.5912 8.05294 77.7402 8.04094C77.9919 7.79744 78.2259 7.56769 78.4364 7.35994C79.2299 6.57594 79.8562 5.95694 80.2779 5.74019C80.4164 5.66944 80.4919 5.56094 80.4919 5.43444C80.4919 5.29119 80.3832 5.15569 80.1584 5.02019C79.4114 4.58394 78.8124 4.28694 78.2719 4.08519C78.1679 4.04644 78.0914 4.02894 78.0242 4.02894C77.9397 4.02894 77.8669 4.05819 77.7952 4.12094C77.7822 4.13219 77.7629 4.15044 77.7402 4.17344C77.6352 4.27544 77.4397 4.46519 77.2477 4.53644C75.5629 4.98994 73.7602 5.31219 72.5447 5.37719H72.4427C72.1594 5.37719 71.7652 5.30719 71.4924 4.97219C71.4584 4.93369 71.4169 4.91244 71.3764 4.91244C71.3147 4.91244 71.2669 4.95694 71.2469 5.04144C71.2169 5.16844 71.1874 5.30944 71.1957 5.38844C71.2102 5.71094 71.6822 6.66544 72.6827 6.90169L72.7897 6.86219C72.9374 6.80744 73.1599 6.72469 73.6607 6.56444C74.3749 6.33544 77.0384 5.76194 77.1562 5.73844C77.1684 5.73619 77.2812 5.69669 77.2812 5.69669C77.2812 5.69669 77.2027 5.77494 77.1557 5.84119C74.1217 10.0702 70.0629 12.8262 68.7264 13.7187L68.7029 13.7344L68.7202 13.8389L68.7654 13.8244C71.6902 12.8864 74.1044 11.2187 75.9332 9.67669C75.9584 10.1964 75.9719 10.7754 75.9719 11.3802C75.9719 13.1952 75.8674 14.8024 75.7659 16.1384L75.7589 16.3624C75.7589 16.6202 75.7969 16.9839 75.9447 17.2514C76.1509 17.6689 76.5759 17.8594 76.8842 17.8594C77.4437 17.8594 77.6859 16.9572 77.6859 16.4964C77.6762 15.3094 77.6507 14.2602 77.6254 13.2252C77.6024 12.2989 77.5742 11.1462 77.5634 9.90144C77.5634 9.55694 77.5922 9.13844 77.6742 8.99394C77.7069 8.92294 77.7069 8.85494 77.7069 8.82594C77.7069 8.61944 77.5662 8.48394 77.3929 8.37119C77.4062 8.35869 77.4187 8.34644 77.4322 8.33394C79.0937 8.85219 80.5559 10.8652 80.8862 11.6217C81.0932 12.0967 81.3487 12.3277 81.6684 12.3277C81.9519 12.3277 82.2704 12.1219 82.4089 11.8474ZM79.1297 2.27019C79.1297 2.06269 79.0887 1.74219 78.8932 1.39519C78.2864 0.291687 76.6834 0.0931875 76.0014 0.0196875C75.7107 -0.0118125 75.3279 0.0039375 75.3279 0.0039375L75.2772 0.0899375L75.3562 0.142438C75.7937 0.430687 76.6982 1.06694 77.4882 2.73819C77.6697 3.11344 77.9579 3.32719 78.2992 3.32719C78.4654 3.32719 78.6254 3.27519 78.7597 3.17794C78.9914 3.02594 79.1297 2.68669 79.1297 2.27019ZM70.0559 6.00919L69.9477 5.95394C68.4764 8.04319 65.3202 11.5954 59.7414 14.3197C59.4294 14.4719 59.1557 14.5372 58.9114 14.5372C58.5326 14.5372 58.2252 14.4212 57.9159 14.1617L57.6087 13.8942L57.4299 14.0292L59.4589 17.0154C59.5149 17.0887 59.5732 17.1644 59.6912 17.1644C59.7387 17.1644 59.7874 17.1499 59.8372 17.1212C60.0214 17.0139 60.6014 16.5702 60.8904 16.3514C62.4919 15.0952 63.3954 14.3044 64.2779 13.5524L64.3937 13.4537C67.8357 10.4807 69.6327 7.15794 70.0559 6.00919ZM68.7672 4.04069C68.5339 2.77144 67.0264 2.66394 66.4294 2.66394C66.0187 2.66394 65.6772 2.73544 65.5857 2.75769L65.5459 2.91094C66.3777 3.06719 66.9334 3.48819 67.2424 4.17294C67.4137 4.55119 67.6692 4.93094 68.0982 4.93769C68.4869 4.94394 68.8669 4.58444 68.7672 4.04069ZM66.2674 4.27269C65.9487 4.07994 65.1944 3.78119 64.3469 3.66544L64.2999 3.80944C64.6014 3.98569 65.3474 4.54969 65.5779 5.49619C65.6102 5.62819 65.6542 5.79994 65.7029 5.92969C65.8044 6.19944 66.0492 6.57944 66.4817 6.61694C66.7477 6.64019 66.9627 6.54444 67.0942 6.39494C67.2839 6.17794 67.3212 5.86394 67.2924 5.64269C67.2162 5.06469 66.8739 4.61844 66.2674 4.27269ZM61.7937 7.18944C61.9029 7.03494 61.9672 6.82369 61.9847 6.56069C62.0157 6.07694 61.8357 5.62694 61.4854 5.33419C60.8304 4.78769 59.4397 4.54319 58.1014 4.89444L58.0897 4.99994C59.2304 5.58194 59.7049 6.23794 60.1577 6.83169C60.2597 6.96519 60.3622 7.09944 60.4727 7.23619C60.6317 7.43094 60.8642 7.54744 61.0937 7.54744C61.4057 7.54744 61.6282 7.43344 61.7937 7.18944ZM56.9004 8.65394L56.8867 8.74819C57.8944 9.29319 58.4374 10.0879 58.8452 10.6624C58.9174 10.7639 58.9854 10.8599 59.0507 10.9452C59.2132 11.1742 59.4347 11.3032 59.6932 11.3032C60.1754 11.3032 60.5532 10.8069 60.5532 10.1734C60.5532 9.89969 60.4759 9.63644 60.3372 9.43444C59.7929 8.54694 58.1639 8.30869 56.9004 8.65394ZM56.8454 4.04069C56.6122 2.77144 55.1049 2.66394 54.5077 2.66394C54.0964 2.66394 53.7551 2.73544 53.6639 2.75769L53.6244 2.91094C54.4562 3.06719 55.0117 3.48819 55.3209 4.17294C55.4914 4.55119 55.7474 4.93094 56.1767 4.93769C56.5647 4.94394 56.9452 4.58444 56.8454 4.04069ZM54.3454 4.27269C54.0266 4.07994 53.2727 3.78119 52.4254 3.66544L52.3777 3.80944C52.6794 3.98569 53.4262 4.54969 53.6562 5.49619C53.6884 5.62819 53.7322 5.79994 53.7812 5.92969C53.8827 6.19944 54.1272 6.57944 54.5602 6.61694C54.8254 6.64019 55.0409 6.54444 55.1719 6.39494C55.3624 6.17794 55.3992 5.86394 55.3702 5.64269C55.2942 5.06469 54.9519 4.61844 54.3454 4.27269ZM53.4202 7.79344C53.4019 7.70919 53.2164 6.94294 52.3324 6.03319C52.0902 5.78394 51.6197 5.42219 51.4334 5.42219C51.3804 5.42219 51.3367 5.44794 51.3164 5.49169C51.2849 5.56194 51.3039 5.62544 51.3249 5.69519C51.3464 5.76794 51.3764 5.86794 51.3739 6.04094C51.3664 6.61269 50.9659 7.21369 50.6164 7.68144C49.8992 8.64269 48.2089 9.78444 46.4892 10.6604C46.5727 9.02794 46.7834 5.97369 46.7834 5.97369C46.8017 5.68094 46.8177 5.40469 46.8804 5.31344C46.9789 5.17069 46.9994 5.05994 46.9994 4.99194C46.9994 4.89369 46.9672 4.78719 46.9084 4.69194C46.5199 4.04194 45.8637 3.68419 45.0614 3.68419C44.7289 3.68419 44.4154 3.78169 44.1022 3.98344C44.0049 4.05294 43.9559 4.11719 43.9559 4.17469C43.9559 4.27794 44.0434 4.32344 44.1089 4.35644C44.6964 4.52269 44.9057 4.99069 44.9057 5.37319C44.9007 5.93019 44.8812 9.15819 44.8614 11.4042C44.4907 11.5532 44.1314 11.6837 43.7992 11.7854V11.9287C44.1567 11.8677 44.5102 11.8017 44.8584 11.7319C44.8502 12.6329 44.8419 13.3284 44.8349 13.5434C44.8199 14.0022 44.8199 14.5314 44.9312 14.9739C45.2902 16.3989 46.4289 17.0892 48.6259 17.2119C49.1312 17.2337 49.9272 17.2592 50.5067 17.2592C51.3724 17.2592 52.2509 17.2127 53.1927 17.1164C53.4594 17.0859 54.1152 16.9742 54.4419 16.5882C54.6352 16.3352 54.7489 15.9052 54.4344 15.5282C54.1504 15.1874 53.4374 14.8654 52.9667 14.8654C52.8559 14.8654 52.6412 14.9102 52.5722 14.9409C51.4539 15.3062 50.1577 15.5242 49.1049 15.5242C48.6009 15.5242 47.8642 15.4819 47.4457 15.3632C46.7522 15.1737 46.4547 14.8177 46.4174 14.1342C46.3797 13.4372 46.3797 13.4049 46.4579 11.3767C48.3767 10.9067 50.0367 10.3434 51.1314 9.85494C51.4642 9.70644 52.3514 9.26194 53.0657 8.76744C53.4249 8.51894 53.5124 8.21769 53.4202 7.79344ZM42.9099 8.77194V8.64669L42.8274 8.63769C41.3617 8.49719 40.0809 8.20119 39.2117 7.80219C40.2244 6.66544 40.8049 5.69644 41.1552 5.10844C41.6372 5.01044 42.1019 4.89219 42.1019 4.63544C42.1019 4.45794 40.5429 2.88694 40.3592 2.83194C40.2214 2.79094 40.1379 2.82944 40.0022 2.99619L39.4752 3.60844H34.1034V3.90169H35.6069C35.8632 6.12819 36.5024 7.45244 36.9424 8.09019C36.5014 8.65319 35.8944 9.44969 35.2329 10.0484C35.2312 10.0232 35.2292 9.99994 35.2269 9.97944C35.0517 9.15819 34.2637 8.43794 32.9784 7.82319L32.9817 7.81894C33.9042 6.96619 34.8054 5.80294 35.0619 5.23994L35.0804 5.19944L33.0179 4.42594L32.9867 4.50969C32.3159 6.36894 31.4704 8.09044 30.5232 9.40394H28.5437L29.1532 11.6529L31.0224 10.9682V12.3324C30.6164 12.2274 29.7434 12.0409 29.3424 11.9502L29.2357 11.9262L29.2312 12.0357C29.1999 13.4184 29.0282 15.4654 28.6092 16.9914L28.5909 17.0632H28.7169C29.2414 16.3977 30.3279 15.0499 31.0224 12.9584V17.3474C31.0224 17.4327 31.0224 17.6922 31.2747 17.6922C31.2747 17.6922 32.5527 17.6014 32.6947 17.5912C32.8857 17.5754 32.9709 17.4669 32.9709 17.2394V12.1722C33.2102 12.7159 33.3464 13.4237 33.3769 14.4939L33.3874 14.6182C33.4192 15.0762 33.5952 15.3017 33.9744 15.3717C34.0107 15.3782 34.0487 15.3817 34.0884 15.3817C34.3264 15.3817 34.5849 15.2662 34.7792 15.0727C34.9442 14.9082 35.1414 14.6104 35.1414 14.1272C35.1414 13.7369 35.0137 13.3749 34.7579 13.0199H36.8299V16.7697H33.2384V17.0632H36.8724H38.8259H39.5359H40.2577H42.4897C42.5779 17.0632 42.6589 17.0094 42.6912 16.9294C42.7214 16.8544 42.7034 16.7744 42.6427 16.7157C42.4062 16.4869 41.0057 15.3194 40.9439 15.2714C40.9192 15.2522 40.8937 15.2424 40.8674 15.2424C40.7942 15.2424 40.7444 15.3144 40.6964 15.3837L39.7387 16.7697H38.8684V13.0199H39.2762H39.6639H42.0819C42.1717 13.0199 42.2459 12.9764 42.2757 12.9067C42.3022 12.8454 42.2884 12.7782 42.2397 12.7269C42.0839 12.5632 40.8432 11.4802 40.6552 11.3322C40.6164 11.3017 40.5769 11.2862 40.5379 11.2862C40.4702 11.2862 40.4077 11.3314 40.3474 11.4239L39.4624 12.7424H38.8684V10.3639L36.8299 10.1272V12.7424H34.5294L34.4889 12.6952C34.1582 12.3524 33.6704 12.0212 33.0209 11.6457L32.9709 11.6167V10.1429C33.1137 10.0822 33.2367 10.0227 33.4037 9.94394C33.4167 10.0539 33.4169 10.1997 33.4349 10.4232C33.4764 10.9392 33.5282 11.5034 34.0312 11.5587C34.6014 11.6212 35.0522 11.2332 35.2017 10.6999C35.2044 10.6879 35.2064 10.6744 35.2089 10.6619C36.6082 10.0289 37.5242 9.36019 37.8314 9.11019C39.3352 10.4579 41.4079 11.0382 41.6367 11.0382C41.9714 11.0382 41.9984 10.5824 42.0312 10.3437C42.0897 9.91819 42.2849 9.25394 42.9099 8.77194ZM33.3662 9.40394H31.0794C31.2259 9.29069 32.2934 8.46169 32.7617 8.03019C32.7777 8.01494 32.8007 7.99469 32.8222 7.97569C33.0057 8.23494 33.2944 8.84694 33.3662 9.40394ZM37.7787 6.93919C36.9422 6.24144 36.2054 5.08894 35.8752 3.90169H39.3767L39.3592 3.95894C39.2237 4.32469 38.7914 5.45469 37.7787 6.93919ZM33.4739 3.01669L31.1602 2.29944C31.0952 2.92294 30.7692 4.37544 30.5432 4.97694C30.5287 4.96744 30.5137 4.95744 30.5019 4.94969C29.9832 4.63944 29.5812 4.49169 29.0742 4.29694L29.0022 4.26869L28.9414 4.35944C29.3319 4.88694 29.6912 5.80069 29.9284 7.32644C29.9964 7.76394 30.1879 7.87419 30.4999 7.87444C31.2617 7.87494 31.6982 7.21444 31.6982 6.57619C31.6982 6.13094 31.4717 5.72969 31.0137 5.31094C31.0124 5.30994 31.0079 5.30669 31.0057 5.30494C32.1442 4.50844 33.0804 3.65594 33.4739 3.01669ZM27.1409 4.25544C27.1409 3.97794 25.5312 2.61694 25.3367 2.61694C25.2299 2.61694 25.1572 2.69694 25.0339 2.87669L24.5287 3.62519H24.4764V3.62669H18.4569L16.0577 3.05319L16.0574 17.1934C16.0572 17.3457 16.0569 17.4772 16.1299 17.5502C16.1702 17.5904 16.2294 17.6099 16.3104 17.6099C16.3104 17.6099 17.9687 17.4959 17.9709 17.4959C18.1642 17.4717 18.2629 17.3459 18.2629 17.1222V16.1354H24.4764V16.8162C24.4764 17.0229 24.5407 17.0564 24.7629 17.0644H26.4117C26.6034 17.0644 26.6814 17.0229 26.6814 16.8162L26.6812 4.63444C26.7937 4.60594 27.1409 4.49819 27.1409 4.25544ZM18.2629 9.89169H24.4764V3.91994H18.2629V9.89169ZM18.2629 15.8414H24.4764V10.1844H18.2629V15.8414Z" fill="#231916"/>
<mask id="mask0" mask-type="alpha" maskUnits="userSpaceOnUse" x="0" y="0" width="97" height="18">
<path fill-rule="evenodd" clip-rule="evenodd" d="M0 17.8595H96.2923V0H0V17.8595Z" fill="white"/>
</mask>
<g mask="url(#mask0)">
<path fill-rule="evenodd" clip-rule="evenodd" d="M0 17.2085H14.0208V3.1875H0V17.2085Z" fill="#E50121"/>
<path fill-rule="evenodd" clip-rule="evenodd" d="M5.15852 6.46235C5.30402 6.46235 5.42652 6.39185 5.42652 6.2056C5.42652 5.99435 5.28577 5.9676 5.13352 5.9676V6.46235H5.15852ZM5.13352 6.8231C5.13352 6.96235 5.12702 7.11085 5.28752 7.11085C5.41477 7.11085 5.50252 7.0116 5.50252 6.86535C5.50252 6.6486 5.32727 6.51735 5.13352 6.53435V6.8231ZM4.69702 7.1851V7.13185C4.89377 7.09335 4.91527 7.1071 4.91527 6.76235V6.25685C4.90877 5.99985 4.91202 5.9676 4.69702 5.9451V5.8916H5.19652C5.38502 5.8916 5.67477 5.8916 5.67477 6.1786C5.67477 6.34985 5.52402 6.4261 5.40152 6.45985V6.4641C5.56852 6.5041 5.75077 6.6141 5.75077 6.84085C5.75077 7.1561 5.45127 7.1851 5.24452 7.1851H4.69702Z" fill="#FEFEFE"/>
<path fill-rule="evenodd" clip-rule="evenodd" d="M6.61407 5.89136H7.13007V5.94461C6.97157 5.99186 6.97157 6.02086 6.95832 6.33811L6.94657 6.62386C6.94182 6.77361 6.93832 6.94511 6.84257 7.05911C6.74457 7.17711 6.59407 7.21711 6.45682 7.21711C6.32782 7.21711 6.17232 7.17886 6.07507 7.07836C5.95882 6.95836 5.97532 6.77361 5.97532 6.61436V6.31336C5.97532 5.96936 5.95382 5.98236 5.75757 5.94461V5.89136H6.41207V5.94461C6.18382 5.96761 6.19382 6.05486 6.19382 6.31336V6.57986C6.19382 6.68986 6.18882 6.84036 6.24207 6.93561C6.30807 7.05161 6.44207 7.09686 6.55782 7.09686C6.83082 7.09686 6.87232 6.86886 6.86557 6.63311L6.85382 6.17286C6.84882 5.96936 6.76982 5.98061 6.61407 5.94461V5.89136Z" fill="#FEFEFE"/>
<path fill-rule="evenodd" clip-rule="evenodd" d="M7.87564 6.27563H7.82589C7.79464 6.11963 7.75489 5.94663 7.58439 5.94663C7.48364 5.94663 7.41539 6.03188 7.41539 6.14463C7.41539 6.45263 7.95989 6.43163 7.95989 6.82913C7.95989 7.10288 7.73164 7.21713 7.51989 7.21713C7.40214 7.21713 7.28639 7.18088 7.18389 7.11988L7.12939 6.74338L7.18064 6.73163C7.23539 6.91813 7.35614 7.12963 7.55114 7.12963C7.66039 7.12963 7.74164 7.04788 7.74164 6.92413C7.74164 6.60288 7.19714 6.62938 7.19714 6.25263C7.19714 5.99988 7.40739 5.85913 7.60914 5.85913C7.70839 5.85913 7.80614 5.88738 7.89039 5.94463L7.87564 6.27563Z" fill="#FEFEFE"/>
<path fill-rule="evenodd" clip-rule="evenodd" d="M8.47288 6.7626C8.47288 7.1071 8.49438 7.09335 8.69113 7.13185V7.18435H8.03613V7.13185C8.23313 7.09335 8.25463 7.1071 8.25463 6.7626V6.3136C8.25463 5.96935 8.23313 5.98285 8.03613 5.9446V5.8916H8.69113V5.9446C8.49438 5.98285 8.47288 5.96935 8.47288 6.3136V6.7626Z" fill="#FEFEFE"/>
<path fill-rule="evenodd" clip-rule="evenodd" d="M9.03581 6.31936C9.03581 6.12386 9.03081 5.98661 8.82056 5.94461V5.89136H9.20131C9.40981 6.20336 9.69731 6.51886 9.93581 6.83861L9.93906 6.83486L9.92881 6.23011C9.92556 6.00336 9.87606 5.97511 9.68106 5.94461V5.89136H10.1838V5.94461C10.0383 5.95986 10.0301 6.03986 10.0301 6.34961V7.19611L9.95581 7.23786C9.79306 7.01011 9.39956 6.55361 9.12656 6.21461C9.12181 6.42811 9.13006 6.62711 9.13681 6.83486C9.14331 7.06861 9.17956 7.08436 9.37506 7.13161V7.18461H8.83206V7.13161C8.95306 7.10486 9.03581 7.11236 9.03581 6.85586V6.31936Z" fill="#FEFEFE"/>
<path fill-rule="evenodd" clip-rule="evenodd" d="M10.7383 6.57036V6.82136C10.7383 7.01511 10.7403 7.10486 10.96 7.10486C11.175 7.10486 11.2675 6.96611 11.314 6.74711H11.3638C11.3673 6.89586 11.3438 7.04236 11.3043 7.18461H10.3018V7.13161C10.4985 7.09361 10.52 7.10686 10.52 6.76261V6.31361C10.52 5.96936 10.4985 5.98236 10.3018 5.94461V5.89111H11.2813L11.2495 6.22386H11.1983C11.1865 5.97486 11.0395 5.97136 10.859 5.97136H10.7383V6.45636H10.879C11.0215 6.45636 11.0958 6.44261 11.1373 6.27011H11.18C11.1718 6.43136 11.1653 6.59111 11.1733 6.75286H11.127C11.0943 6.56636 11.0163 6.57036 10.8723 6.57036H10.7383Z" fill="#FEFEFE"/>
<path fill-rule="evenodd" clip-rule="evenodd" d="M12.2372 6.27563H12.1877C12.1562 6.11963 12.1165 5.94663 11.9457 5.94663C11.8452 5.94663 11.7772 6.03188 11.7772 6.14463C11.7772 6.45263 12.3217 6.43163 12.3217 6.82913C12.3217 7.10288 12.0932 7.21713 11.8817 7.21713C11.764 7.21713 11.6482 7.18088 11.5455 7.11988L11.4912 6.74338L11.5425 6.73163C11.5972 6.91813 11.7177 7.12963 11.913 7.12963C12.0222 7.12963 12.1032 7.04788 12.1032 6.92413C12.1032 6.60288 11.559 6.62938 11.559 6.25263C11.559 5.99988 11.769 5.85913 11.971 5.85913C12.0702 5.85913 12.1677 5.88738 12.252 5.94463L12.2372 6.27563Z" fill="#FEFEFE"/>
<path fill-rule="evenodd" clip-rule="evenodd" d="M13.1601 6.27563H13.1103C13.0791 6.11963 13.0396 5.94663 12.8688 5.94663C12.7681 5.94663 12.7003 6.03188 12.7003 6.14463C12.7003 6.45263 13.2443 6.43163 13.2443 6.82913C13.2443 7.10288 13.0161 7.21713 12.8043 7.21713C12.6868 7.21713 12.5713 7.18088 12.4686 7.11988L12.4141 6.74338L12.4653 6.73163C12.5198 6.91813 12.6406 7.12963 12.8358 7.12963C12.9448 7.12963 13.0263 7.04788 13.0263 6.92413C13.0263 6.60288 12.4818 6.62938 12.4818 6.25263C12.4818 5.99988 12.6918 5.85913 12.8936 5.85913C12.9928 5.85913 13.0908 5.88738 13.1748 5.94463L13.1601 6.27563Z" fill="#FEFEFE"/>
<path fill-rule="evenodd" clip-rule="evenodd" d="M6.75381 4.60476C6.75381 4.40876 6.74906 4.27201 6.53906 4.22976V4.17676H6.91931C7.12781 4.48876 7.41556 4.80426 7.65381 5.12376L7.65706 5.12026L7.64731 4.51551C7.64381 4.28876 7.59406 4.26051 7.39931 4.22976V4.17676H7.90181V4.22976C7.75656 4.24526 7.74806 4.32501 7.74806 4.63501V5.48151L7.67381 5.52326C7.51131 5.29526 7.11756 4.83901 6.84456 4.50001C6.84006 4.71351 6.84806 4.91251 6.85481 5.12026C6.86156 5.35401 6.89781 5.36951 7.09306 5.41676V5.46976H6.55031V5.41676C6.67131 5.39026 6.75381 5.39776 6.75381 5.14126V4.60476Z" fill="#FEFEFE"/>
<path fill-rule="evenodd" clip-rule="evenodd" d="M8.4741 5.048C8.4741 5.3925 8.49585 5.37875 8.69235 5.41675V5.46975H8.03735V5.41675C8.2341 5.37875 8.25585 5.3925 8.25585 5.048V4.599C8.25585 4.255 8.2341 4.26825 8.03735 4.22975V4.177H8.69235V4.22975C8.49585 4.26825 8.4741 4.255 8.4741 4.599V5.048Z" fill="#FEFEFE"/>
<path fill-rule="evenodd" clip-rule="evenodd" d="M11.8413 4.85576V5.10676C11.8413 5.30051 11.8428 5.39051 12.0628 5.39051C12.2778 5.39051 12.3705 5.25151 12.4165 5.03251H12.4665C12.4698 5.18076 12.4465 5.32751 12.4068 5.46976H11.4045V5.41676C11.6013 5.37876 11.6228 5.39226 11.6228 5.04801V4.59901C11.6228 4.25501 11.6013 4.26776 11.4045 4.22976V4.17651H12.3838L12.3523 4.50926H12.301C12.2895 4.26051 12.1423 4.25676 11.962 4.25676H11.8413V4.74151H11.982C12.124 4.74151 12.1985 4.72826 12.2398 4.55501H12.2828C12.2745 4.71651 12.268 4.87676 12.2763 5.03826H12.2298C12.1968 4.85151 12.119 4.85576 11.9753 4.85576H11.8413Z" fill="#FEFEFE"/>
<path fill-rule="evenodd" clip-rule="evenodd" d="M12.9707 5.048C12.9707 5.3925 12.9922 5.37875 13.1889 5.41675V5.46975H12.5342V5.41675C12.7309 5.37875 12.7524 5.3925 12.7524 5.048V4.599C12.7524 4.255 12.7309 4.26825 12.5342 4.22975V4.177H13.1889V4.22975C12.9922 4.26825 12.9707 4.255 12.9707 4.599V5.048Z" fill="#FEFEFE"/>
<path fill-rule="evenodd" clip-rule="evenodd" d="M9.25754 5.048V4.599C9.25754 4.255 9.27929 4.268 9.47604 4.23025V4.17725H8.82104V4.23025C9.01779 4.268 9.03929 4.255 9.03929 4.599V5.048C9.03929 5.392 9.01779 5.37875 8.82104 5.41725V5.47H9.47604V5.41725C9.27929 5.37875 9.25754 5.392 9.25754 5.048Z" fill="#FEFEFE"/>
<path fill-rule="evenodd" clip-rule="evenodd" d="M10.1418 5.4215C10.0683 5.4085 9.98384 5.37025 9.92059 5.28875L9.47059 4.70375L9.60634 4.542C9.75059 4.3705 9.80559 4.27025 9.97959 4.23V4.177H9.54484V4.23C9.71909 4.2645 9.62284 4.384 9.49909 4.544L9.27734 4.82925L9.64709 5.32775C9.80909 5.52 10.0176 5.494 10.1418 5.4675V5.4215Z" fill="#FEFEFE"/>
<path fill-rule="evenodd" clip-rule="evenodd" d="M10.5478 5.0519V4.6029C10.5478 4.2589 10.5696 4.2719 10.7663 4.23415V4.18115H10.1113V4.23415C10.3081 4.2719 10.3296 4.2589 10.3296 4.6029V5.0519C10.3296 5.3959 10.3081 5.38265 10.1113 5.42115V5.4739H10.7663V5.42115C10.5696 5.38265 10.5478 5.3959 10.5478 5.0519Z" fill="#FEFEFE"/>
<path fill-rule="evenodd" clip-rule="evenodd" d="M11.4324 5.42541C11.3589 5.41241 11.2744 5.37416 11.2111 5.29266L10.7611 4.70766L10.8969 4.54591C11.0411 4.37441 11.0961 4.27416 11.2701 4.23391V4.18091H10.8354V4.23391C11.0096 4.26841 10.9134 4.38791 10.7896 4.54791L10.5679 4.83316L10.9376 5.33166C11.0996 5.52391 11.3081 5.49791 11.4324 5.47141V5.42541Z" fill="#FEFEFE"/>
</g>
</svg>
