<svg width="24" height="24" viewBox="0 0 24 24" fill="none" xmlns="http://www.w3.org/2000/svg">
<path fill-rule="evenodd" clip-rule="evenodd" d="M10.2855 1.00295V5.01476H9.30594V0.501476C9.30594 0.224518 9.52523 0 9.79574 0H23.5102C23.7807 0 24 0.224518 24 0.501476V10.1589C24 10.4359 23.7807 10.6604 23.5102 10.6604H22.2873L19.9852 13.8386C19.704 14.2268 19.102 14.0231 19.102 13.5398V10.6604H18.6122V9.65742H19.5918C19.8623 9.65742 20.0816 9.88194 20.0816 10.1589V12.0218L21.6474 9.86017C21.7398 9.73263 21.8857 9.65742 22.0408 9.65742H23.0204V1.00295H10.2855ZM7.31934 19.6893L7.34702 23.4938C7.3506 23.9863 6.73101 24.1885 6.45562 23.7846L3.66301 19.6893H0.489802C0.219292 19.6893 0 19.4648 0 19.1879V6.44737C0 6.17042 0.219292 5.9459 0.489802 5.9459H17.1431C17.4136 5.9459 17.6329 6.17042 17.6329 6.44737V19.1879C17.6329 19.4648 17.4136 19.6893 17.1431 19.6893H7.31934ZM6.33609 19.1916L6.35569 21.886L4.32002 18.9008C4.22841 18.7664 4.07846 18.6864 3.91842 18.6864H0.979604V6.94885H16.6533V18.6864H6.82588C6.55394 18.6864 6.33407 18.9132 6.33609 19.1916ZM3.91812 15.0443V14.0413H13.7142V15.0443H3.91812ZM3.91812 10.0295V11.0325H13.7142V10.0295H3.91812Z" fill="#E6001E"/>
</svg>
