<svg width="18" height="20" viewBox="0 0 18 20" fill="none" xmlns="http://www.w3.org/2000/svg">
<path d="M6.81883 15.1045C6.59191 15.3331 6.22379 15.3333 5.99662 15.1049C5.76944 14.8766 5.76924 14.5061 5.99617 14.2775L12.1631 8.06442C12.7008 7.52268 12.7008 6.64379 12.1632 6.10215C11.6258 5.56101 10.7544 5.56101 10.2171 6.10205L2.53768 13.8389C1.59383 14.7898 1.59383 16.3327 2.53768 17.2833C3.48133 18.234 5.01132 18.2341 5.95506 17.2833L15.1456 8.02367C16.5126 6.64701 16.5126 4.41307 15.1454 3.03595C13.7793 1.65931 11.563 1.65931 10.1965 3.036L2.60419 10.6851C2.37726 10.9138 2.00914 10.914 1.78197 10.6856C1.5548 10.4572 1.5546 10.0868 1.78152 9.85813L9.37386 2.20898C11.1945 0.374683 14.1479 0.374683 15.9681 2.20893C17.7888 4.04289 17.7888 7.0173 15.9681 8.85077L6.77773 18.1103C5.37976 19.5187 3.11284 19.5186 1.71508 18.1104C0.317641 16.7029 0.317641 14.4197 1.71501 13.0119L9.39451 5.27494C10.3861 4.27647 11.9941 4.27647 12.9857 5.27504C13.977 6.27367 13.977 7.8928 12.9857 8.89143L6.81883 15.1045Z" fill="#E6001E"/>
</svg>
