<svg width="24" height="27" viewBox="0 0 24 27" fill="none" xmlns="http://www.w3.org/2000/svg">
<path d="M8.85865 20.7505C8.53188 21.0797 8.00179 21.08 7.67466 20.7512C7.34753 20.4223 7.34724 19.8888 7.67401 19.5596L16.5544 10.6128C17.3287 9.83273 17.3287 8.56713 16.5545 7.78717C15.7807 7.00792 14.5258 7.00792 13.7521 7.78702L2.69379 18.9281C1.33464 20.2974 1.33464 22.5191 2.69379 23.888C4.05264 25.257 6.25584 25.2572 7.61481 23.888L20.8491 10.5541C22.8177 8.57177 22.8177 5.35489 20.8489 3.37183C18.8818 1.38948 15.6902 1.38948 13.7225 3.3719L2.78956 14.3867C2.46279 14.7159 1.9327 14.7162 1.60557 14.3873C1.27844 14.0585 1.27815 13.525 1.60492 13.1958L12.5379 2.181C15.1597 -0.460388 19.4125 -0.460388 22.0336 2.18093C24.6555 4.82183 24.6555 9.10498 22.0336 11.7452L8.79946 25.0789C6.78639 27.107 3.52202 27.1068 1.50924 25.079C-0.503065 23.0523 -0.503066 19.7645 1.50915 17.7372L12.5676 6.59598C13.9954 5.15818 16.311 5.15818 17.739 6.59613C19.1663 8.03416 19.1663 10.3657 17.739 11.8037L8.85865 20.7505Z" fill="black"/>
<mask id="mask0" mask-type="alpha" maskUnits="userSpaceOnUse" x="0" y="0" width="25" height="27">
<path d="M8.85865 20.7505C8.53188 21.0797 8.00179 21.08 7.67466 20.7512C7.34753 20.4223 7.34724 19.8888 7.67401 19.5596L16.5544 10.6128C17.3287 9.83273 17.3287 8.56713 16.5545 7.78717C15.7807 7.00792 14.5258 7.00792 13.7521 7.78702L2.69379 18.9281C1.33464 20.2974 1.33464 22.5191 2.69379 23.888C4.05264 25.257 6.25584 25.2572 7.61481 23.888L20.8491 10.5541C22.8177 8.57177 22.8177 5.35489 20.8489 3.37183C18.8818 1.38948 15.6902 1.38948 13.7225 3.3719L2.78956 14.3867C2.46279 14.7159 1.9327 14.7162 1.60557 14.3873C1.27844 14.0585 1.27815 13.525 1.60492 13.1958L12.5379 2.181C15.1597 -0.460388 19.4125 -0.460388 22.0336 2.18093C24.6555 4.82183 24.6555 9.10498 22.0336 11.7452L8.79946 25.0789C6.78639 27.107 3.52202 27.1068 1.50924 25.079C-0.503065 23.0523 -0.503066 19.7645 1.50915 17.7372L12.5676 6.59598C13.9954 5.15818 16.311 5.15818 17.739 6.59613C19.1663 8.03416 19.1663 10.3657 17.739 11.8037L8.85865 20.7505Z" fill="white"/>
</mask>
<g mask="url(#mask0)">
<rect x="-12" y="-13" width="48" height="48" fill="#242424"/>
</g>
</svg>
