<svg width="24" height="24" viewBox="0 0 24 24" fill="none" xmlns="http://www.w3.org/2000/svg">
<path fill-rule="evenodd" clip-rule="evenodd" d="M9.13764 20.5121H0.987853V1.01345H17.3862V6.62895H18.3741V0H0V21.5256H9.13764V20.5121ZM3.21052 12.2626V13.276H7.23405V12.2626H3.21052ZM3.21052 9.37467V8.36123H12.1733V9.37467H3.21052ZM3.21052 4.45936V5.47281H15.1369V4.45936H3.21052ZM14.323 14.6641H10.3773L13.2398 18.1171L12.5659 22.1476L16.1201 20.2311L19.6733 22.1474L18.9993 18.1171L21.8626 14.6641H17.9171L16.1201 10.9276L14.323 14.6641ZM18.5313 13.6507L16.1201 8.63717L13.7089 13.6507H8.24035L12.1881 18.4127L11.2538 23.9999L16.1201 21.3761L20.9853 24L20.0511 18.4128L24 13.6507H18.5313Z" fill="#E6001E"/>
</svg>
