<svg width="4" height="19" viewBox="0 0 4 19" fill="none" xmlns="http://www.w3.org/2000/svg">
<path fill-rule="evenodd" clip-rule="evenodd" d="M0 2.00501C0 3.11754 0.873865 4 2.01367 4C3.11977 4 4 3.11754 4 2.00501C4 0.892476 3.11977 0 2.01367 0C0.873865 0 0 0.892476 0 2.00501ZM4 7H0V19H4V7Z" fill="#E6001E"/>
<mask id="mask0" mask-type="alpha" maskUnits="userSpaceOnUse" x="0" y="0" width="4" height="19">
<path fill-rule="evenodd" clip-rule="evenodd" d="M0 2.00501C0 3.11754 0.873865 4 2.01367 4C3.11977 4 4 3.11754 4 2.00501C4 0.892476 3.11977 0 2.01367 0C0.873865 0 0 0.892476 0 2.00501ZM4 7H0V19H4V7Z" fill="white"/>
</mask>
<g mask="url(#mask0)">
<rect x="-18" y="-9" width="40" height="40" fill="#E6001E"/>
</g>
</svg>
