<svg width="23" height="20" viewBox="0 0 23 20" fill="none" xmlns="http://www.w3.org/2000/svg">
<path fill-rule="evenodd" clip-rule="evenodd" d="M0.910889 1.48809C0.910889 1.14292 1.19071 0.863094 1.53589 0.863094H7.0166C7.36178 0.863094 7.6416 1.14292 7.6416 1.48809V12.0024C7.6416 12.3476 7.36178 12.6274 7.0166 12.6274H1.53589C1.19071 12.6274 0.910889 12.3476 0.910889 12.0024V1.48809ZM6.3916 11.3774V2.11309H2.16089V11.3774H6.3916Z" fill="black"/>
<mask id="mask0" mask-type="alpha" maskUnits="userSpaceOnUse" x="0" y="0" width="8" height="13">
<path fill-rule="evenodd" clip-rule="evenodd" d="M0.910889 1.48809C0.910889 1.14292 1.19071 0.863094 1.53589 0.863094H7.0166C7.36178 0.863094 7.6416 1.14292 7.6416 1.48809V12.0024C7.6416 12.3476 7.36178 12.6274 7.0166 12.6274H1.53589C1.19071 12.6274 0.910889 12.3476 0.910889 12.0024V1.48809ZM6.3916 11.3774V2.11309H2.16089V11.3774H6.3916Z" fill="white"/>
</mask>
<g mask="url(#mask0)">
<rect width="33.3333" height="33.3333" transform="matrix(1 0 0 -1 -5.6665 27.5)" fill="#242424"/>
</g>
<path fill-rule="evenodd" clip-rule="evenodd" d="M19.0688 14.5251C19.0249 14.5214 19.0249 14.5214 19.0025 14.5185L14.6291 14.5233C14.932 17.2361 14.0893 18.756 12.4334 19.1586C11.8559 19.2989 11.2604 19.2792 10.6941 19.1646C10.5222 19.1298 10.3903 19.0938 10.3083 19.0667C10.0523 18.9821 9.87946 18.7429 9.87946 18.4733V14.7239L8.08548 11.4462H7.0166C6.67142 11.4462 6.3916 11.1664 6.3916 10.8212V3.66689C6.3916 3.53458 6.4336 3.40567 6.51154 3.29874C6.86521 2.81354 7.44706 2.43593 8.19853 2.12275C8.58818 1.96036 9.00088 1.82567 9.41297 1.71603C9.66058 1.65015 9.85539 1.6067 9.97237 1.58439L10.0895 1.57332H17.5902C17.8735 1.57332 18.1213 1.76387 18.1942 2.03764C18.219 2.13082 18.266 2.30621 18.3324 2.55203C18.4433 2.9621 18.568 3.41913 18.7039 3.91134C19.0921 5.31739 19.4916 6.72333 19.88 8.03473C19.9969 8.42947 20.1112 8.81033 20.2227 9.17574C20.3812 9.69566 20.5331 10.1816 20.6773 10.6298C21.3146 12.6121 21.0288 13.8594 20.0098 14.349C19.6828 14.506 19.3561 14.5462 19.0689 14.5252L19.0688 14.5251ZM8.67939 3.27655C8.21876 3.46853 7.85968 3.68276 7.6416 3.89764V10.1962H8.45589C8.68428 10.1962 8.89448 10.3208 9.00414 10.5211L11.0527 14.264C11.1031 14.356 11.1295 14.4592 11.1295 14.564V17.9722C11.4728 18.0225 11.8224 18.0207 12.1381 17.9439C13.2163 17.6818 13.7383 16.5891 13.2928 14.0052C13.227 13.6232 13.5211 13.274 13.9087 13.274H19.0852C19.1559 13.2781 19.1559 13.2781 19.1603 13.2785C19.2487 13.285 19.3686 13.2702 19.4684 13.2223C19.8206 13.053 19.9549 12.467 19.4873 11.0125C19.3411 10.5581 19.1874 10.0661 19.027 9.54039C18.9146 9.17165 18.7993 8.78757 18.6814 8.3897C18.2906 7.07002 17.8891 5.65695 17.499 4.24399C17.3625 3.74955 17.2372 3.29039 17.1257 2.87825L17.1109 2.82332H10.1514C10.0561 2.84321 9.91224 2.87667 9.73438 2.924C9.3728 3.02021 9.01183 3.138 8.67939 3.27655Z" fill="black"/>
<mask id="mask1" mask-type="alpha" maskUnits="userSpaceOnUse" x="6" y="1" width="16" height="19">
<path fill-rule="evenodd" clip-rule="evenodd" d="M19.0688 14.5251C19.0249 14.5214 19.0249 14.5214 19.0025 14.5185L14.6291 14.5233C14.932 17.2361 14.0893 18.756 12.4334 19.1586C11.8559 19.2989 11.2604 19.2792 10.6941 19.1646C10.5222 19.1298 10.3903 19.0938 10.3083 19.0667C10.0523 18.9821 9.87946 18.7429 9.87946 18.4733V14.7239L8.08548 11.4462H7.0166C6.67142 11.4462 6.3916 11.1664 6.3916 10.8212V3.66689C6.3916 3.53458 6.4336 3.40567 6.51154 3.29874C6.86521 2.81354 7.44706 2.43593 8.19853 2.12275C8.58818 1.96036 9.00088 1.82567 9.41297 1.71603C9.66058 1.65015 9.85539 1.6067 9.97237 1.58439L10.0895 1.57332H17.5902C17.8735 1.57332 18.1213 1.76387 18.1942 2.03764C18.219 2.13082 18.266 2.30621 18.3324 2.55203C18.4433 2.9621 18.568 3.41913 18.7039 3.91134C19.0921 5.31739 19.4916 6.72333 19.88 8.03473C19.9969 8.42947 20.1112 8.81033 20.2227 9.17574C20.3812 9.69566 20.5331 10.1816 20.6773 10.6298C21.3146 12.6121 21.0288 13.8594 20.0098 14.349C19.6828 14.506 19.3561 14.5462 19.0689 14.5252L19.0688 14.5251ZM8.67939 3.27655C8.21876 3.46853 7.85968 3.68276 7.6416 3.89764V10.1962H8.45589C8.68428 10.1962 8.89448 10.3208 9.00414 10.5211L11.0527 14.264C11.1031 14.356 11.1295 14.4592 11.1295 14.564V17.9722C11.4728 18.0225 11.8224 18.0207 12.1381 17.9439C13.2163 17.6818 13.7383 16.5891 13.2928 14.0052C13.227 13.6232 13.5211 13.274 13.9087 13.274H19.0852C19.1559 13.2781 19.1559 13.2781 19.1603 13.2785C19.2487 13.285 19.3686 13.2702 19.4684 13.2223C19.8206 13.053 19.9549 12.467 19.4873 11.0125C19.3411 10.5581 19.1874 10.0661 19.027 9.54039C18.9146 9.17165 18.7993 8.78757 18.6814 8.3897C18.2906 7.07002 17.8891 5.65695 17.499 4.24399C17.3625 3.74955 17.2372 3.29039 17.1257 2.87825L17.1109 2.82332H10.1514C10.0561 2.84321 9.91224 2.87667 9.73438 2.924C9.3728 3.02021 9.01183 3.138 8.67939 3.27655Z" fill="white"/>
</mask>
<g mask="url(#mask1)">
<rect width="33.3333" height="33.3333" transform="matrix(1 0 0 -1 1 20)" fill="#242424"/>
</g>
</svg>
