<svg width="24" height="21" viewBox="0 0 24 21" fill="none" xmlns="http://www.w3.org/2000/svg">
<path fill-rule="evenodd" clip-rule="evenodd" d="M0.945312 19.2897C0.945312 19.6349 1.22513 19.9147 1.57031 19.9147H7.05103C7.3962 19.9147 7.67603 19.6349 7.67603 19.2897V8.77539C7.67603 8.43021 7.3962 8.15039 7.05103 8.15039H1.57031C1.22513 8.15039 0.945312 8.43021 0.945312 8.77539V19.2897ZM6.42603 9.40039V18.6647H2.19531V9.40039H6.42603Z" fill="black"/>
<mask id="mask0" mask-type="alpha" maskUnits="userSpaceOnUse" x="0" y="8" width="8" height="12">
<path fill-rule="evenodd" clip-rule="evenodd" d="M0.945312 19.2897C0.945312 19.6349 1.22513 19.9147 1.57031 19.9147H7.05103C7.3962 19.9147 7.67603 19.6349 7.67603 19.2897V8.77539C7.67603 8.43021 7.3962 8.15039 7.05103 8.15039H1.57031C1.22513 8.15039 0.945312 8.43021 0.945312 8.77539V19.2897ZM6.42603 9.40039V18.6647H2.19531V9.40039H6.42603Z" fill="white"/>
</mask>
<g mask="url(#mask0)">
<rect x="-5.63208" y="-6.72223" width="33.3333" height="33.3333" fill="#242424"/>
</g>
<path fill-rule="evenodd" clip-rule="evenodd" d="M19.1033 6.25263C19.0593 6.25638 19.0593 6.25638 19.0369 6.25923L14.6635 6.25451C14.9664 3.54168 14.1237 2.02177 12.4678 1.6192C11.8903 1.47882 11.2948 1.4986 10.7286 1.61315C10.5566 1.64793 10.4247 1.68392 10.3427 1.71104C10.0867 1.79566 9.91388 2.03486 9.91388 2.30445V6.05388L8.1199 9.33159H7.05103C6.70585 9.33159 6.42603 9.61141 6.42603 9.95659V17.1109C6.42603 17.2432 6.46802 17.3721 6.54596 17.479C6.89963 17.9642 7.48148 18.3418 8.23295 18.655C8.6226 18.8174 9.03531 18.9521 9.4474 19.0617C9.695 19.1276 9.88982 19.1711 10.0068 19.1934L10.1239 19.2044H17.6246C17.9079 19.2044 18.1558 19.0139 18.2286 18.7401C18.2534 18.6469 18.3004 18.4716 18.3668 18.2257C18.4777 17.8157 18.6025 17.3586 18.7384 16.8664C19.1265 15.4604 19.526 14.0544 19.9144 12.743C20.0313 12.3483 20.1457 11.9674 20.2571 11.602C20.4157 11.0821 20.5675 10.5962 20.7117 10.148C21.349 8.1657 21.0632 6.91839 20.0442 6.42881C19.7172 6.27173 19.3906 6.23156 19.1033 6.25262L19.1033 6.25263ZM8.71381 17.5012C8.25318 17.3092 7.8941 17.095 7.67603 16.8801V10.5816H8.49031C8.7187 10.5816 8.92891 10.457 9.03856 10.2567L11.0871 6.51381C11.1375 6.42181 11.1639 6.31861 11.1639 6.21373V2.8056C11.5073 2.75522 11.8569 2.75709 12.1725 2.83383C13.2507 3.09593 13.7728 4.18867 13.3273 6.77254C13.2614 7.15453 13.5555 7.50373 13.9432 7.50373H19.1196C19.1903 7.49969 19.1903 7.49969 19.1947 7.49927C19.2831 7.49279 19.403 7.50753 19.5029 7.55552C19.8551 7.72473 19.9893 8.31077 19.5217 9.76531C19.3755 10.2197 19.2218 10.7117 19.0615 11.2374C18.949 11.6061 18.8337 11.9902 18.7158 12.3881C18.325 13.7077 17.9235 15.1208 17.5334 16.5338C17.3969 17.0282 17.2716 17.4874 17.1602 17.8995L17.1453 17.9544H10.1858C10.0906 17.9346 9.94667 17.9011 9.7688 17.8538C9.40722 17.7576 9.04626 17.6398 8.71381 17.5012Z" fill="black"/>
<mask id="mask1" mask-type="alpha" maskUnits="userSpaceOnUse" x="6" y="1" width="16" height="19">
<path fill-rule="evenodd" clip-rule="evenodd" d="M19.1033 6.25263C19.0593 6.25638 19.0593 6.25638 19.0369 6.25923L14.6635 6.25451C14.9664 3.54168 14.1237 2.02177 12.4678 1.6192C11.8903 1.47882 11.2948 1.4986 10.7286 1.61315C10.5566 1.64793 10.4247 1.68392 10.3427 1.71104C10.0867 1.79566 9.91388 2.03486 9.91388 2.30445V6.05388L8.1199 9.33159H7.05103C6.70585 9.33159 6.42603 9.61141 6.42603 9.95659V17.1109C6.42603 17.2432 6.46802 17.3721 6.54596 17.479C6.89963 17.9642 7.48148 18.3418 8.23295 18.655C8.6226 18.8174 9.03531 18.9521 9.4474 19.0617C9.695 19.1276 9.88982 19.1711 10.0068 19.1934L10.1239 19.2044H17.6246C17.9079 19.2044 18.1558 19.0139 18.2286 18.7401C18.2534 18.6469 18.3004 18.4716 18.3668 18.2257C18.4777 17.8157 18.6025 17.3586 18.7384 16.8664C19.1265 15.4604 19.526 14.0544 19.9144 12.743C20.0313 12.3483 20.1457 11.9674 20.2571 11.602C20.4157 11.0821 20.5675 10.5962 20.7117 10.148C21.349 8.1657 21.0632 6.91839 20.0442 6.42881C19.7172 6.27173 19.3906 6.23156 19.1033 6.25262L19.1033 6.25263ZM8.71381 17.5012C8.25318 17.3092 7.8941 17.095 7.67603 16.8801V10.5816H8.49031C8.7187 10.5816 8.92891 10.457 9.03856 10.2567L11.0871 6.51381C11.1375 6.42181 11.1639 6.31861 11.1639 6.21373V2.8056C11.5073 2.75522 11.8569 2.75709 12.1725 2.83383C13.2507 3.09593 13.7728 4.18867 13.3273 6.77254C13.2614 7.15453 13.5555 7.50373 13.9432 7.50373H19.1196C19.1903 7.49969 19.1903 7.49969 19.1947 7.49927C19.2831 7.49279 19.403 7.50753 19.5029 7.55552C19.8551 7.72473 19.9893 8.31077 19.5217 9.76531C19.3755 10.2197 19.2218 10.7117 19.0615 11.2374C18.949 11.6061 18.8337 11.9902 18.7158 12.3881C18.325 13.7077 17.9235 15.1208 17.5334 16.5338C17.3969 17.0282 17.2716 17.4874 17.1602 17.8995L17.1453 17.9544H10.1858C10.0906 17.9346 9.94667 17.9011 9.7688 17.8538C9.40722 17.7576 9.04626 17.6398 8.71381 17.5012Z" fill="white"/>
</mask>
<g mask="url(#mask1)">
<rect x="1.03442" y="0.777771" width="33.3333" height="33.3333" fill="#242424"/>
</g>
</svg>
