<svg width="20" height="20" viewBox="0 0 20 20" fill="none" xmlns="http://www.w3.org/2000/svg">
<path fill-rule="evenodd" clip-rule="evenodd" d="M17.7083 9.16042C17.7083 5.92444 15.5898 3.17424 12.6667 2.22388C12.6526 0.995111 11.649 0.000166893 10.4169 0.000166893C9.18489 0.000166893 8.18127 0.995029 8.16705 2.22373C5.24377 3.17395 3.125 5.92426 3.125 9.16042V15.5063C3.125 15.7363 3.31167 15.9229 3.54167 15.9229C3.77167 15.9229 3.95833 15.7363 3.95833 15.5063V9.16042C3.95833 5.59875 6.85583 2.70208 10.4167 2.70208C13.9775 2.70208 16.875 5.59875 16.875 9.16042V15.5063C16.875 15.7363 17.0617 15.9229 17.2917 15.9229C17.5217 15.9229 17.7083 15.7363 17.7083 15.5063V9.16042ZM10.4169 0.8335C11.1133 0.8335 11.6944 1.3393 11.8119 2.00266C11.3602 1.91479 10.8937 1.86875 10.4167 1.86875C9.93979 1.86875 9.47346 1.91476 9.02189 2.00257C9.13928 1.33926 9.71976 0.8335 10.4169 0.8335ZM7.78168 17.3333C7.78168 18.7858 8.96335 19.9683 10.4167 19.9683C11.87 19.9683 13.0517 18.7858 13.0517 17.3333C13.0517 17.1033 12.865 16.9167 12.635 16.9167C12.405 16.9167 12.2184 17.1033 12.2184 17.3333C12.2184 18.3267 11.41 19.135 10.4167 19.135C9.42335 19.135 8.61502 18.3267 8.61502 17.3333C8.61502 17.1033 8.42835 16.9167 8.19835 16.9167C7.96835 16.9167 7.78168 17.1033 7.78168 17.3333Z" fill="#E6001E"/>
<mask id="mask0" mask-type="alpha" maskUnits="userSpaceOnUse" x="3" y="0" width="15" height="20">
<path fill-rule="evenodd" clip-rule="evenodd" d="M17.7083 9.16042C17.7083 5.92444 15.5898 3.17424 12.6667 2.22388C12.6526 0.995111 11.649 0.000166893 10.4169 0.000166893C9.18489 0.000166893 8.18127 0.995029 8.16705 2.22373C5.24377 3.17395 3.125 5.92426 3.125 9.16042V15.5063C3.125 15.7363 3.31167 15.9229 3.54167 15.9229C3.77167 15.9229 3.95833 15.7363 3.95833 15.5063V9.16042C3.95833 5.59875 6.85583 2.70208 10.4167 2.70208C13.9775 2.70208 16.875 5.59875 16.875 9.16042V15.5063C16.875 15.7363 17.0617 15.9229 17.2917 15.9229C17.5217 15.9229 17.7083 15.7363 17.7083 15.5063V9.16042ZM10.4169 0.8335C11.1133 0.8335 11.6944 1.3393 11.8119 2.00266C11.3602 1.91479 10.8937 1.86875 10.4167 1.86875C9.93979 1.86875 9.47346 1.91476 9.02189 2.00257C9.13928 1.33926 9.71976 0.8335 10.4169 0.8335ZM7.78168 17.3333C7.78168 18.7858 8.96335 19.9683 10.4167 19.9683C11.87 19.9683 13.0517 18.7858 13.0517 17.3333C13.0517 17.1033 12.865 16.9167 12.635 16.9167C12.405 16.9167 12.2184 17.1033 12.2184 17.3333C12.2184 18.3267 11.41 19.135 10.4167 19.135C9.42335 19.135 8.61502 18.3267 8.61502 17.3333C8.61502 17.1033 8.42835 16.9167 8.19835 16.9167C7.96835 16.9167 7.78168 17.1033 7.78168 17.3333Z" fill="white"/>
</mask>
<g mask="url(#mask0)">
<rect x="-6.6665" y="-7.5" width="33.3333" height="33.3333" fill="#E6001E"/>
</g>
<path fill-rule="evenodd" clip-rule="evenodd" d="M2.93201 16.9581H17.9012L17.1287 15.9589H3.70451L2.93201 16.9581ZM18.7495 17.7914H2.08288C1.92454 17.7914 1.77954 17.7014 1.70954 17.5589C1.63954 17.4156 1.65621 17.2456 1.75371 17.1197L3.17038 15.2873C3.24954 15.1848 3.37121 15.1256 3.50038 15.1256H17.3329C17.462 15.1256 17.5837 15.1848 17.6629 15.2873L19.0795 17.1197C19.177 17.2456 19.1937 17.4156 19.1237 17.5589C19.0537 17.7014 18.9087 17.7914 18.7495 17.7914Z" fill="#E6001E"/>
<mask id="mask1" mask-type="alpha" maskUnits="userSpaceOnUse" x="1" y="15" width="19" height="3">
<path fill-rule="evenodd" clip-rule="evenodd" d="M2.93201 16.9581H17.9012L17.1287 15.9589H3.70451L2.93201 16.9581ZM18.7495 17.7914H2.08288C1.92454 17.7914 1.77954 17.7014 1.70954 17.5589C1.63954 17.4156 1.65621 17.2456 1.75371 17.1197L3.17038 15.2873C3.24954 15.1848 3.37121 15.1256 3.50038 15.1256H17.3329C17.462 15.1256 17.5837 15.1848 17.6629 15.2873L19.0795 17.1197C19.177 17.2456 19.1937 17.4156 19.1237 17.5589C19.0537 17.7014 18.9087 17.7914 18.7495 17.7914Z" fill="white"/>
</mask>
<g mask="url(#mask1)">
<rect width="33.3333" height="33.3333" fill="#E6001E"/>
</g>
</svg>
