<svg width="40" height="32" viewBox="0 0 40 32" fill="none" xmlns="http://www.w3.org/2000/svg">
<path fill-rule="evenodd" clip-rule="evenodd" d="M12.5798 32C27.6747 32 35.9294 19.6898 35.9294 9.01546C35.9294 8.66566 35.9222 8.31744 35.9061 7.9711C37.5083 6.83098 38.9011 5.4083 40 3.78844C38.5296 4.43135 36.947 4.86478 35.2872 5.06023C36.9814 4.06028 38.2824 2.47775 38.8958 0.59156C37.3098 1.51686 35.5542 2.19 33.685 2.55224C32.1874 0.982154 30.0546 0 27.6946 0C23.1621 0 19.4867 3.61787 19.4867 8.07773C19.4867 8.71181 19.5589 9.3281 19.6997 9.91966C12.8794 9.58214 6.8312 6.3673 2.78416 1.47953C2.07872 2.67305 1.67264 4.06028 1.67264 5.53981C1.67264 8.34248 3.1216 10.8166 5.32464 12.264C3.97856 12.2232 2.71376 11.8591 1.60768 11.2533C1.60592 11.2872 1.60592 11.3209 1.60592 11.3563C1.60592 15.2692 4.43504 18.5354 8.18992 19.2761C7.50064 19.4607 6.77536 19.5602 6.02656 19.5602C5.49776 19.5602 4.98352 19.5087 4.48384 19.4145C5.52848 22.624 8.55792 24.9596 12.1504 25.0254C9.34096 27.1922 5.80272 28.4834 1.95776 28.4834C1.29552 28.4834 0.6424 28.4461 0 28.3714C3.63216 30.6627 7.94448 32 12.5798 32Z" fill="#059FF5"/>
</svg>
