<svg width="26" height="32" viewBox="0 0 26 32" fill="none" xmlns="http://www.w3.org/2000/svg">
<path fill-rule="evenodd" clip-rule="evenodd" d="M10.6871 14.3328H14.9191V9.19283H10.6871V14.3328ZM14.4431 7.29483C15.6621 7.29483 16.8201 7.32083 17.9761 7.28283C18.5621 7.26483 19.1441 7.12283 19.7301 7.05183C21.1541 6.87783 22.2721 5.13983 21.6931 3.48983C21.3451 2.49183 20.6391 1.85283 19.6051 1.65383C18.5801 1.45683 17.6141 1.67583 17.0121 2.57683C16.3101 3.62683 15.7121 4.74783 15.0971 5.85283C14.8471 6.29983 14.6691 6.78683 14.4431 7.29483ZM11.1261 7.29483C11.0981 7.20983 11.0851 7.13783 11.0541 7.07383C10.5711 6.07683 10.1221 5.06283 9.59008 4.09283C9.24408 3.46083 8.85108 2.82083 8.35008 2.31183C6.99408 0.932828 4.53508 1.60783 3.89908 3.47583C3.33708 5.12383 4.42908 6.87483 5.85008 7.05083C6.42408 7.12083 6.99308 7.26483 7.56808 7.28283C8.74408 7.31983 9.92208 7.29483 11.1261 7.29483ZM23.9741 9.18983H16.5401V14.3288H23.9961C23.9961 12.6578 23.9961 11.0198 23.9951 9.38083C23.9951 9.32283 23.9831 9.26383 23.9741 9.18983ZM1.63008 14.3498H9.05508V9.19383H1.63008V14.3498ZM10.6851 29.6558H14.9161V15.9708H10.6851V29.6558ZM16.5311 29.6578H22.7341V15.9758H16.5311V29.6578ZM2.85508 29.6608H9.05208V15.9728H2.85508V29.6608ZM22.1271 7.56283C22.9851 7.56283 23.7611 7.56183 24.5371 7.56283C25.3031 7.56483 25.5921 7.84983 25.5931 8.60683C25.5941 10.6778 25.5931 12.7488 25.5931 14.8198C25.5931 15.6728 25.3961 15.8858 24.5511 15.9498C24.4911 15.9548 24.4331 15.9728 24.3451 15.9918V16.4358V30.1578C24.3451 31.0268 24.0911 31.2828 23.2281 31.2828C16.2751 31.2838 9.32108 31.2838 2.36808 31.2828C1.50408 31.2828 1.25008 31.0288 1.25008 30.1588V16.4378V15.9908C1.15108 15.9728 1.08008 15.9538 1.00908 15.9498C0.21908 15.8938 0.00208 15.6598 0.00108 14.8598C0.00108 13.0718 0.00108 11.2838 0.00108 9.49683C0.00108 9.17583 -0.00192 8.85583 0.00208 8.53483C0.00908 7.87183 0.31108 7.56883 0.98108 7.56383C1.78208 7.55883 2.58208 7.56283 3.44208 7.56283C3.36308 7.44883 3.31808 7.37083 3.26008 7.30383C1.82908 5.63283 1.78408 3.27183 3.15408 1.60083C4.52608 -0.0721719 6.90508 -0.510172 8.79208 0.650828C9.32808 0.979828 9.77608 1.50883 10.1571 2.02583C11.1871 3.41983 11.8991 4.99383 12.5731 6.58383C12.6271 6.70783 12.6821 6.83183 12.7391 6.95383C12.7481 6.97083 12.7781 6.97683 12.8331 7.00783C12.9711 6.69383 13.1071 6.38283 13.2421 6.07283C13.8621 4.64683 14.5621 3.26683 15.4451 1.98183C16.3991 0.596828 17.6941 -0.0741719 19.3771 0.0158281C21.3861 0.122828 23.1361 1.77983 23.3881 3.77483C23.5591 5.12883 23.1971 6.30583 22.3081 7.33083C22.2621 7.38383 22.2211 7.44183 22.1271 7.56283Z" fill="#242424"/>
</svg>
