<svg width="20" height="20" viewBox="0 0 20 20" fill="none" xmlns="http://www.w3.org/2000/svg">
<path fill-rule="evenodd" clip-rule="evenodd" d="M0 0V0.833333H1.66667V0H0ZM0 5.83333V5H1.66667V5.83333H0ZM0 10.8333V10H1.66667V10.8333H0ZM3.75 10.8333V10H6.66667V10.8333H3.75ZM3.75 5V5.83333H17.0833V5H3.75ZM3.75 0.833333V0H17.0833V0.833333H3.75ZM10.4198 9.9822C11.8681 8.5332 14.2158 8.5332 15.6639 9.98205C17.1121 11.4302 17.1121 13.7773 15.664 15.2262C14.2158 16.6743 11.868 16.6743 10.4199 15.2262C8.97098 13.7773 8.97098 11.4303 10.4198 9.9822ZM15.9453 16.0967C14.161 17.5834 11.5049 17.4897 9.83065 15.8155C8.05625 14.0411 8.05625 11.1664 9.83058 9.39295C11.6041 7.61846 14.4797 7.61846 16.2532 9.39287C17.9275 11.0671 18.0212 13.7226 16.5345 15.5074L19.7533 18.7262C19.916 18.8889 19.916 19.1527 19.7533 19.3155C19.5906 19.4782 19.3268 19.4782 19.164 19.3155L15.9453 16.0967Z" fill="#E6001E"/>
<mask id="mask0" mask-type="alpha" maskUnits="userSpaceOnUse" x="0" y="0" width="20" height="20">
<path fill-rule="evenodd" clip-rule="evenodd" d="M0 0V0.833333H1.66667V0H0ZM0 5.83333V5H1.66667V5.83333H0ZM0 10.8333V10H1.66667V10.8333H0ZM3.75 10.8333V10H6.66667V10.8333H3.75ZM3.75 5V5.83333H17.0833V5H3.75ZM3.75 0.833333V0H17.0833V0.833333H3.75ZM10.4198 9.9822C11.8681 8.5332 14.2158 8.5332 15.6639 9.98205C17.1121 11.4302 17.1121 13.7773 15.664 15.2262C14.2158 16.6743 11.868 16.6743 10.4199 15.2262C8.97098 13.7773 8.97098 11.4303 10.4198 9.9822ZM15.9453 16.0967C14.161 17.5834 11.5049 17.4897 9.83065 15.8155C8.05625 14.0411 8.05625 11.1664 9.83058 9.39295C11.6041 7.61846 14.4797 7.61846 16.2532 9.39287C17.9275 11.0671 18.0212 13.7226 16.5345 15.5074L19.7533 18.7262C19.916 18.8889 19.916 19.1527 19.7533 19.3155C19.5906 19.4782 19.3268 19.4782 19.164 19.3155L15.9453 16.0967Z" fill="white"/>
</mask>
<g mask="url(#mask0)">
<rect x="-6.66675" y="-6.66667" width="33.3333" height="33.3333" fill="#E6001E"/>
</g>
</svg>
