<svg width="21" height="20" viewBox="0 0 21 20" fill="none" xmlns="http://www.w3.org/2000/svg">
<path fill-rule="evenodd" clip-rule="evenodd" d="M2.70858 16.8667V17.7H0.000244141V0H15.5002V12.1175H14.6669V0.833333H0.833578V16.8667H2.70858ZM2.70858 10.9165V10.0832H12.7919V10.9165H2.70858ZM2.70858 6.87517V7.7085H12.7919V6.87517H2.70858ZM2.70858 4.50008V3.66675H12.7919V4.50008H2.70858ZM7.58254 17.2761V13.9627H8.68754V19.1002H7.58254L5.58587 15.7869V19.1002H4.47754V13.9627H5.58587L7.58254 17.2761ZM11.0454 13.9627H9.93871V19.1002H10.6862H13.4062V18.2077H11.0454V16.8911H13.0529V16.0277H11.0454V14.8594H13.4029V13.9627H11.0454ZM18.3582 17.5336L19.0215 13.9627H20.1224L18.9965 19.1002H18.2874H17.8749L17.0774 15.7619L16.2832 19.1002H15.6482H15.1624L14.0324 13.9627H15.1332L15.7999 17.5336L16.6082 13.9627H17.1974H17.5465L18.3582 17.5336Z" fill="#E6001E"/>
<mask id="mask0" mask-type="alpha" maskUnits="userSpaceOnUse" x="0" y="0" width="21" height="20">
<path fill-rule="evenodd" clip-rule="evenodd" d="M2.70858 16.8667V17.7H0.000244141V0H15.5002V12.1175H14.6669V0.833333H0.833578V16.8667H2.70858ZM2.70858 10.9165V10.0832H12.7919V10.9165H2.70858ZM2.70858 6.87517V7.7085H12.7919V6.87517H2.70858ZM2.70858 4.50008V3.66675H12.7919V4.50008H2.70858ZM7.58254 17.2761V13.9627H8.68754V19.1002H7.58254L5.58587 15.7869V19.1002H4.47754V13.9627H5.58587L7.58254 17.2761ZM11.0454 13.9627H9.93871V19.1002H10.6862H13.4062V18.2077H11.0454V16.8911H13.0529V16.0277H11.0454V14.8594H13.4029V13.9627H11.0454ZM18.3582 17.5336L19.0215 13.9627H20.1224L18.9965 19.1002H18.2874H17.8749L17.0774 15.7619L16.2832 19.1002H15.6482H15.1624L14.0324 13.9627H15.1332L15.7999 17.5336L16.6082 13.9627H17.1974H17.5465L18.3582 17.5336Z" fill="white"/>
</mask>
<g mask="url(#mask0)">
<rect x="-8.33325" y="-6.66667" width="33.3333" height="33.3333" fill="#E6001E"/>
</g>
</svg>
