<svg width="26" height="24" viewBox="0 0 26 24" fill="none" xmlns="http://www.w3.org/2000/svg">
<path fill-rule="evenodd" clip-rule="evenodd" d="M0.892853 22.2143C0.892853 22.6285 1.22864 22.9643 1.64285 22.9643H8.21971C8.63392 22.9643 8.96971 22.6285 8.96971 22.2143V9.59714C8.96971 9.18292 8.63392 8.84714 8.21971 8.84714H1.64285C1.22864 8.84714 0.892853 9.18292 0.892853 9.59714V22.2143ZM7.46971 10.3471V21.4643H2.39285V10.3471H7.46971Z" fill="black"/>
<mask id="mask0" mask-type="alpha" maskUnits="userSpaceOnUse" x="0" y="8" width="9" height="15">
<path fill-rule="evenodd" clip-rule="evenodd" d="M0.892853 22.2143C0.892853 22.6285 1.22864 22.9643 1.64285 22.9643H8.21971C8.63392 22.9643 8.96971 22.6285 8.96971 22.2143V9.59714C8.96971 9.18292 8.63392 8.84714 8.21971 8.84714H1.64285C1.22864 8.84714 0.892853 9.18292 0.892853 9.59714V22.2143ZM7.46971 10.3471V21.4643H2.39285V10.3471H7.46971Z" fill="white"/>
</mask>
<g mask="url(#mask0)">
<rect x="-7" y="-9" width="40" height="40" fill="#242424"/>
</g>
<path fill-rule="evenodd" clip-rule="evenodd" d="M22.6028 6.57776L22.6028 6.57776L17.3548 6.5721C17.7182 3.31671 16.707 1.49281 14.7199 1.00973C14.0269 0.841273 13.3124 0.865007 12.6328 1.00246C12.4265 1.0442 12.2682 1.0874 12.1698 1.11993C11.8626 1.22147 11.6552 1.50852 11.6552 1.83202V6.33134L9.50244 10.2646H8.21979C7.80557 10.2646 7.46979 10.6004 7.46979 11.0146V19.5997C7.46979 19.7585 7.52018 19.9132 7.61371 20.0415C8.03812 20.6238 8.73634 21.0769 9.6381 21.4527C10.1057 21.6476 10.6009 21.8092 11.0954 21.9408C11.3926 22.0198 11.6263 22.072 11.7667 22.0987L11.9072 22.112H20.9081C21.248 22.112 21.5455 21.8834 21.6329 21.5548C21.6626 21.443 21.719 21.2326 21.7988 20.9376C21.9318 20.4455 22.0815 19.8971 22.2446 19.3064C22.7104 17.6191 23.1897 15.932 23.6558 14.3583C23.7961 13.8847 23.9333 13.4276 24.0671 12.9891C24.2574 12.3652 24.4396 11.7821 24.6126 11.2443C25.3773 8.86553 25.0344 7.36876 23.8116 6.78126C23.4192 6.59277 23.0272 6.54456 22.6826 6.56983C22.6298 6.57434 22.6298 6.57435 22.6028 6.57776ZM10.2151 20.0681C9.66237 19.8378 9.23148 19.5807 8.96979 19.3228V11.7646H9.94693C10.221 11.7646 10.4732 11.6151 10.6048 11.3747L13.0631 6.88326C13.1235 6.77285 13.1552 6.64902 13.1552 6.52317V2.4334C13.5673 2.37296 13.9868 2.3752 14.3656 2.46728C15.6594 2.78181 16.2859 4.09309 15.7513 7.19373C15.6722 7.65212 16.0252 8.07117 16.4904 8.07117H22.7021C22.7819 8.0666 22.7866 8.06633 22.7913 8.0659L22.7922 8.06582C22.8983 8.05804 23.0421 8.07572 23.162 8.13331C23.5846 8.33637 23.7458 9.03961 23.1846 10.7851C23.0092 11.3303 22.8247 11.9207 22.6323 12.5515C22.4974 12.994 22.359 13.4549 22.2176 13.9324C21.7486 15.516 21.2668 17.2117 20.7987 18.9072C20.6349 19.5006 20.4845 20.0515 20.3508 20.5461L20.3329 20.612H11.9815C11.8672 20.5882 11.6946 20.548 11.4811 20.4912C11.0472 20.3758 10.6141 20.2344 10.2151 20.0681Z" fill="black"/>
<mask id="mask1" mask-type="alpha" maskUnits="userSpaceOnUse" x="7" y="0" width="19" height="23">
<path fill-rule="evenodd" clip-rule="evenodd" d="M22.6028 6.57776L22.6028 6.57776L17.3548 6.5721C17.7182 3.31671 16.707 1.49281 14.7199 1.00973C14.0269 0.841273 13.3124 0.865007 12.6328 1.00246C12.4265 1.0442 12.2682 1.0874 12.1698 1.11993C11.8626 1.22147 11.6552 1.50852 11.6552 1.83202V6.33134L9.50244 10.2646H8.21979C7.80557 10.2646 7.46979 10.6004 7.46979 11.0146V19.5997C7.46979 19.7585 7.52018 19.9132 7.61371 20.0415C8.03812 20.6238 8.73634 21.0769 9.6381 21.4527C10.1057 21.6476 10.6009 21.8092 11.0954 21.9408C11.3926 22.0198 11.6263 22.072 11.7667 22.0987L11.9072 22.112H20.9081C21.248 22.112 21.5455 21.8834 21.6329 21.5548C21.6626 21.443 21.719 21.2326 21.7988 20.9376C21.9318 20.4455 22.0815 19.8971 22.2446 19.3064C22.7104 17.6191 23.1897 15.932 23.6558 14.3583C23.7961 13.8847 23.9333 13.4276 24.0671 12.9891C24.2574 12.3652 24.4396 11.7821 24.6126 11.2443C25.3773 8.86553 25.0344 7.36876 23.8116 6.78126C23.4192 6.59277 23.0272 6.54456 22.6826 6.56983C22.6298 6.57434 22.6298 6.57435 22.6028 6.57776ZM10.2151 20.0681C9.66237 19.8378 9.23148 19.5807 8.96979 19.3228V11.7646H9.94693C10.221 11.7646 10.4732 11.6151 10.6048 11.3747L13.0631 6.88326C13.1235 6.77285 13.1552 6.64902 13.1552 6.52317V2.4334C13.5673 2.37296 13.9868 2.3752 14.3656 2.46728C15.6594 2.78181 16.2859 4.09309 15.7513 7.19373C15.6722 7.65212 16.0252 8.07117 16.4904 8.07117H22.7021C22.7819 8.0666 22.7866 8.06633 22.7913 8.0659L22.7922 8.06582C22.8983 8.05804 23.0421 8.07572 23.162 8.13331C23.5846 8.33637 23.7458 9.03961 23.1846 10.7851C23.0092 11.3303 22.8247 11.9207 22.6323 12.5515C22.4974 12.994 22.359 13.4549 22.2176 13.9324C21.7486 15.516 21.2668 17.2117 20.7987 18.9072C20.6349 19.5006 20.4845 20.0515 20.3508 20.5461L20.3329 20.612H11.9815C11.8672 20.5882 11.6946 20.548 11.4811 20.4912C11.0472 20.3758 10.6141 20.2344 10.2151 20.0681Z" fill="white"/>
</mask>
<g mask="url(#mask1)">
<rect x="1" width="40" height="40" fill="#242424"/>
</g>
</svg>
