<svg width="33" height="33" viewBox="0 0 33 33" fill="none" xmlns="http://www.w3.org/2000/svg">
<path fill-rule="evenodd" clip-rule="evenodd" d="M31.4607 20.5039C32.0367 19.9213 31.5221 18.5479 30.3114 17.4386C29.0994 16.3279 27.6527 15.8999 27.0754 16.4839L16.6434 27.0439L15.7061 32.2226L21.0287 31.0653L31.4607 20.5039Z" stroke="#E6001E" stroke-width="1.5" stroke-linejoin="round"/>
<path fill-rule="evenodd" clip-rule="evenodd" d="M19.9514 7.38068C19.9514 4.22468 17.3941 1.66602 14.2381 1.66602C11.0821 1.66602 8.52344 4.22468 8.52344 7.38068C8.52344 10.5367 11.0821 13.0953 14.2381 13.0953C17.3941 13.0953 19.9514 10.5367 19.9514 7.38068Z" stroke="#E6001E" stroke-width="1.5" stroke-linejoin="round"/>
<path d="M1.66699 29.6666C1.66699 22.0919 7.29633 15.9519 14.239 15.9519C15.803 15.9519 17.299 16.2639 18.6803 16.8332C19.2737 17.0772 19.847 17.3692 20.3937 17.7052" stroke="#E6001E" stroke-width="1.5" stroke-linejoin="round"/>
<path d="M17.687 25.9883C17.1097 26.5709 17.6244 27.9443 18.835 29.0549C20.047 30.1643 21.4937 30.5923 22.071 30.0083" stroke="#E6001E" stroke-width="1.5" stroke-linejoin="round"/>
</svg>
