<svg width="193" height="36" viewBox="0 0 193 36" fill="none" xmlns="http://www.w3.org/2000/svg">
<g id="Group 21">
<path id="Fill 1" fill-rule="evenodd" clip-rule="evenodd" d="M192.056 27.1598C190.676 24.4343 187.292 22.1028 181.531 19.7028C182.837 18.3038 184.181 16.7633 185.426 15.3278L186.384 14.2238C186.63 13.8948 187.102 13.6793 187.482 13.5053C187.65 13.4288 187.809 13.3553 187.941 13.2748C188.161 13.1353 188.296 12.9463 188.334 12.7283C188.375 12.4828 188.291 12.2073 188.102 11.9708C187.172 10.9113 186.148 9.96534 184.972 9.08034C184.728 8.88034 184.443 8.85034 184.295 8.85034C184.074 8.85034 183.866 8.91334 183.71 9.02934C182.833 9.70784 182.596 9.77134 182.167 9.88684C182.167 9.88684 173.578 12.0863 169.75 12.2378H169.403C168.599 12.2378 168.112 12.0678 167.726 11.6548C167.692 11.6158 167.665 11.5803 167.641 11.5503C167.575 11.4648 167.518 11.3908 167.419 11.3908C167.179 11.3908 167.105 11.6428 167.067 11.7698C167.02 11.9768 167.02 12.1783 167.02 12.3733C167.02 14.8953 170.227 15.7148 170.593 15.7998C170.593 15.7998 171.036 15.6488 171.786 15.2718C173.17 14.5763 174.755 13.8938 175.797 13.6313C177.645 13.1193 178.967 12.8613 180.368 12.5878L180.422 12.5773C180.92 12.4798 181.424 12.3808 181.953 12.2678C181.953 12.2678 182.132 12.2113 182.171 12.2738C182.204 12.3253 182.129 12.4618 182.065 12.5653C176.082 22.8558 166.466 29.9863 162.243 32.2563L162.318 32.4978V32.4983C167.37 31.0863 175.238 26.2698 180.82 20.4613C183.804 22.6303 185.866 25.1373 187.804 28.6933C187.881 28.8368 188.256 29.5543 188.256 29.5543C188.837 30.6738 189.494 31.9423 190.771 31.9423C191.182 31.9423 191.567 31.7708 191.855 31.4588C192.746 30.4903 192.829 28.7228 192.056 27.1598ZM164.818 23.6949C165.045 23.2019 165.164 22.6784 165.164 22.1814C165.164 20.6734 164.308 19.5209 163.51 18.9414C163.035 18.5969 159.182 16.1059 155.48 16.0819C155.984 15.5949 156.452 15.1354 156.873 14.7199C158.46 13.1519 159.712 11.9139 160.556 11.4804C160.833 11.3389 160.984 11.1219 160.984 10.8689C160.984 10.5824 160.766 10.3114 160.317 10.0404C158.823 9.16786 157.625 8.57386 156.544 8.17036C156.336 8.09286 156.183 8.05786 156.048 8.05786C155.879 8.05786 155.734 8.11636 155.59 8.24186C155.564 8.26436 155.526 8.30086 155.48 8.34686C155.27 8.55086 154.879 8.93036 154.495 9.07286C151.126 9.97986 147.52 10.6244 145.089 10.7544H144.885C144.319 10.7544 143.53 10.6144 142.985 9.94436C142.917 9.86736 142.834 9.82486 142.753 9.82486C142.629 9.82486 142.534 9.91386 142.494 10.0829C142.434 10.3369 142.375 10.6189 142.391 10.7769C142.42 11.4219 143.364 13.3309 145.365 13.8034L145.579 13.7244C145.875 13.6149 146.32 13.4494 147.321 13.1289C148.75 12.6709 154.077 11.5239 154.312 11.4769C154.337 11.4724 154.562 11.3934 154.562 11.3934C154.562 11.3934 154.405 11.5499 154.311 11.6824C148.243 20.1404 140.126 25.6524 137.453 27.4374L137.406 27.4689L137.44 27.6779L137.531 27.6489C143.38 25.7729 148.209 22.4374 151.866 19.3534C151.917 20.3929 151.944 21.5509 151.944 22.7604C151.944 26.3904 151.735 29.6049 151.532 32.2769L151.518 32.7249C151.518 33.2404 151.594 33.9679 151.889 34.5029C152.302 35.3379 153.152 35.7189 153.768 35.7189C154.887 35.7189 155.372 33.9144 155.372 32.9929C155.352 30.6189 155.301 28.5204 155.251 26.4504C155.205 24.5979 155.148 22.2924 155.127 19.8029C155.127 19.1139 155.184 18.2769 155.348 17.9879C155.414 17.8459 155.414 17.7099 155.414 17.6519C155.414 17.2389 155.132 16.9679 154.786 16.7424C154.812 16.7174 154.837 16.6929 154.864 16.6679C158.187 17.7044 161.112 21.7304 161.772 23.2434C162.186 24.1934 162.697 24.6554 163.337 24.6554C163.904 24.6554 164.541 24.2439 164.818 23.6949ZM158.259 4.54038C158.259 4.12538 158.177 3.48438 157.786 2.79037C156.573 0.583375 153.367 0.186375 152.003 0.039375C151.421 -0.023625 150.656 0.007875 150.656 0.007875L150.554 0.179875L150.712 0.284875C151.587 0.861375 153.396 2.13388 154.976 5.47638C155.339 6.22688 155.916 6.65438 156.598 6.65438C156.931 6.65438 157.251 6.55037 157.519 6.35588C157.983 6.05188 158.259 5.37338 158.259 4.54038ZM140.112 12.0185L139.895 11.908C136.953 16.0865 130.64 23.191 119.483 28.6395C118.859 28.944 118.311 29.0745 117.823 29.0745C117.065 29.0745 116.45 28.8425 115.832 28.3235L115.217 27.7885L114.86 28.0585L118.918 34.031C119.03 34.1775 119.146 34.329 119.382 34.329C119.477 34.329 119.575 34.3 119.674 34.2425C120.043 34.028 121.203 33.1405 121.781 32.703C124.984 30.1905 126.791 28.609 128.556 27.105L128.787 26.9075C135.671 20.9615 139.265 14.316 140.112 12.0185ZM137.534 8.08138C137.068 5.54288 134.053 5.32788 132.859 5.32788C132.037 5.32788 131.354 5.47088 131.171 5.51538L131.092 5.82188C132.755 6.13438 133.867 6.97638 134.485 8.34588C134.827 9.10238 135.338 9.86188 136.196 9.87538C136.974 9.88788 137.734 9.16888 137.534 8.08138ZM132.535 8.54531C131.897 8.15981 130.389 7.56231 128.694 7.33081L128.6 7.61881C129.203 7.97131 130.695 9.09931 131.156 10.9923C131.22 11.2563 131.308 11.5998 131.406 11.8593C131.609 12.3988 132.098 13.1588 132.963 13.2338C133.495 13.2803 133.925 13.0888 134.188 12.7898C134.568 12.3558 134.642 11.7278 134.585 11.2853C134.432 10.1293 133.748 9.23681 132.535 8.54531ZM123.587 14.3788C123.806 14.0698 123.934 13.6473 123.969 13.1213C124.031 12.1538 123.671 11.2538 122.971 10.6683C121.661 9.5753 118.879 9.0863 116.203 9.7888L116.179 9.9998C118.461 11.1638 119.41 12.4758 120.315 13.6633C120.519 13.9303 120.724 14.1988 120.945 14.4723C121.263 14.8618 121.728 15.0948 122.187 15.0948C122.811 15.0948 123.256 14.8668 123.587 14.3788ZM113.801 17.308L113.773 17.4965C115.789 18.5865 116.875 20.176 117.69 21.325C117.835 21.528 117.971 21.72 118.101 21.8905C118.426 22.3485 118.869 22.6065 119.386 22.6065C120.351 22.6065 121.106 21.614 121.106 20.347C121.106 19.7995 120.952 19.273 120.674 18.869C119.586 17.094 116.328 16.6175 113.801 17.308ZM113.691 8.08138C113.225 5.54288 110.21 5.32788 109.016 5.32788C108.193 5.32788 107.511 5.47088 107.328 5.51538L107.249 5.82188C108.913 6.13438 110.024 6.97638 110.642 8.34588C110.983 9.10238 111.495 9.86188 112.354 9.87538C113.13 9.88788 113.891 9.16888 113.691 8.08138ZM108.691 8.54531C108.053 8.15981 106.545 7.56231 104.851 7.33081L104.755 7.61881C105.359 7.97131 106.852 9.09931 107.312 10.9923C107.377 11.2563 107.464 11.5998 107.562 11.8593C107.765 12.3988 108.254 13.1588 109.12 13.2338C109.651 13.2803 110.082 13.0888 110.344 12.7898C110.725 12.3558 110.798 11.7278 110.74 11.2853C110.588 10.1293 109.904 9.23681 108.691 8.54531ZM106.84 15.5869C106.804 15.4184 106.433 13.8859 104.665 12.0664C104.18 11.5679 103.239 10.8444 102.867 10.8444C102.761 10.8444 102.673 10.8959 102.633 10.9834C102.57 11.1239 102.608 11.2509 102.65 11.3904C102.693 11.5359 102.753 11.7359 102.748 12.0819C102.733 13.2254 101.932 14.4274 101.233 15.3629C99.7981 17.2854 96.4176 19.5689 92.9781 21.3209C93.1451 18.0559 93.5666 11.9474 93.5666 11.9474C93.6031 11.3619 93.6351 10.8094 93.7606 10.6269C93.9576 10.3414 93.9986 10.1199 93.9986 9.98391C93.9986 9.78741 93.9341 9.57441 93.8166 9.38391C93.0396 8.08391 91.7271 7.36841 90.1226 7.36841C89.4576 7.36841 88.8306 7.56341 88.2041 7.96691C88.0096 8.10591 87.9116 8.23441 87.9116 8.34941C87.9116 8.55591 88.0866 8.64691 88.2176 8.71291C89.3926 9.04541 89.8111 9.98141 89.8111 10.7464C89.8011 11.8604 89.7621 18.3164 89.7226 22.8084C88.9811 23.1064 88.2626 23.3674 87.5981 23.5709V23.8574C88.3131 23.7354 89.0201 23.6034 89.7166 23.4639C89.7001 25.2659 89.6836 26.6569 89.6696 27.0869C89.6396 28.0044 89.6396 29.0629 89.8621 29.9479C90.5801 32.7979 92.8576 34.1784 97.2516 34.4239C98.2621 34.4674 99.8541 34.5184 101.013 34.5184C102.745 34.5184 104.502 34.4254 106.385 34.2329C106.919 34.1719 108.23 33.9484 108.884 33.1764C109.27 32.6704 109.498 31.8104 108.869 31.0564C108.301 30.3749 106.875 29.7309 105.933 29.7309C105.712 29.7309 105.282 29.8204 105.144 29.8819C102.908 30.6124 100.315 31.0484 98.2096 31.0484C97.2016 31.0484 95.7281 30.9639 94.8911 30.7264C93.5041 30.3474 92.9091 29.6354 92.8346 28.2684C92.7591 26.8744 92.7591 26.8099 92.9156 22.7534C96.7531 21.8134 100.073 20.6869 102.263 19.7099C102.928 19.4129 104.703 18.5239 106.131 17.5349C106.85 17.0379 107.025 16.4354 106.84 15.5869ZM85.8199 17.5438V17.2933L85.6549 17.2753C82.7234 16.9943 80.1619 16.4023 78.4234 15.6043C80.4489 13.3308 81.6099 11.3928 82.3104 10.2168C83.2744 10.0208 84.2039 9.78426 84.2039 9.27076C84.2039 8.91576 81.0859 5.77376 80.7184 5.66376C80.4429 5.58176 80.2759 5.65876 80.0044 5.99226L78.9504 7.21676H68.2069V7.80326H71.2139C71.7264 12.2563 73.0049 14.9048 73.8849 16.1803C73.0029 17.3063 71.7889 18.8993 70.4659 20.0968C70.4624 20.0463 70.4584 19.9998 70.4539 19.9588C70.1034 18.3163 68.5274 16.8758 65.9569 15.6463L65.9634 15.6378C67.8084 13.9323 69.6109 11.6058 70.1239 10.4798L70.1609 10.3988L66.0359 8.85176L65.9734 9.01926C64.6319 12.7378 62.9409 16.1808 61.0464 18.8078H57.0874L58.3064 23.3058L62.0449 21.9363V24.6648C61.2329 24.4548 59.4869 24.0818 58.6849 23.9003L58.4714 23.8523L58.4624 24.0713C58.3999 26.8368 58.0564 30.9308 57.2184 33.9828L57.1819 34.1263H57.4339C58.4829 32.7953 60.6559 30.0998 62.0449 25.9168V34.6948C62.0449 34.8653 62.0449 35.3843 62.5494 35.3843C62.5494 35.3843 65.1054 35.2028 65.3894 35.1823C65.7714 35.1508 65.9419 34.9338 65.9419 34.4788V24.3443C66.4204 25.4318 66.6929 26.8473 66.7539 28.9878L66.7749 29.2363C66.8384 30.1523 67.1904 30.6033 67.9489 30.7433C68.0214 30.7563 68.0974 30.7633 68.1769 30.7633C68.6529 30.7633 69.1699 30.5323 69.5584 30.1453C69.8884 29.8163 70.2829 29.2208 70.2829 28.2543C70.2829 27.4738 70.0274 26.7498 69.5159 26.0398H73.6599V33.5393H66.4769V34.1263H73.7449H77.6519H79.0719H80.5154H84.9794C85.1559 34.1263 85.3179 34.0188 85.3824 33.8588C85.4429 33.7088 85.4069 33.5488 85.2854 33.4313C84.8124 32.9738 82.0114 30.6388 81.8879 30.5428C81.8384 30.5043 81.7874 30.4848 81.7349 30.4848C81.5884 30.4848 81.4889 30.6288 81.3929 30.7673L79.4774 33.5393H77.7369V26.0398H78.5524H79.3279H84.1639C84.3434 26.0398 84.4919 25.9528 84.5514 25.8133C84.6044 25.6908 84.5769 25.5563 84.4794 25.4538C84.1679 25.1263 81.6864 22.9603 81.3104 22.6643C81.2329 22.6033 81.1539 22.5723 81.0759 22.5723C80.9404 22.5723 80.8154 22.6628 80.6949 22.8478L78.9249 25.4848H77.7369V20.7278L73.6599 20.2543V25.4848H69.0589L68.9779 25.3903C68.3164 24.7048 67.3409 24.0423 66.0419 23.2913L65.9419 23.2333V20.2858C66.2274 20.1643 66.4734 20.0453 66.8074 19.8878C66.8334 20.1078 66.8339 20.3993 66.8699 20.8463C66.9529 21.8783 67.0564 23.0068 68.0624 23.1173C69.2029 23.2423 70.1044 22.4663 70.4034 21.3998C70.4089 21.3758 70.4129 21.3488 70.4179 21.3238C73.2164 20.0578 75.0484 18.7203 75.6629 18.2203C78.6704 20.9158 82.8159 22.0763 83.2734 22.0763C83.9429 22.0763 83.9969 21.1648 84.0624 20.6873C84.1794 19.8363 84.5699 18.5078 85.8199 17.5438ZM66.7322 18.8079H62.1587C62.4517 18.5814 64.5867 16.9234 65.5232 16.0604C65.5552 16.0299 65.6012 15.9894 65.6442 15.9514C66.0112 16.4699 66.5887 17.6939 66.7322 18.8079ZM75.5575 13.8785C73.8845 12.483 72.411 10.178 71.7505 7.80347H78.7535L78.7185 7.91797C78.4475 8.64947 77.583 10.9095 75.5575 13.8785ZM66.9478 6.03338L62.3203 4.59888C62.1903 5.84588 61.5383 8.75088 61.0863 9.95388C61.0573 9.93488 61.0273 9.91488 61.0038 9.89938C59.9663 9.27888 59.1623 8.98338 58.1483 8.59388L58.0043 8.53738L57.8828 8.71888C58.6638 9.77388 59.3823 11.6014 59.8568 14.6529C59.9928 15.5279 60.3758 15.7484 60.9998 15.7489C62.5233 15.7499 63.3963 14.4289 63.3963 13.1524C63.3963 12.2619 62.9433 11.4594 62.0273 10.6219C62.0248 10.6199 62.0158 10.6134 62.0113 10.6099C64.2883 9.01688 66.1608 7.31188 66.9478 6.03338ZM54.2818 8.51089C54.2818 7.95589 51.0623 5.23389 50.6733 5.23389C50.4598 5.23389 50.3143 5.39389 50.0678 5.75339L49.0573 7.25039H48.9528V7.25339H36.9138L32.1153 6.10639L32.1148 34.3869C32.1143 34.6914 32.1138 34.9544 32.2598 35.1004C32.3403 35.1809 32.4588 35.2199 32.6208 35.2199C32.6208 35.2199 35.9373 34.9919 35.9418 34.9919C36.3283 34.9434 36.5258 34.6919 36.5258 34.2444V32.2709H48.9528V33.6324C48.9528 34.0459 49.0813 34.1129 49.5258 34.1289H52.8233C53.2068 34.1289 53.3628 34.0459 53.3628 33.6324L53.3623 9.26889C53.5873 9.21189 54.2818 8.99639 54.2818 8.51089ZM36.5259 19.7833H48.9529V7.83984H36.5259V19.7833ZM36.5259 31.6829H48.9529V20.3689H36.5259V31.6829Z" fill="#231916"/>
<mask id="mask0" mask-type="alpha" maskUnits="userSpaceOnUse" x="0" y="0" width="193" height="36">
<path id="Clip 4" fill-rule="evenodd" clip-rule="evenodd" d="M0 35.719H192.585V0H0V35.719Z" fill="white"/>
</mask>
<g mask="url(#mask0)">
<path id="Fill 3" fill-rule="evenodd" clip-rule="evenodd" d="M0 34.417H28.0415V6.375H0V34.417Z" fill="#E50121"/>
<path id="Fill 5" fill-rule="evenodd" clip-rule="evenodd" d="M10.3171 12.9246C10.6081 12.9246 10.8531 12.7836 10.8531 12.4111C10.8531 11.9886 10.5716 11.9351 10.2671 11.9351V12.9246H10.3171ZM10.2672 13.6459C10.2672 13.9244 10.2542 14.2214 10.5752 14.2214C10.8297 14.2214 11.0052 14.0229 11.0052 13.7304C11.0052 13.2969 10.6547 13.0344 10.2672 13.0684V13.6459ZM9.39404 14.37V14.2635C9.78754 14.1865 9.83054 14.214 9.83054 13.5245V12.5135C9.81754 11.9995 9.82404 11.935 9.39404 11.89V11.783H10.393C10.77 11.783 11.3495 11.783 11.3495 12.357C11.3495 12.6995 11.048 12.852 10.803 12.9195V12.928C11.137 13.008 11.5015 13.228 11.5015 13.6815C11.5015 14.312 10.9025 14.37 10.489 14.37H9.39404Z" fill="#FEFEFE"/>
<path id="Fill 6" fill-rule="evenodd" clip-rule="evenodd" d="M13.2281 11.783H14.2601V11.8895C13.9431 11.984 13.9431 12.042 13.9166 12.6765L13.8931 13.248C13.8836 13.5475 13.8766 13.8905 13.6851 14.1185C13.4891 14.3545 13.1881 14.4345 12.9136 14.4345C12.6556 14.4345 12.3446 14.358 12.1501 14.157C11.9176 13.917 11.9506 13.5475 11.9506 13.229V12.627C11.9506 11.939 11.9076 11.965 11.5151 11.8895V11.783H12.8241V11.8895C12.3676 11.9355 12.3876 12.11 12.3876 12.627V13.16C12.3876 13.38 12.3776 13.681 12.4841 13.8715C12.6161 14.1035 12.8841 14.194 13.1156 14.194C13.6616 14.194 13.7446 13.738 13.7311 13.2665L13.7076 12.346C13.6976 11.939 13.5396 11.9615 13.2281 11.8895V11.783Z" fill="#FEFEFE"/>
<path id="Fill 7" fill-rule="evenodd" clip-rule="evenodd" d="M15.7513 12.5515H15.6518C15.5893 12.2395 15.5098 11.8935 15.1688 11.8935C14.9673 11.8935 14.8308 12.064 14.8308 12.2895C14.8308 12.9055 15.9198 12.8635 15.9198 13.6585C15.9198 14.206 15.4633 14.4345 15.0398 14.4345C14.8043 14.4345 14.5728 14.362 14.3678 14.24L14.2588 13.487L14.3613 13.4635C14.4708 13.8365 14.7123 14.2595 15.1023 14.2595C15.3208 14.2595 15.4833 14.096 15.4833 13.8485C15.4833 13.206 14.3943 13.259 14.3943 12.5055C14.3943 12 14.8148 11.7185 15.2183 11.7185C15.4168 11.7185 15.6123 11.775 15.7808 11.8895L15.7513 12.5515Z" fill="#FEFEFE"/>
<path id="Fill 8" fill-rule="evenodd" clip-rule="evenodd" d="M16.9458 13.5252C16.9458 14.2142 16.9888 14.1867 17.3823 14.2637V14.3687H16.0723V14.2637C16.4663 14.1867 16.5093 14.2142 16.5093 13.5252V12.6272C16.5093 11.9387 16.4663 11.9657 16.0723 11.8892V11.7832H17.3823V11.8892C16.9888 11.9657 16.9458 11.9387 16.9458 12.6272V13.5252Z" fill="#FEFEFE"/>
<path id="Fill 9" fill-rule="evenodd" clip-rule="evenodd" d="M18.0716 12.639C18.0716 12.248 18.0616 11.9735 17.6411 11.8895V11.783H18.4026C18.8196 12.407 19.3946 13.038 19.8716 13.6775L19.8781 13.67L19.8576 12.4605C19.8511 12.007 19.7521 11.9505 19.3621 11.8895V11.783H20.3676V11.8895C20.0766 11.92 20.0601 12.08 20.0601 12.6995V14.3925L19.9116 14.476C19.5861 14.0205 18.7991 13.1075 18.2531 12.4295C18.2436 12.8565 18.2601 13.2545 18.2736 13.67C18.2866 14.1375 18.3591 14.169 18.7501 14.2635V14.3695H17.6641V14.2635C17.9061 14.21 18.0716 14.225 18.0716 13.712V12.639Z" fill="#FEFEFE"/>
<path id="Fill 10" fill-rule="evenodd" clip-rule="evenodd" d="M21.4765 13.1407V13.6427C21.4765 14.0302 21.4805 14.2097 21.92 14.2097C22.35 14.2097 22.535 13.9322 22.628 13.4942H22.7275C22.7345 13.7917 22.6875 14.0847 22.6085 14.3692H20.6035V14.2632C20.997 14.1872 21.04 14.2137 21.04 13.5252V12.6272C21.04 11.9387 20.997 11.9647 20.6035 11.8892V11.7822H22.5625L22.499 12.4477H22.3965C22.373 11.9497 22.079 11.9427 21.718 11.9427H21.4765V12.9127H21.758C22.043 12.9127 22.1915 12.8852 22.2745 12.5402H22.36C22.3435 12.8627 22.3305 13.1822 22.3465 13.5057H22.254C22.1885 13.1327 22.0325 13.1407 21.7445 13.1407H21.4765Z" fill="#FEFEFE"/>
<path id="Fill 11" fill-rule="evenodd" clip-rule="evenodd" d="M24.4744 12.5515H24.3754C24.3124 12.2395 24.2329 11.8935 23.8914 11.8935C23.6904 11.8935 23.5544 12.064 23.5544 12.2895C23.5544 12.9055 24.6434 12.8635 24.6434 13.6585C24.6434 14.206 24.1864 14.4345 23.7634 14.4345C23.5279 14.4345 23.2964 14.362 23.0909 14.24L22.9824 13.487L23.0849 13.4635C23.1944 13.8365 23.4354 14.2595 23.8259 14.2595C24.0444 14.2595 24.2064 14.096 24.2064 13.8485C24.2064 13.206 23.1179 13.259 23.1179 12.5055C23.1179 12 23.5379 11.7185 23.9419 11.7185C24.1404 11.7185 24.3354 11.775 24.5039 11.8895L24.4744 12.5515Z" fill="#FEFEFE"/>
<path id="Fill 12" fill-rule="evenodd" clip-rule="evenodd" d="M26.3201 12.5515H26.2206C26.1581 12.2395 26.0791 11.8935 25.7376 11.8935C25.5361 11.8935 25.4006 12.064 25.4006 12.2895C25.4006 12.9055 26.4886 12.8635 26.4886 13.6585C26.4886 14.206 26.0321 14.4345 25.6086 14.4345C25.3736 14.4345 25.1426 14.362 24.9371 14.24L24.8281 13.487L24.9306 13.4635C25.0396 13.8365 25.2811 14.2595 25.6716 14.2595C25.8896 14.2595 26.0526 14.096 26.0526 13.8485C26.0526 13.206 24.9636 13.259 24.9636 12.5055C24.9636 12 25.3836 11.7185 25.7871 11.7185C25.9856 11.7185 26.1816 11.775 26.3496 11.8895L26.3201 12.5515Z" fill="#FEFEFE"/>
<path id="Fill 13" fill-rule="evenodd" clip-rule="evenodd" d="M13.5076 9.20976C13.5076 8.81776 13.4981 8.54426 13.0781 8.45976V8.35376H13.8386C14.2556 8.97776 14.8311 9.60876 15.3076 10.2478L15.3141 10.2408L15.2946 9.03126C15.2876 8.57776 15.1881 8.52126 14.7986 8.45976V8.35376H15.8036V8.45976C15.5131 8.49076 15.4961 8.65026 15.4961 9.27026V10.9633L15.3476 11.0468C15.0226 10.5908 14.2351 9.67826 13.6891 9.00026C13.6801 9.42726 13.6961 9.82526 13.7096 10.2408C13.7231 10.7083 13.7956 10.7393 14.1861 10.8338V10.9398H13.1006V10.8338C13.3426 10.7808 13.5076 10.7958 13.5076 10.2828V9.20976Z" fill="#FEFEFE"/>
<path id="Fill 14" fill-rule="evenodd" clip-rule="evenodd" d="M16.9482 10.096C16.9482 10.785 16.9917 10.7575 17.3847 10.8335V10.9395H16.0747V10.8335C16.4682 10.7575 16.5117 10.785 16.5117 10.096V9.198C16.5117 8.51 16.4682 8.5365 16.0747 8.4595V8.354H17.3847V8.4595C16.9917 8.5365 16.9482 8.51 16.9482 9.198V10.096Z" fill="#FEFEFE"/>
<path id="Fill 15" fill-rule="evenodd" clip-rule="evenodd" d="M23.6826 9.71153V10.2135C23.6826 10.601 23.6856 10.781 24.1256 10.781C24.5556 10.781 24.7411 10.503 24.8331 10.065H24.9331C24.9396 10.3615 24.8931 10.655 24.8136 10.9395H22.8091V10.8335C23.2026 10.7575 23.2456 10.7845 23.2456 10.096V9.19803C23.2456 8.51003 23.2026 8.53553 22.8091 8.45953V8.35303H24.7676L24.7046 9.01853H24.6021C24.5791 8.52103 24.2846 8.51353 23.9241 8.51353H23.6826V9.48303H23.9641C24.2481 9.48303 24.3971 9.45653 24.4796 9.11003H24.5656C24.5491 9.43303 24.5361 9.75353 24.5526 10.0765H24.4596C24.3936 9.70303 24.2381 9.71153 23.9506 9.71153H23.6826Z" fill="#FEFEFE"/>
<path id="Fill 16" fill-rule="evenodd" clip-rule="evenodd" d="M25.9414 10.096C25.9414 10.785 25.9844 10.7575 26.3779 10.8335V10.9395H25.0684V10.8335C25.4619 10.7575 25.5049 10.785 25.5049 10.096V9.198C25.5049 8.51 25.4619 8.5365 25.0684 8.4595V8.354H26.3779V8.4595C25.9844 8.5365 25.9414 8.51 25.9414 9.198V10.096Z" fill="#FEFEFE"/>
<path id="Fill 17" fill-rule="evenodd" clip-rule="evenodd" d="M18.5151 10.096V9.19799C18.5151 8.50999 18.5586 8.53599 18.9521 8.46049V8.35449H17.6421V8.46049C18.0356 8.53599 18.0786 8.50999 18.0786 9.19799V10.096C18.0786 10.784 18.0356 10.7575 17.6421 10.8345V10.94H18.9521V10.8345C18.5586 10.7575 18.5151 10.784 18.5151 10.096Z" fill="#FEFEFE"/>
<path id="Fill 18" fill-rule="evenodd" clip-rule="evenodd" d="M20.2837 10.843C20.1367 10.817 19.9677 10.7405 19.8412 10.5775L18.9412 9.4075L19.2127 9.084C19.5012 8.741 19.6112 8.5405 19.9592 8.46V8.354H19.0897V8.46C19.4382 8.529 19.2457 8.768 18.9982 9.088L18.5547 9.6585L19.2942 10.6555C19.6182 11.04 20.0352 10.988 20.2837 10.935V10.843Z" fill="#FEFEFE"/>
<path id="Fill 19" fill-rule="evenodd" clip-rule="evenodd" d="M21.0957 10.1038V9.2058C21.0957 8.5178 21.1392 8.5438 21.5327 8.4683V8.3623H20.2227V8.4683C20.6162 8.5438 20.6592 8.5178 20.6592 9.2058V10.1038C20.6592 10.7918 20.6162 10.7653 20.2227 10.8423V10.9478H21.5327V10.8423C21.1392 10.7653 21.0957 10.7918 21.0957 10.1038Z" fill="#FEFEFE"/>
<path id="Fill 20" fill-rule="evenodd" clip-rule="evenodd" d="M22.8647 10.8508C22.7177 10.8248 22.5487 10.7483 22.4222 10.5853L21.5222 9.41532L21.7937 9.09182C22.0822 8.74882 22.1922 8.54832 22.5402 8.46782V8.36182H21.6707V8.46782C22.0192 8.53682 21.8267 8.77582 21.5792 9.09582L21.1357 9.66632L21.8752 10.6633C22.1992 11.0478 22.6162 10.9958 22.8647 10.9428V10.8508Z" fill="#FEFEFE"/>
</g>
</g>
</svg>
