<svg width="129" height="24" viewBox="0 0 129 24" fill="none" xmlns="http://www.w3.org/2000/svg">
<path fill-rule="evenodd" clip-rule="evenodd" d="M128.038 18.1066C127.118 16.2896 124.862 14.7353 121.021 13.1353C121.892 12.2026 122.788 11.1756 123.618 10.2186L124.256 9.48258C124.421 9.26325 124.735 9.11958 124.989 9.00358C125.1 8.95258 125.206 8.90358 125.295 8.84992C125.441 8.75692 125.531 8.63092 125.556 8.48558C125.584 8.32192 125.528 8.13825 125.402 7.98058C124.782 7.27425 124.099 6.64358 123.315 6.05358C123.153 5.92025 122.962 5.90025 122.864 5.90025C122.717 5.90025 122.578 5.94225 122.474 6.01958C121.889 6.47192 121.731 6.51425 121.445 6.59125C121.445 6.59125 115.719 8.05758 113.167 8.15858H112.936C112.4 8.15858 112.075 8.04525 111.818 7.76992C111.795 7.74392 111.777 7.72025 111.761 7.70025C111.717 7.64325 111.679 7.59392 111.613 7.59392C111.453 7.59392 111.404 7.76192 111.378 7.84658C111.347 7.98458 111.347 8.11892 111.347 8.24892C111.347 9.93025 113.485 10.4766 113.729 10.5332C113.729 10.5332 114.025 10.4326 114.525 10.1813C115.447 9.71758 116.504 9.26258 117.199 9.08758C118.431 8.74625 119.312 8.57425 120.246 8.39192L120.282 8.38492C120.614 8.31992 120.95 8.25392 121.303 8.17858C121.303 8.17858 121.422 8.14092 121.448 8.18258C121.47 8.21692 121.42 8.30792 121.377 8.37692C117.388 15.2373 110.978 19.9909 108.163 21.5042L108.212 21.6653V21.6656C111.58 20.7242 116.826 17.5133 120.547 13.6409C122.536 15.0869 123.911 16.7582 125.203 19.1289C125.255 19.2246 125.505 19.7029 125.505 19.7029C125.892 20.4492 126.33 21.2949 127.181 21.2949C127.455 21.2949 127.712 21.1806 127.904 20.9726C128.498 20.3269 128.553 19.1486 128.038 18.1066ZM109.879 15.7966C110.03 15.4679 110.11 15.1189 110.11 14.7876C110.11 13.7823 109.539 13.0139 109.007 12.6276C108.691 12.3979 106.122 10.7373 103.654 10.7213C103.99 10.3966 104.302 10.0903 104.582 9.81325C105.64 8.76792 106.475 7.94258 107.038 7.65358C107.222 7.55925 107.323 7.41458 107.323 7.24592C107.323 7.05492 107.178 6.87425 106.878 6.69358C105.882 6.11192 105.084 5.71592 104.363 5.44692C104.224 5.39525 104.122 5.37192 104.033 5.37192C103.92 5.37192 103.823 5.41092 103.727 5.49458C103.71 5.50958 103.684 5.53392 103.654 5.56458C103.514 5.70058 103.253 5.95358 102.997 6.04858C100.751 6.65325 98.3472 7.08292 96.7265 7.16958H96.5905C96.2129 7.16958 95.6872 7.07625 95.3235 6.62958C95.2782 6.57825 95.2229 6.54992 95.1689 6.54992C95.0865 6.54992 95.0229 6.60925 94.9962 6.72192C94.9562 6.89125 94.9169 7.07925 94.9279 7.18458C94.9472 7.61458 95.5765 8.88725 96.9105 9.20225L97.0532 9.14958C97.2502 9.07658 97.5469 8.96625 98.2145 8.75258C99.1669 8.44725 102.718 7.68258 102.875 7.65125C102.892 7.64825 103.042 7.59558 103.042 7.59558C103.042 7.59558 102.937 7.69992 102.875 7.78825C98.8292 13.4269 93.4175 17.1016 91.6355 18.2916L91.6042 18.3126L91.6272 18.4519L91.6875 18.4326C95.5872 17.1819 98.8062 14.9583 101.245 12.9023C101.278 13.5953 101.296 14.3672 101.296 15.1736C101.296 17.5936 101.157 19.7366 101.022 21.5179L101.012 21.8166C101.012 22.1602 101.063 22.6452 101.26 23.0019C101.535 23.5586 102.102 23.8126 102.513 23.8126C103.259 23.8126 103.582 22.6096 103.582 21.9953C103.569 20.4126 103.535 19.0136 103.501 17.6336C103.47 16.3986 103.433 14.8616 103.418 13.2019C103.418 12.7426 103.457 12.1846 103.566 11.9919C103.61 11.8973 103.61 11.8066 103.61 11.7679C103.61 11.4926 103.422 11.3119 103.191 11.1616C103.209 11.1449 103.225 11.1286 103.243 11.1119C105.459 11.8029 107.408 14.4869 107.849 15.4956C108.125 16.1289 108.465 16.4369 108.892 16.4369C109.27 16.4369 109.694 16.1626 109.879 15.7966ZM105.507 3.02692C105.507 2.75025 105.452 2.32292 105.191 1.86025C104.382 0.388917 102.245 0.12425 101.336 0.02625C100.948 -0.01575 100.438 0.00525 100.438 0.00525L100.37 0.119917L100.475 0.189917C101.059 0.57425 102.265 1.42258 103.318 3.65092C103.56 4.15125 103.944 4.43625 104.399 4.43625C104.621 4.43625 104.834 4.36692 105.013 4.23725C105.322 4.03458 105.507 3.58225 105.507 3.02692ZM93.4082 8.01225L93.2639 7.93858C91.3022 10.7242 87.0939 15.4606 79.6555 19.0929C79.2395 19.2959 78.8745 19.3829 78.5489 19.3829C78.0439 19.3829 77.6339 19.2283 77.2215 18.8822L76.8119 18.5256L76.5735 18.7056L79.2789 22.6873C79.3535 22.7849 79.4312 22.8859 79.5885 22.8859C79.6519 22.8859 79.7169 22.8666 79.7832 22.8283C80.0289 22.6852 80.8022 22.0936 81.1875 21.8019C83.3229 20.1269 84.5275 19.0726 85.7042 18.0699L85.8585 17.9382C90.4479 13.9742 92.8439 9.54392 93.4082 8.01225ZM91.6899 5.38758C91.3789 3.69525 89.3689 3.55192 88.5729 3.55192C88.0252 3.55192 87.5699 3.64725 87.4479 3.67692L87.3949 3.88125C88.5039 4.08958 89.2449 4.65092 89.6569 5.56392C89.8852 6.06825 90.2259 6.57458 90.7979 6.58358C91.3162 6.59192 91.8229 6.11258 91.6899 5.38758ZM88.3569 5.69692C87.9319 5.43992 86.9262 5.04158 85.7962 4.88725L85.7335 5.07925C86.1355 5.31425 87.1302 6.06625 87.4375 7.32825C87.4805 7.50425 87.5392 7.73325 87.6042 7.90625C87.7395 8.26592 88.0659 8.77258 88.6425 8.82258C88.9972 8.85358 89.2839 8.72592 89.4592 8.52658C89.7122 8.23725 89.7619 7.81858 89.7235 7.52358C89.6219 6.75292 89.1655 6.15792 88.3569 5.69692ZM82.3919 9.58592C82.5375 9.37992 82.6232 9.09825 82.6465 8.74758C82.6879 8.10258 82.4479 7.50258 81.9809 7.11225C81.1075 6.38358 79.2532 6.05758 77.4689 6.52592L77.4532 6.66658C78.9742 7.44258 79.6069 8.31725 80.2105 9.10892C80.3465 9.28692 80.4832 9.46592 80.6305 9.64825C80.8425 9.90792 81.1525 10.0633 81.4585 10.0633C81.8745 10.0633 82.1712 9.91125 82.3919 9.58592ZM75.8675 11.5386L75.8492 11.6643C77.1929 12.3909 77.9169 13.4506 78.4605 14.2166C78.5569 14.3519 78.6475 14.4799 78.7345 14.5936C78.9512 14.8989 79.2465 15.0709 79.5912 15.0709C80.2342 15.0709 80.7379 14.4093 80.7379 13.5646C80.7379 13.1996 80.6349 12.8486 80.4499 12.5793C79.7242 11.3959 77.5522 11.0782 75.8675 11.5386ZM75.7942 5.38758C75.4832 3.69525 73.4735 3.55192 72.6772 3.55192C72.1289 3.55192 71.6739 3.64725 71.5522 3.67692L71.4995 3.88125C72.6085 4.08958 73.3492 4.65092 73.7615 5.56392C73.9889 6.06825 74.3302 6.57458 74.9025 6.58358C75.4199 6.59192 75.9272 6.11258 75.7942 5.38758ZM72.4609 5.69692C72.0359 5.43992 71.0305 5.04158 69.9009 4.88725L69.8372 5.07925C70.2395 5.31425 71.2352 6.06625 71.5419 7.32825C71.5849 7.50425 71.6432 7.73325 71.7085 7.90625C71.8439 8.26592 72.1699 8.77258 72.7472 8.82258C73.1009 8.85358 73.3882 8.72592 73.5629 8.52658C73.8169 8.23725 73.8659 7.81858 73.8272 7.52358C73.7259 6.75292 73.2695 6.15792 72.4609 5.69692ZM71.2272 10.3913C71.2029 10.2789 70.9555 9.25725 69.7769 8.04425C69.4539 7.71192 68.8265 7.22958 68.5782 7.22958C68.5075 7.22958 68.4492 7.26392 68.4222 7.32225C68.3802 7.41592 68.4055 7.50058 68.4335 7.59358C68.4622 7.69058 68.5022 7.82392 68.4989 8.05458C68.4889 8.81692 67.9549 9.61825 67.4889 10.2419C66.5325 11.5236 64.2789 13.0459 61.9859 14.2139C62.0972 12.0372 62.3782 7.96492 62.3782 7.96492C62.4025 7.57458 62.4239 7.20625 62.5075 7.08458C62.6389 6.89425 62.6662 6.74658 62.6662 6.65592C62.6662 6.52492 62.6232 6.38292 62.5449 6.25592C62.0269 5.38925 61.1519 4.91225 60.0822 4.91225C59.6389 4.91225 59.2209 5.04225 58.8032 5.31125C58.6735 5.40392 58.6082 5.48958 58.6082 5.56625C58.6082 5.70392 58.7249 5.76458 58.8122 5.80858C59.5955 6.03025 59.8745 6.65425 59.8745 7.16425C59.8679 7.90692 59.8419 12.2109 59.8155 15.2056C59.3212 15.4043 58.8422 15.5782 58.3992 15.7139V15.9049C58.8759 15.8236 59.3472 15.7356 59.8115 15.6426C59.8005 16.8439 59.7895 17.7712 59.7802 18.0579C59.7602 18.6696 59.7602 19.3752 59.9085 19.9653C60.3872 21.8652 61.9055 22.7856 64.8349 22.9493C65.5085 22.9783 66.5699 23.0123 67.3425 23.0123C68.4969 23.0123 69.6682 22.9502 70.9239 22.8219C71.2795 22.7812 72.1539 22.6322 72.5895 22.1176C72.8472 21.7803 72.9989 21.2069 72.5795 20.7043C72.2009 20.2499 71.2502 19.8206 70.6225 19.8206C70.4749 19.8206 70.1885 19.8802 70.0965 19.9212C68.6055 20.4083 66.8772 20.6989 65.4735 20.6989C64.8015 20.6989 63.8192 20.6426 63.2612 20.4842C62.3365 20.2316 61.9399 19.7569 61.8902 18.8456C61.8399 17.9163 61.8399 17.8733 61.9442 15.1689C64.5025 14.5423 66.7159 13.7913 68.1755 13.1399C68.6192 12.9419 69.8022 12.3492 70.7545 11.6899C71.2335 11.3586 71.3502 10.9569 71.2272 10.3913ZM57.2135 11.6959V11.5289L57.1035 11.5169C55.1492 11.3296 53.4415 10.9349 52.2825 10.4029C53.6329 8.88725 54.4069 7.59525 54.8739 6.81125C55.5165 6.68058 56.1362 6.52292 56.1362 6.18058C56.1362 5.94392 54.0575 3.84925 53.8125 3.77592C53.6289 3.72125 53.5175 3.77258 53.3365 3.99492L52.6339 4.81125H45.4715V5.20225H47.4762C47.8179 8.17092 48.6702 9.93658 49.2569 10.7869C48.6689 11.5376 47.8595 12.5996 46.9775 13.3979C46.9752 13.3642 46.9725 13.3333 46.9695 13.3059C46.7359 12.2109 45.6852 11.2506 43.9715 10.4309L43.9759 10.4253C45.2059 9.28825 46.4075 7.73725 46.7495 6.98658L46.7742 6.93258L44.0242 5.90125L43.9825 6.01292C43.0882 8.49192 41.9609 10.7872 40.6979 12.5386H38.0585L38.8712 15.5373L41.3635 14.6243V16.4433C40.8222 16.3032 39.6582 16.0546 39.1235 15.9336L38.9812 15.9016L38.9752 16.0476C38.9335 17.8913 38.7045 20.6206 38.1459 22.6553L38.1215 22.7509H38.2895C38.9889 21.8636 40.4375 20.0666 41.3635 17.2779V23.1299C41.3635 23.2436 41.3635 23.5896 41.6999 23.5896C41.6999 23.5896 43.4039 23.4686 43.5932 23.4549C43.8479 23.4339 43.9615 23.2892 43.9615 22.9859V16.2296C44.2805 16.9546 44.4622 17.8983 44.5029 19.3253L44.5169 19.4909C44.5592 20.1016 44.7939 20.4023 45.2995 20.4956C45.3479 20.5042 45.3985 20.5089 45.4515 20.5089C45.7689 20.5089 46.1135 20.3549 46.3725 20.0969C46.5925 19.8776 46.8555 19.4806 46.8555 18.8363C46.8555 18.3159 46.6852 17.8333 46.3442 17.3599H49.1069V22.3596H44.3182V22.7509H49.1635H51.7682H52.7149H53.6772H56.6532C56.7709 22.7509 56.8789 22.6792 56.9219 22.5726C56.9622 22.4726 56.9382 22.3659 56.8572 22.2876C56.5419 21.9826 54.6745 20.4259 54.5922 20.3619C54.5592 20.3363 54.5252 20.3232 54.4902 20.3232C54.3925 20.3232 54.3262 20.4193 54.2622 20.5116L52.9852 22.3596H51.8249V17.3599H52.3685H52.8855H56.1095C56.2292 17.3599 56.3282 17.3019 56.3679 17.2089C56.4032 17.1273 56.3849 17.0376 56.3199 16.9692C56.1122 16.7509 54.4579 15.3069 54.2072 15.1096C54.1555 15.0689 54.1029 15.0483 54.0509 15.0483C53.9605 15.0483 53.8772 15.1086 53.7969 15.2319L52.6169 16.9899H51.8249V13.8186L49.1069 13.5029V16.9899H46.0395L45.9855 16.9269C45.5445 16.4699 44.8942 16.0282 44.0282 15.5276L43.9615 15.4889V13.5239C44.1519 13.4429 44.3159 13.3636 44.5385 13.2586C44.5559 13.4053 44.5562 13.5996 44.5802 13.8976C44.6355 14.5856 44.7045 15.3379 45.3752 15.4116C46.1355 15.4949 46.7365 14.9776 46.9359 14.2666C46.9395 14.2506 46.9422 14.2326 46.9455 14.2159C48.8112 13.3719 50.0325 12.4803 50.4422 12.1469C52.4472 13.9439 55.2109 14.7176 55.5159 14.7176C55.9622 14.7176 55.9982 14.1099 56.0419 13.7916C56.1199 13.2242 56.3802 12.3386 57.2135 11.6959ZM44.4885 12.5386H41.4395C41.6349 12.3876 43.0582 11.2822 43.6825 10.7069C43.7039 10.6866 43.7345 10.6596 43.7632 10.6342C44.0079 10.9799 44.3929 11.7959 44.4885 12.5386ZM50.3719 9.25225C49.2565 8.32192 48.2742 6.78525 47.8339 5.20225H52.5025L52.4792 5.27858C52.2985 5.76625 51.7222 7.27292 50.3719 9.25225ZM44.6322 4.02225L41.5472 3.06592C41.4605 3.89725 41.0259 5.83392 40.7245 6.63592C40.7052 6.62325 40.6852 6.60992 40.6695 6.59958C39.9779 6.18592 39.4419 5.98892 38.7659 5.72925L38.6699 5.69158L38.5889 5.81258C39.1095 6.51592 39.5885 7.73425 39.9049 9.76858C39.9955 10.3519 40.2509 10.4989 40.6669 10.4993C41.6825 10.4999 42.2645 9.61925 42.2645 8.76825C42.2645 8.17458 41.9625 7.63958 41.3519 7.08125C41.3502 7.07992 41.3442 7.07558 41.3412 7.07325C42.8592 6.01125 44.1075 4.87458 44.6322 4.02225ZM36.1882 5.67392C36.1882 5.30392 34.0419 3.48925 33.7825 3.48925C33.6402 3.48925 33.5432 3.59592 33.3789 3.83558L32.7052 4.83358H32.6355V4.83558H24.6095L21.4105 4.07092L21.4102 22.9246C21.4099 23.1276 21.4095 23.3029 21.5069 23.4002C21.5605 23.4539 21.6395 23.4799 21.7475 23.4799C21.7475 23.4799 23.9585 23.3279 23.9615 23.3279C24.2192 23.2956 24.3509 23.1279 24.3509 22.8296V21.5139H32.6355V22.4216C32.6355 22.6973 32.7212 22.7419 33.0175 22.7526H35.2159C35.4715 22.7526 35.5755 22.6973 35.5755 22.4216L35.5752 6.17925C35.7252 6.14125 36.1882 5.99758 36.1882 5.67392ZM24.3509 13.1889H32.6355V5.22658H24.3509V13.1889ZM24.3509 21.1219H32.6355V13.5793H24.3509V21.1219Z" fill="#231916"/>
<mask id="mask0" mask-type="alpha" maskUnits="userSpaceOnUse" x="0" y="0" width="129" height="24">
<path fill-rule="evenodd" clip-rule="evenodd" d="M0 23.8127H128.39V0H0V23.8127Z" fill="white"/>
</mask>
<g mask="url(#mask0)">
<path fill-rule="evenodd" clip-rule="evenodd" d="M0 22.9447H18.6943V4.25H0V22.9447Z" fill="#E50121"/>
<path fill-rule="evenodd" clip-rule="evenodd" d="M6.87803 8.61622C7.07203 8.61622 7.23536 8.52222 7.23536 8.27389C7.23536 7.99222 7.0477 7.95656 6.8447 7.95656V8.61622H6.87803ZM6.8447 9.09722C6.8447 9.28289 6.83603 9.48089 7.05003 9.48089C7.2197 9.48089 7.3367 9.34856 7.3367 9.15356C7.3367 8.86456 7.10303 8.68956 6.8447 8.71222V9.09722ZM6.2627 9.57989V9.50889C6.52503 9.45756 6.5537 9.47589 6.5537 9.01622V8.34222C6.54503 7.99956 6.54936 7.95656 6.2627 7.92656V7.85522H6.9287C7.18003 7.85522 7.56636 7.85522 7.56636 8.23789C7.56636 8.46622 7.36536 8.56789 7.20203 8.61289V8.61856C7.4247 8.67189 7.6677 8.81856 7.6677 9.12089C7.6677 9.54122 7.26836 9.57989 6.9927 9.57989H6.2627Z" fill="#FEFEFE"/>
<path fill-rule="evenodd" clip-rule="evenodd" d="M8.81876 7.85522H9.50676V7.92622C9.29542 7.98922 9.29542 8.02789 9.27776 8.45089L9.26209 8.83189C9.25576 9.03156 9.25109 9.26022 9.12342 9.41222C8.99276 9.56956 8.79209 9.62289 8.60909 9.62289C8.43709 9.62289 8.22976 9.57189 8.10009 9.43789C7.94509 9.27789 7.96709 9.03156 7.96709 8.81922V8.41789C7.96709 7.95922 7.93842 7.97656 7.67676 7.92622V7.85522H8.54942V7.92622C8.24509 7.95689 8.25842 8.07322 8.25842 8.41789V8.77322C8.25842 8.91989 8.25176 9.12056 8.32276 9.24756C8.41076 9.40222 8.58942 9.46256 8.74376 9.46256C9.10776 9.46256 9.16309 9.15856 9.15409 8.84422L9.13842 8.23056C9.13176 7.95922 9.02642 7.97422 8.81876 7.92622V7.85522Z" fill="#FEFEFE"/>
<path fill-rule="evenodd" clip-rule="evenodd" d="M10.5009 8.36759H10.4345C10.3929 8.15959 10.3399 7.92892 10.1125 7.92892C9.97819 7.92892 9.88719 8.04259 9.88719 8.19292C9.88719 8.60359 10.6132 8.57559 10.6132 9.10559C10.6132 9.47059 10.3089 9.62292 10.0265 9.62292C9.86953 9.62292 9.71519 9.57459 9.57853 9.49326L9.50586 8.99126L9.57419 8.97559C9.64719 9.22426 9.80819 9.50626 10.0682 9.50626C10.2139 9.50626 10.3222 9.39726 10.3222 9.23226C10.3222 8.80392 9.59619 8.83926 9.59619 8.33692C9.59619 7.99992 9.87653 7.81226 10.1455 7.81226C10.2779 7.81226 10.4082 7.84992 10.5205 7.92626L10.5009 8.36759Z" fill="#FEFEFE"/>
<path fill-rule="evenodd" clip-rule="evenodd" d="M11.2972 9.0168C11.2972 9.47614 11.3258 9.4578 11.5882 9.50914V9.57914H10.7148V9.50914C10.9775 9.4578 11.0062 9.47614 11.0062 9.0168V8.41814C11.0062 7.95914 10.9775 7.97714 10.7148 7.92614V7.85547H11.5882V7.92614C11.3258 7.97714 11.2972 7.95914 11.2972 8.41814V9.0168Z" fill="#FEFEFE"/>
<path fill-rule="evenodd" clip-rule="evenodd" d="M12.0477 8.42589C12.0477 8.16522 12.0411 7.98222 11.7607 7.92622V7.85522H12.2684C12.5464 8.27122 12.9297 8.69189 13.2477 9.11822L13.2521 9.11322L13.2384 8.30689C13.2341 8.00456 13.1681 7.96689 12.9081 7.92622V7.85522H13.5784V7.92622C13.3844 7.94656 13.3734 8.05322 13.3734 8.46622V9.59489L13.2744 9.65056C13.0574 9.34689 12.5327 8.73822 12.1687 8.28622C12.1624 8.57089 12.1734 8.83622 12.1824 9.11322C12.1911 9.42489 12.2394 9.44589 12.5001 9.50889V9.57956H11.7761V9.50889C11.9374 9.47322 12.0477 9.48322 12.0477 9.14122V8.42589Z" fill="#FEFEFE"/>
<path fill-rule="evenodd" clip-rule="evenodd" d="M14.3174 8.76065V9.09531C14.3174 9.35365 14.32 9.47331 14.613 9.47331C14.8997 9.47331 15.023 9.28831 15.085 8.99631H15.1514C15.156 9.19465 15.1247 9.38998 15.072 9.57965H13.7354V9.50898C13.9977 9.45831 14.0264 9.47598 14.0264 9.01698V8.41831C14.0264 7.95931 13.9977 7.97665 13.7354 7.92631V7.85498H15.0414L14.999 8.29865H14.9307C14.915 7.96665 14.719 7.96198 14.4784 7.96198H14.3174V8.60865H14.505C14.695 8.60865 14.794 8.59031 14.8494 8.36031H14.9064C14.8954 8.57531 14.8867 8.78831 14.8974 9.00398H14.8357C14.792 8.75531 14.688 8.76065 14.496 8.76065H14.3174Z" fill="#FEFEFE"/>
<path fill-rule="evenodd" clip-rule="evenodd" d="M16.316 8.36759H16.25C16.208 8.15959 16.155 7.92892 15.9273 7.92892C15.7933 7.92892 15.7026 8.04259 15.7026 8.19292C15.7026 8.60359 16.4286 8.57559 16.4286 9.10559C16.4286 9.47059 16.124 9.62292 15.842 9.62292C15.685 9.62292 15.5306 9.57459 15.3936 9.49326L15.3213 8.99126L15.3896 8.97559C15.4626 9.22426 15.6233 9.50626 15.8836 9.50626C16.0293 9.50626 16.1373 9.39726 16.1373 9.23226C16.1373 8.80392 15.4116 8.83926 15.4116 8.33692C15.4116 7.99992 15.6916 7.81226 15.961 7.81226C16.0933 7.81226 16.2233 7.84992 16.3356 7.92626L16.316 8.36759Z" fill="#FEFEFE"/>
<path fill-rule="evenodd" clip-rule="evenodd" d="M17.5464 8.36759H17.4801C17.4384 8.15959 17.3858 7.92892 17.1581 7.92892C17.0238 7.92892 16.9334 8.04259 16.9334 8.19292C16.9334 8.60359 17.6588 8.57559 17.6588 9.10559C17.6588 9.47059 17.3544 9.62292 17.0721 9.62292C16.9154 9.62292 16.7614 9.57459 16.6244 9.49326L16.5518 8.99126L16.6201 8.97559C16.6928 9.22426 16.8538 9.50626 17.1141 9.50626C17.2594 9.50626 17.3681 9.39726 17.3681 9.23226C17.3681 8.80392 16.6421 8.83926 16.6421 8.33692C16.6421 7.99992 16.9221 7.81226 17.1911 7.81226C17.3234 7.81226 17.4541 7.84992 17.5661 7.92626L17.5464 8.36759Z" fill="#FEFEFE"/>
<path fill-rule="evenodd" clip-rule="evenodd" d="M9.00508 6.13976C9.00508 5.87843 8.99875 5.69609 8.71875 5.63976V5.56909H9.22575C9.50375 5.98509 9.88742 6.40576 10.2051 6.83176L10.2094 6.82709L10.1964 6.02076C10.1917 5.71843 10.1254 5.68076 9.86575 5.63976V5.56909H10.5358V5.63976C10.3421 5.66043 10.3307 5.76676 10.3307 6.18009V7.30876L10.2318 7.36443C10.0151 7.06043 9.49008 6.45209 9.12608 6.00009C9.12008 6.28476 9.13075 6.55009 9.13975 6.82709C9.14875 7.13876 9.19708 7.15943 9.45742 7.22243V7.29309H8.73375V7.22243C8.89508 7.18709 9.00508 7.19709 9.00508 6.85509V6.13976Z" fill="#FEFEFE"/>
<path fill-rule="evenodd" clip-rule="evenodd" d="M11.2991 6.73067C11.2991 7.19 11.3281 7.17167 11.5901 7.22234V7.293H10.7168V7.22234C10.9791 7.17167 11.0081 7.19 11.0081 6.73067V6.132C11.0081 5.67334 10.9791 5.691 10.7168 5.63967V5.56934H11.5901V5.63967C11.3281 5.691 11.2991 5.67334 11.2991 6.132V6.73067Z" fill="#FEFEFE"/>
<path fill-rule="evenodd" clip-rule="evenodd" d="M15.7884 6.47451V6.80918C15.7884 7.06751 15.7904 7.18751 16.0837 7.18751C16.3704 7.18751 16.4941 7.00218 16.5554 6.71018H16.6221C16.6264 6.90785 16.5954 7.10351 16.5424 7.29318H15.2061V7.22251C15.4684 7.17185 15.4971 7.18985 15.4971 6.73085V6.13218C15.4971 5.67351 15.4684 5.69051 15.2061 5.63985V5.56885H16.5117L16.4697 6.01251H16.4014C16.3861 5.68085 16.1897 5.67585 15.9494 5.67585H15.7884V6.32218H15.9761C16.1654 6.32218 16.2647 6.30451 16.3197 6.07351H16.3771C16.3661 6.28885 16.3574 6.50251 16.3684 6.71785H16.3064C16.2624 6.46885 16.1587 6.47451 15.9671 6.47451H15.7884Z" fill="#FEFEFE"/>
<path fill-rule="evenodd" clip-rule="evenodd" d="M17.2939 6.73067C17.2939 7.19 17.3226 7.17167 17.5849 7.22234V7.293H16.7119V7.22234C16.9742 7.17167 17.0029 7.19 17.0029 6.73067V6.132C17.0029 5.67334 16.9742 5.691 16.7119 5.63967V5.56934H17.5849V5.63967C17.3226 5.691 17.2939 5.67334 17.2939 6.132V6.73067Z" fill="#FEFEFE"/>
<path fill-rule="evenodd" clip-rule="evenodd" d="M12.3437 6.73058V6.13191C12.3437 5.67325 12.3727 5.69058 12.6351 5.64025V5.56958H11.7617V5.64025C12.0241 5.69058 12.0527 5.67325 12.0527 6.13191V6.73058C12.0527 7.18925 12.0241 7.17158 11.7617 7.22291V7.29325H12.6351V7.22291C12.3727 7.17158 12.3437 7.18925 12.3437 6.73058Z" fill="#FEFEFE"/>
<path fill-rule="evenodd" clip-rule="evenodd" d="M13.5228 7.22867C13.4248 7.21134 13.3121 7.16034 13.2278 7.05167L12.6278 6.27167L12.8088 6.056C13.0011 5.82734 13.0745 5.69367 13.3065 5.64V5.56934H12.7268V5.64C12.9591 5.686 12.8308 5.84534 12.6658 6.05867L12.3701 6.439L12.8631 7.10367C13.0791 7.36 13.3571 7.32534 13.5228 7.29V7.22867Z" fill="#FEFEFE"/>
<path fill-rule="evenodd" clip-rule="evenodd" d="M14.0644 6.73571V6.13704C14.0644 5.67837 14.0934 5.69571 14.3558 5.64537V5.57471H13.4824V5.64537C13.7448 5.69571 13.7734 5.67837 13.7734 6.13704V6.73571C13.7734 7.19437 13.7448 7.17671 13.4824 7.22804V7.29837H14.3558V7.22804C14.0934 7.17671 14.0644 7.19437 14.0644 6.73571Z" fill="#FEFEFE"/>
<path fill-rule="evenodd" clip-rule="evenodd" d="M15.2435 7.2338C15.1455 7.21646 15.0328 7.16546 14.9485 7.0568L14.3485 6.2768L14.5295 6.06113C14.7218 5.83246 14.7952 5.6988 15.0272 5.64513V5.57446H14.4475V5.64513C14.6798 5.69113 14.5515 5.85046 14.3865 6.0638L14.0908 6.44413L14.5838 7.1088C14.7998 7.36513 15.0778 7.33046 15.2435 7.29513V7.2338Z" fill="#FEFEFE"/>
</g>
</svg>
