<svg width="129" height="24" viewBox="0 0 129 24" fill="none" xmlns="http://www.w3.org/2000/svg">
<path fill-rule="evenodd" clip-rule="evenodd" d="M128.037 18.1066C127.118 16.2896 124.861 14.7353 121.021 13.1353C121.892 12.2026 122.788 11.1756 123.618 10.2186L124.256 9.48258C124.42 9.26325 124.735 9.11958 124.988 9.00358C125.1 8.95258 125.206 8.90358 125.294 8.84992C125.441 8.75692 125.531 8.63092 125.556 8.48558C125.583 8.32192 125.527 8.13825 125.402 7.98058C124.782 7.27425 124.099 6.64358 123.315 6.05358C123.152 5.92025 122.962 5.90025 122.864 5.90025C122.716 5.90025 122.578 5.94225 122.473 6.01958C121.889 6.47192 121.731 6.51425 121.445 6.59125C121.445 6.59125 115.719 8.05758 113.167 8.15858H112.935C112.399 8.15858 112.075 8.04525 111.817 7.76992C111.795 7.74392 111.777 7.72025 111.761 7.70025C111.717 7.64325 111.679 7.59392 111.613 7.59392C111.453 7.59392 111.404 7.76192 111.378 7.84658C111.347 7.98458 111.347 8.11892 111.347 8.24892C111.347 9.93025 113.485 10.4766 113.729 10.5332C113.729 10.5332 114.024 10.4326 114.524 10.1812C115.447 9.71758 116.504 9.26258 117.198 9.08758C118.43 8.74625 119.312 8.57425 120.246 8.39192L120.282 8.38492C120.614 8.31992 120.95 8.25392 121.302 8.17858C121.302 8.17858 121.422 8.14092 121.448 8.18258C121.469 8.21692 121.419 8.30792 121.377 8.37692C117.388 15.2373 110.978 19.9909 108.162 21.5042L108.212 21.6653V21.6656C111.58 20.7242 116.825 17.5133 120.547 13.6409C122.536 15.0869 123.911 16.7582 125.203 19.1289C125.254 19.2246 125.504 19.7029 125.504 19.7029C125.891 20.4492 126.33 21.2949 127.181 21.2949C127.455 21.2949 127.711 21.1806 127.904 20.9726C128.498 20.3269 128.553 19.1486 128.037 18.1066ZM109.879 15.7966C110.03 15.4679 110.109 15.1189 110.109 14.7876C110.109 13.7823 109.539 13.0139 109.007 12.6276C108.69 12.3979 106.122 10.7373 103.654 10.7213C103.989 10.3966 104.301 10.0903 104.582 9.81325C105.64 8.76792 106.475 7.94258 107.037 7.65358C107.222 7.55925 107.323 7.41458 107.323 7.24592C107.323 7.05492 107.178 6.87425 106.878 6.69358C105.882 6.11192 105.083 5.71592 104.363 5.44692C104.224 5.39525 104.122 5.37192 104.032 5.37192C103.92 5.37192 103.823 5.41092 103.727 5.49458C103.71 5.50958 103.684 5.53392 103.654 5.56458C103.514 5.70058 103.253 5.95358 102.997 6.04858C100.751 6.65325 98.347 7.08292 96.7263 7.16958H96.5903C96.2126 7.16958 95.687 7.07625 95.3233 6.62958C95.278 6.57825 95.2226 6.54992 95.1686 6.54992C95.0863 6.54992 95.0226 6.60925 94.9959 6.72192C94.9559 6.89125 94.9166 7.07925 94.9276 7.18458C94.947 7.61458 95.5763 8.88725 96.9103 9.20225L97.0529 9.14958C97.2499 9.07658 97.5466 8.96625 98.2143 8.75258C99.1666 8.44725 102.718 7.68258 102.875 7.65125C102.891 7.64825 103.042 7.59558 103.042 7.59558C103.042 7.59558 102.937 7.69992 102.874 7.78825C98.8289 13.4269 93.4173 17.1016 91.6353 18.2916L91.604 18.3126L91.627 18.4519L91.6873 18.4326C95.587 17.1819 98.806 14.9583 101.244 12.9023C101.278 13.5953 101.296 14.3672 101.296 15.1736C101.296 17.5936 101.157 19.7366 101.021 21.5179L101.012 21.8166C101.012 22.1602 101.063 22.6452 101.26 23.0019C101.535 23.5586 102.101 23.8126 102.512 23.8126C103.258 23.8126 103.581 22.6096 103.581 21.9953C103.568 20.4126 103.534 19.0136 103.501 17.6336C103.47 16.3986 103.432 14.8616 103.418 13.2019C103.418 12.7426 103.456 12.1846 103.566 11.9919C103.609 11.8973 103.609 11.8066 103.609 11.7679C103.609 11.4926 103.422 11.3119 103.191 11.1616C103.208 11.1449 103.225 11.1286 103.243 11.1119C105.458 11.8029 107.408 14.4869 107.848 15.4956C108.124 16.1289 108.465 16.4369 108.891 16.4369C109.269 16.4369 109.694 16.1626 109.879 15.7966ZM105.506 3.02692C105.506 2.75025 105.452 2.32292 105.191 1.86025C104.382 0.388917 102.245 0.12425 101.335 0.02625C100.948 -0.01575 100.437 0.00525 100.437 0.00525L100.37 0.119917L100.475 0.189917C101.058 0.57425 102.264 1.42258 103.318 3.65092C103.56 4.15125 103.944 4.43625 104.399 4.43625C104.621 4.43625 104.834 4.36692 105.013 4.23725C105.322 4.03458 105.506 3.58225 105.506 3.02692ZM93.408 8.01225L93.2636 7.93858C91.3019 10.7242 87.0936 15.4606 79.6553 19.0929C79.2393 19.2959 78.8743 19.3829 78.5486 19.3829C78.0436 19.3829 77.6336 19.2283 77.2213 18.8822L76.8116 18.5256L76.5733 18.7056L79.2786 22.6873C79.3533 22.7849 79.431 22.8859 79.5883 22.8859C79.6516 22.8859 79.7166 22.8666 79.783 22.8283C80.0286 22.6852 80.802 22.0936 81.1873 21.8019C83.3226 20.1269 84.5273 19.0726 85.7039 18.0699L85.8583 17.9382C90.4476 13.9742 92.8436 9.54392 93.408 8.01225ZM91.6896 5.38758C91.3786 3.69525 89.3686 3.55192 88.5726 3.55192C88.0249 3.55192 87.5696 3.64725 87.4476 3.67692L87.3946 3.88125C88.5036 4.08958 89.2446 4.65092 89.6566 5.56392C89.8849 6.06825 90.2256 6.57458 90.7976 6.58358C91.3159 6.59192 91.8226 6.11258 91.6896 5.38758ZM88.3566 5.69692C87.9316 5.43992 86.9259 5.04158 85.796 4.88725L85.7333 5.07925C86.1353 5.31425 87.13 6.06625 87.4373 7.32825C87.4803 7.50425 87.5389 7.73325 87.604 7.90625C87.7393 8.26592 88.0656 8.77258 88.6423 8.82258C88.9969 8.85358 89.2836 8.72592 89.459 8.52658C89.712 8.23725 89.7616 7.81858 89.7233 7.52358C89.6216 6.75292 89.1653 6.15792 88.3566 5.69692ZM82.3916 9.58592C82.5373 9.37992 82.6229 9.09825 82.6463 8.74758C82.6876 8.10258 82.4476 7.50258 81.9806 7.11225C81.1073 6.38358 79.2529 6.05758 77.4686 6.52592L77.4529 6.66658C78.9739 7.44258 79.6066 8.31725 80.2103 9.10892C80.3463 9.28692 80.4829 9.46592 80.6303 9.64825C80.8423 9.90792 81.1523 10.0632 81.4583 10.0632C81.8743 10.0632 82.1709 9.91125 82.3916 9.58592ZM75.8673 11.5386L75.8489 11.6643C77.1926 12.3909 77.9166 13.4506 78.4603 14.2166C78.5566 14.3519 78.6473 14.4799 78.7343 14.5936C78.951 14.8989 79.2463 15.0709 79.591 15.0709C80.2339 15.0709 80.7376 14.4093 80.7376 13.5646C80.7376 13.1996 80.6346 12.8486 80.4496 12.5793C79.7239 11.3959 77.5519 11.0782 75.8673 11.5386ZM75.7939 5.38758C75.4829 3.69525 73.4733 3.55192 72.6769 3.55192C72.1286 3.55192 71.6736 3.64725 71.5519 3.67692L71.4993 3.88125C72.6083 4.08958 73.3489 4.65092 73.7613 5.56392C73.9886 6.06825 74.3299 6.57458 74.9023 6.58358C75.4196 6.59192 75.9269 6.11258 75.7939 5.38758ZM72.4606 5.69692C72.0356 5.43992 71.0303 5.04158 69.9006 4.88725L69.837 5.07925C70.2393 5.31425 71.235 6.06625 71.5416 7.32825C71.5846 7.50425 71.643 7.73325 71.7083 7.90625C71.8436 8.26592 72.1696 8.77258 72.747 8.82258C73.1006 8.85358 73.388 8.72592 73.5626 8.52658C73.8166 8.23725 73.8656 7.81858 73.827 7.52358C73.7256 6.75292 73.2693 6.15792 72.4606 5.69692ZM71.227 10.3913C71.2026 10.2789 70.9553 9.25725 69.7766 8.04425C69.4536 7.71192 68.8263 7.22958 68.578 7.22958C68.5073 7.22958 68.449 7.26392 68.422 7.32225C68.38 7.41592 68.4053 7.50058 68.4333 7.59358C68.462 7.69058 68.502 7.82392 68.4986 8.05458C68.4886 8.81692 67.9546 9.61825 67.4886 10.2419C66.5323 11.5236 64.2786 13.0459 61.9856 14.2139C62.097 12.0372 62.378 7.96492 62.378 7.96492C62.4023 7.57458 62.4236 7.20625 62.5073 7.08458C62.6386 6.89425 62.666 6.74658 62.666 6.65592C62.666 6.52492 62.623 6.38292 62.5446 6.25592C62.0266 5.38925 61.1516 4.91225 60.082 4.91225C59.6386 4.91225 59.2206 5.04225 58.803 5.31125C58.6733 5.40392 58.608 5.48958 58.608 5.56625C58.608 5.70392 58.7246 5.76458 58.812 5.80858C59.5953 6.03025 59.8743 6.65425 59.8743 7.16425C59.8676 7.90692 59.8416 12.2109 59.8153 15.2056C59.321 15.4043 58.842 15.5782 58.399 15.7139V15.9049C58.8756 15.8236 59.347 15.7356 59.8113 15.6426C59.8003 16.8439 59.7893 17.7712 59.78 18.0579C59.76 18.6696 59.76 19.3752 59.9083 19.9653C60.387 21.8652 61.9053 22.7856 64.8346 22.9493C65.5083 22.9783 66.5696 23.0123 67.3423 23.0123C68.4966 23.0123 69.668 22.9502 70.9236 22.8219C71.2793 22.7812 72.1536 22.6322 72.5893 22.1176C72.847 21.7803 72.9986 21.2069 72.5793 20.7043C72.2006 20.2499 71.25 19.8206 70.6223 19.8206C70.4746 19.8206 70.1883 19.8802 70.0963 19.9212C68.6053 20.4082 66.877 20.6989 65.4733 20.6989C64.8013 20.6989 63.819 20.6426 63.261 20.4842C62.3363 20.2316 61.9396 19.7569 61.89 18.8456C61.8396 17.9163 61.8396 17.8733 61.944 15.1689C64.5023 14.5423 66.7156 13.7913 68.1753 13.1399C68.619 12.9419 69.802 12.3492 70.7543 11.6899C71.2333 11.3586 71.35 10.9569 71.227 10.3913ZM57.2133 11.6959V11.5289L57.1033 11.5169C55.149 11.3296 53.4413 10.9349 52.2823 10.4029C53.6326 8.88725 54.4066 7.59525 54.8736 6.81125C55.5163 6.68058 56.136 6.52292 56.136 6.18058C56.136 5.94392 54.0573 3.84925 53.8123 3.77592C53.6286 3.72125 53.5173 3.77258 53.3363 3.99492L52.6336 4.81125H45.4713V5.20225H47.476C47.8176 8.17092 48.67 9.93658 49.2566 10.7869C48.6686 11.5376 47.8593 12.5996 46.9773 13.3979C46.975 13.3642 46.9723 13.3333 46.9693 13.3059C46.7356 12.2109 45.685 11.2506 43.9713 10.4309L43.9756 10.4253C45.2056 9.28825 46.4073 7.73725 46.7493 6.98658L46.774 6.93258L44.024 5.90125L43.9823 6.01292C43.088 8.49192 41.9606 10.7872 40.6976 12.5386H38.0583L38.871 15.5373L41.3633 14.6243V16.4433C40.822 16.3032 39.658 16.0546 39.1233 15.9336L38.981 15.9016L38.975 16.0476C38.9333 17.8913 38.7043 20.6206 38.1456 22.6553L38.1213 22.7509H38.2893C38.9886 21.8636 40.4373 20.0666 41.3633 17.2779V23.1299C41.3633 23.2436 41.3633 23.5896 41.6996 23.5896C41.6996 23.5896 43.4036 23.4686 43.593 23.4549C43.8476 23.4339 43.9613 23.2892 43.9613 22.9859V16.2296C44.2803 16.9546 44.462 17.8983 44.5026 19.3253L44.5166 19.4909C44.559 20.1016 44.7936 20.4023 45.2993 20.4956C45.3476 20.5042 45.3983 20.5089 45.4513 20.5089C45.7686 20.5089 46.1133 20.3549 46.3723 20.0969C46.5923 19.8776 46.8553 19.4806 46.8553 18.8363C46.8553 18.3159 46.685 17.8333 46.344 17.3599H49.1066V22.3596H44.318V22.7509H49.1633H51.768H52.7146H53.677H56.653C56.7706 22.7509 56.8786 22.6792 56.9216 22.5726C56.962 22.4726 56.938 22.3659 56.8569 22.2876C56.5416 21.9826 54.6743 20.4259 54.5919 20.3619C54.559 20.3363 54.525 20.3232 54.49 20.3232C54.3923 20.3232 54.326 20.4193 54.262 20.5116L52.985 22.3596H51.8246V17.3599H52.3683H52.8853H56.1093C56.229 17.3599 56.328 17.3019 56.3676 17.2089C56.403 17.1273 56.3846 17.0376 56.3196 16.9692C56.1119 16.7509 54.4576 15.3069 54.207 15.1096C54.1553 15.0689 54.1026 15.0483 54.0506 15.0483C53.9603 15.0483 53.877 15.1086 53.7966 15.2319L52.6166 16.9899H51.8246V13.8186L49.1066 13.5029V16.9899H46.0393L45.9853 16.9269C45.5443 16.4699 44.894 16.0282 44.028 15.5276L43.9613 15.4889V13.5239C44.1516 13.4429 44.3156 13.3636 44.5383 13.2586C44.5556 13.4053 44.556 13.5996 44.58 13.8976C44.6353 14.5856 44.7043 15.3379 45.375 15.4116C46.1353 15.4949 46.7363 14.9776 46.9356 14.2666C46.9393 14.2506 46.942 14.2326 46.9453 14.2159C48.811 13.3719 50.0323 12.4803 50.442 12.1469C52.447 13.9439 55.2106 14.7176 55.5156 14.7176C55.962 14.7176 55.998 14.1099 56.0416 13.7916C56.1196 13.2242 56.38 12.3386 57.2133 11.6959ZM44.4883 12.5386H41.4393C41.6346 12.3876 43.058 11.2822 43.6823 10.7069C43.7036 10.6866 43.7343 10.6596 43.763 10.6342C44.0076 10.9799 44.3926 11.7959 44.4883 12.5386ZM50.3716 9.25225C49.2563 8.32192 48.274 6.78525 47.8336 5.20225H52.5023L52.479 5.27858C52.2983 5.76625 51.722 7.27292 50.3716 9.25225ZM44.632 4.02225L41.547 3.06592C41.4603 3.89725 41.0256 5.83392 40.7243 6.63592C40.705 6.62325 40.6849 6.60992 40.6693 6.59958C39.9776 6.18592 39.4416 5.98892 38.7656 5.72925L38.6696 5.69158L38.5886 5.81258C39.1093 6.51592 39.5883 7.73425 39.9046 9.76858C39.9953 10.3519 40.2506 10.4989 40.6666 10.4993C41.6823 10.4999 42.2643 9.61925 42.2643 8.76825C42.2643 8.17458 41.9623 7.63958 41.3516 7.08125C41.35 7.07992 41.344 7.07558 41.341 7.07325C42.859 6.01125 44.1073 4.87458 44.632 4.02225ZM36.188 5.67392C36.188 5.30392 34.0416 3.48925 33.7823 3.48925C33.64 3.48925 33.543 3.59592 33.3786 3.83558L32.705 4.83358H32.6353V4.83558H24.6093L21.4103 4.07092L21.41 22.9246C21.4096 23.1276 21.4093 23.3029 21.5066 23.4002C21.5603 23.4539 21.6393 23.4799 21.7473 23.4799C21.7473 23.4799 23.9583 23.3279 23.9613 23.3279C24.219 23.2956 24.3506 23.1279 24.3506 22.8296V21.5139H32.6353V22.4216C32.6353 22.6973 32.721 22.7419 33.0173 22.7526H35.2156C35.4713 22.7526 35.5753 22.6973 35.5753 22.4216L35.575 6.17925C35.725 6.14125 36.188 5.99758 36.188 5.67392ZM24.3506 13.1889H32.6353V5.22658H24.3506V13.1889ZM24.3506 21.1219H32.6353V13.5793H24.3506V21.1219Z" fill="#231916"/>
<mask id="mask0" mask-type="alpha" maskUnits="userSpaceOnUse" x="0" y="0" width="129" height="24">
<path fill-rule="evenodd" clip-rule="evenodd" d="M0 23.8127H128.39V0H0V23.8127Z" fill="white"/>
</mask>
<g mask="url(#mask0)">
<path fill-rule="evenodd" clip-rule="evenodd" d="M0 22.9447H18.6943V4.25H0V22.9447Z" fill="#E50121"/>
<path fill-rule="evenodd" clip-rule="evenodd" d="M6.87803 8.61622C7.07203 8.61622 7.23536 8.52222 7.23536 8.27389C7.23536 7.99222 7.0477 7.95656 6.8447 7.95656V8.61622H6.87803ZM6.8447 9.09722C6.8447 9.28289 6.83603 9.48089 7.05003 9.48089C7.2197 9.48089 7.3367 9.34856 7.3367 9.15356C7.3367 8.86456 7.10303 8.68956 6.8447 8.71222V9.09722ZM6.2627 9.57989V9.50889C6.52503 9.45756 6.5537 9.47589 6.5537 9.01622V8.34222C6.54503 7.99956 6.54936 7.95656 6.2627 7.92656V7.85522H6.9287C7.18003 7.85522 7.56636 7.85522 7.56636 8.23789C7.56636 8.46622 7.36536 8.56789 7.20203 8.61289V8.61856C7.4247 8.67189 7.6677 8.81856 7.6677 9.12089C7.6677 9.54122 7.26836 9.57989 6.9927 9.57989H6.2627Z" fill="#FEFEFE"/>
<path fill-rule="evenodd" clip-rule="evenodd" d="M8.81876 7.85522H9.50676V7.92622C9.29542 7.98922 9.29542 8.02789 9.27776 8.45089L9.26209 8.83189C9.25576 9.03156 9.25109 9.26022 9.12342 9.41222C8.99276 9.56956 8.79209 9.62289 8.60909 9.62289C8.43709 9.62289 8.22976 9.57189 8.10009 9.43789C7.94509 9.27789 7.96709 9.03156 7.96709 8.81922V8.41789C7.96709 7.95922 7.93842 7.97656 7.67676 7.92622V7.85522H8.54942V7.92622C8.24509 7.95689 8.25842 8.07322 8.25842 8.41789V8.77322C8.25842 8.91989 8.25176 9.12056 8.32276 9.24756C8.41076 9.40222 8.58942 9.46256 8.74376 9.46256C9.10776 9.46256 9.16309 9.15856 9.15409 8.84422L9.13842 8.23056C9.13176 7.95922 9.02642 7.97422 8.81876 7.92622V7.85522Z" fill="#FEFEFE"/>
<path fill-rule="evenodd" clip-rule="evenodd" d="M10.5009 8.36759H10.4345C10.3929 8.15959 10.3399 7.92892 10.1125 7.92892C9.97819 7.92892 9.88719 8.04259 9.88719 8.19292C9.88719 8.60359 10.6132 8.57559 10.6132 9.10559C10.6132 9.47059 10.3089 9.62292 10.0265 9.62292C9.86953 9.62292 9.71519 9.57459 9.57853 9.49326L9.50586 8.99126L9.57419 8.97559C9.64719 9.22426 9.80819 9.50626 10.0682 9.50626C10.2139 9.50626 10.3222 9.39726 10.3222 9.23226C10.3222 8.80392 9.59619 8.83926 9.59619 8.33692C9.59619 7.99992 9.87653 7.81226 10.1455 7.81226C10.2779 7.81226 10.4082 7.84992 10.5205 7.92626L10.5009 8.36759Z" fill="#FEFEFE"/>
<path fill-rule="evenodd" clip-rule="evenodd" d="M11.2971 9.0168C11.2971 9.47614 11.3257 9.4578 11.5881 9.50914V9.57914H10.7147V9.50914C10.9774 9.4578 11.0061 9.47614 11.0061 9.0168V8.41814C11.0061 7.95914 10.9774 7.97714 10.7147 7.92614V7.85547H11.5881V7.92614C11.3257 7.97714 11.2971 7.95914 11.2971 8.41814V9.0168Z" fill="#FEFEFE"/>
<path fill-rule="evenodd" clip-rule="evenodd" d="M12.0476 8.42589C12.0476 8.16522 12.041 7.98222 11.7606 7.92622V7.85522H12.2683C12.5463 8.27122 12.9296 8.69189 13.2476 9.11822L13.252 9.11322L13.2383 8.30689C13.234 8.00456 13.168 7.96689 12.908 7.92622V7.85522H13.5783V7.92622C13.3843 7.94656 13.3733 8.05322 13.3733 8.46622V9.59489L13.2743 9.65056C13.0573 9.34689 12.5326 8.73822 12.1686 8.28622C12.1623 8.57089 12.1733 8.83622 12.1823 9.11322C12.191 9.42489 12.2393 9.44589 12.5 9.50889V9.57956H11.776V9.50889C11.9373 9.47322 12.0476 9.48322 12.0476 9.14122V8.42589Z" fill="#FEFEFE"/>
<path fill-rule="evenodd" clip-rule="evenodd" d="M14.3175 8.76065V9.09531C14.3175 9.35365 14.3201 9.47331 14.6131 9.47331C14.8998 9.47331 15.0231 9.28831 15.0851 8.99631H15.1515C15.1561 9.19465 15.1248 9.38998 15.0721 9.57965H13.7355V9.50898C13.9978 9.45831 14.0265 9.47598 14.0265 9.01698V8.41831C14.0265 7.95931 13.9978 7.97665 13.7355 7.92631V7.85498H15.0415L14.9991 8.29865H14.9308C14.9151 7.96665 14.7191 7.96198 14.4785 7.96198H14.3175V8.60865H14.5051C14.6951 8.60865 14.7941 8.59031 14.8495 8.36031H14.9065C14.8955 8.57531 14.8868 8.78831 14.8975 9.00398H14.8358C14.7921 8.75531 14.6881 8.76065 14.4961 8.76065H14.3175Z" fill="#FEFEFE"/>
<path fill-rule="evenodd" clip-rule="evenodd" d="M16.3162 8.36759H16.2502C16.2082 8.15959 16.1552 7.92892 15.9275 7.92892C15.7935 7.92892 15.7029 8.04259 15.7029 8.19292C15.7029 8.60359 16.4289 8.57559 16.4289 9.10559C16.4289 9.47059 16.1242 9.62292 15.8422 9.62292C15.6852 9.62292 15.5309 9.57459 15.3939 9.49326L15.3215 8.99126L15.3899 8.97559C15.4629 9.22426 15.6235 9.50626 15.8839 9.50626C16.0295 9.50626 16.1375 9.39726 16.1375 9.23226C16.1375 8.80392 15.4119 8.83926 15.4119 8.33692C15.4119 7.99992 15.6919 7.81226 15.9612 7.81226C16.0935 7.81226 16.2235 7.84992 16.3359 7.92626L16.3162 8.36759Z" fill="#FEFEFE"/>
<path fill-rule="evenodd" clip-rule="evenodd" d="M17.5467 8.36759H17.4803C17.4387 8.15959 17.386 7.92892 17.1583 7.92892C17.024 7.92892 16.9337 8.04259 16.9337 8.19292C16.9337 8.60359 17.659 8.57559 17.659 9.10559C17.659 9.47059 17.3547 9.62292 17.0723 9.62292C16.9157 9.62292 16.7617 9.57459 16.6247 9.49326L16.552 8.99126L16.6203 8.97559C16.693 9.22426 16.854 9.50626 17.1143 9.50626C17.2597 9.50626 17.3683 9.39726 17.3683 9.23226C17.3683 8.80392 16.6423 8.83926 16.6423 8.33692C16.6423 7.99992 16.9223 7.81226 17.1913 7.81226C17.3237 7.81226 17.4543 7.84992 17.5663 7.92626L17.5467 8.36759Z" fill="#FEFEFE"/>
<path fill-rule="evenodd" clip-rule="evenodd" d="M9.00508 6.13976C9.00508 5.87843 8.99875 5.69609 8.71875 5.63976V5.56909H9.22575C9.50375 5.98509 9.88742 6.40576 10.2051 6.83176L10.2094 6.82709L10.1964 6.02076C10.1917 5.71843 10.1254 5.68076 9.86575 5.63976V5.56909H10.5358V5.63976C10.3421 5.66043 10.3307 5.76676 10.3307 6.18009V7.30876L10.2318 7.36443C10.0151 7.06043 9.49008 6.45209 9.12608 6.00009C9.12008 6.28476 9.13075 6.55009 9.13975 6.82709C9.14875 7.13876 9.19708 7.15943 9.45742 7.22243V7.29309H8.73375V7.22243C8.89508 7.18709 9.00508 7.19709 9.00508 6.85509V6.13976Z" fill="#FEFEFE"/>
<path fill-rule="evenodd" clip-rule="evenodd" d="M11.2986 6.73067C11.2986 7.19 11.3276 7.17167 11.5896 7.22234V7.293H10.7163V7.22234C10.9786 7.17167 11.0076 7.19 11.0076 6.73067V6.132C11.0076 5.67334 10.9786 5.691 10.7163 5.63967V5.56934H11.5896V5.63967C11.3276 5.691 11.2986 5.67334 11.2986 6.132V6.73067Z" fill="#FEFEFE"/>
<path fill-rule="evenodd" clip-rule="evenodd" d="M15.7883 6.47451V6.80918C15.7883 7.06751 15.7903 7.18751 16.0836 7.18751C16.3703 7.18751 16.4939 7.00218 16.5553 6.71018H16.6219C16.6263 6.90785 16.5953 7.10351 16.5423 7.29318H15.2059V7.22251C15.4683 7.17185 15.4969 7.18985 15.4969 6.73085V6.13218C15.4969 5.67351 15.4683 5.69051 15.2059 5.63985V5.56885H16.5116L16.4696 6.01251H16.4013C16.3859 5.68085 16.1896 5.67585 15.9493 5.67585H15.7883V6.32218H15.9759C16.1653 6.32218 16.2646 6.30451 16.3196 6.07351H16.3769C16.3659 6.28885 16.3573 6.50251 16.3683 6.71785H16.3063C16.2623 6.46885 16.1586 6.47451 15.9669 6.47451H15.7883Z" fill="#FEFEFE"/>
<path fill-rule="evenodd" clip-rule="evenodd" d="M17.2942 6.73067C17.2942 7.19 17.3228 7.17167 17.5852 7.22234V7.293H16.7122V7.22234C16.9745 7.17167 17.0032 7.19 17.0032 6.73067V6.132C17.0032 5.67334 16.9745 5.691 16.7122 5.63967V5.56934H17.5852V5.63967C17.3228 5.691 17.2942 5.67334 17.2942 6.132V6.73067Z" fill="#FEFEFE"/>
<path fill-rule="evenodd" clip-rule="evenodd" d="M12.3432 6.73058V6.13191C12.3432 5.67325 12.3722 5.69058 12.6346 5.64025V5.56958H11.7612V5.64025C12.0236 5.69058 12.0522 5.67325 12.0522 6.13191V6.73058C12.0522 7.18925 12.0236 7.17158 11.7612 7.22291V7.29325H12.6346V7.22291C12.3722 7.17158 12.3432 7.18925 12.3432 6.73058Z" fill="#FEFEFE"/>
<path fill-rule="evenodd" clip-rule="evenodd" d="M13.5224 7.22867C13.4244 7.21134 13.3118 7.16034 13.2274 7.05167L12.6274 6.27167L12.8084 6.056C13.0008 5.82734 13.0741 5.69367 13.3061 5.64V5.56934H12.7264V5.64C12.9588 5.686 12.8304 5.84534 12.6654 6.05867L12.3698 6.439L12.8628 7.10367C13.0788 7.36 13.3568 7.32534 13.5224 7.29V7.22867Z" fill="#FEFEFE"/>
<path fill-rule="evenodd" clip-rule="evenodd" d="M14.0639 6.73571V6.13704C14.0639 5.67837 14.0929 5.69571 14.3553 5.64537V5.57471H13.4819V5.64537C13.7443 5.69571 13.7729 5.67837 13.7729 6.13704V6.73571C13.7729 7.19437 13.7443 7.17671 13.4819 7.22804V7.29837H14.3553V7.22804C14.0929 7.17671 14.0639 7.19437 14.0639 6.73571Z" fill="#FEFEFE"/>
<path fill-rule="evenodd" clip-rule="evenodd" d="M15.2431 7.2338C15.1451 7.21646 15.0325 7.16546 14.9481 7.0568L14.3481 6.2768L14.5291 6.06113C14.7215 5.83246 14.7948 5.6988 15.0268 5.64513V5.57446H14.4471V5.64513C14.6795 5.69113 14.5511 5.85046 14.3861 6.0638L14.0905 6.44413L14.5835 7.1088C14.7995 7.36513 15.0775 7.33046 15.2431 7.29513V7.2338Z" fill="#FEFEFE"/>
</g>
</svg>
