<svg width="93" height="18" viewBox="0 0 93 18" fill="none" xmlns="http://www.w3.org/2000/svg">
<path fill-rule="evenodd" clip-rule="evenodd" d="M2.79367 14.8205C2.78978 13.3965 2.80579 11.1147 2.80881 9.42387C4.44129 9.3672 6.40597 9.37066 7.7828 9.37066C9.18083 9.37066 11.2424 9.3672 12.8152 9.43165C12.8052 11.0555 12.7983 13.2793 12.7555 14.8205H2.79367ZM12.8 2.67553C12.8247 3.92908 12.8243 5.83796 12.8221 7.78145C11.4522 7.82297 9.60906 7.83595 7.68677 7.83465C5.86613 7.83379 4.09913 7.82124 2.81314 7.78404C2.8192 5.79081 2.81357 3.82094 2.82914 2.67553H12.8ZM13.3762 16.4711C14.1401 16.4975 14.8962 16.4923 15.3941 16.488C15.465 16.4136 15.5386 16.3344 15.6112 16.2531C15.4547 12.6486 15.4763 4.97587 15.6709 1.16677L15.4317 0.992878C12.3523 1.10707 3.79721 1.0902 0.258018 0.956543L0.0118927 1.20959C0.150744 2.85807 0.178428 5.65715 0.172804 8.66516C0.167181 11.6161 0.127818 14.3563 0.000213623 16.2687C0.0460648 16.3392 0.0940787 16.4088 0.144688 16.4772C0.609688 16.4733 1.63355 16.4806 2.02026 16.4741C4.33488 16.4214 10.7938 16.4071 13.3762 16.4711Z" fill="#006EAF"/>
<path fill-rule="evenodd" clip-rule="evenodd" d="M47.5846 15.3001C46.9829 15.2884 46.3453 15.2837 45.9889 15.1967C45.2284 15.0111 44.9724 14.5838 44.9412 13.6668V9.16339C45.9404 9.10846 46.2835 9.10889 46.9089 9.10889C50.6523 9.10889 51.7588 10.2993 51.7942 12.0148C51.8453 14.4921 50.2517 15.3511 47.5846 15.3001ZM49.0851 2.36401C50.4974 2.71525 51.1026 3.64957 51.1026 4.85035C51.1026 6.10477 50.4248 7.18703 48.6746 7.56639C47.8558 7.66068 46.1476 7.6689 44.9412 7.60661V2.24506C45.671 2.21824 46.4785 2.19055 47.3969 2.19055C48.028 2.19055 48.6785 2.26322 49.0851 2.36401ZM50.7038 8.01149C52.7701 7.36525 53.9549 5.93564 53.9549 4.45543C53.9549 2.3506 52.9098 1.28175 50.25 0.888121C49.6064 0.792526 48.7698 0.773926 47.6447 0.773926C45.5113 0.773926 44.2011 0.855247 42.2131 0.806368L42.0483 0.933107C42.3212 1.57978 42.3355 3.71878 42.3796 5.17694C42.4337 6.99411 42.4064 8.44318 42.3848 10.179C42.3558 12.4149 42.345 15.6401 42.0941 16.4433L42.2797 16.6259C42.7655 16.6017 43.0691 16.5835 43.2724 16.5835C44.1163 16.5835 46.155 16.6371 48.0392 16.6371C51.825 16.6371 54.6578 15.2664 54.82 12.1333C54.9363 9.86889 53.816 8.46784 50.7038 8.01149Z" fill="#006EAF"/>
<mask id="mask0" mask-type="alpha" maskUnits="userSpaceOnUse" x="72" y="0" width="21" height="17">
<path fill-rule="evenodd" clip-rule="evenodd" d="M72.3891 0.471191H92.628V16.8941H72.3891V0.471191Z" fill="white"/>
</mask>
<g mask="url(#mask0)">
<path fill-rule="evenodd" clip-rule="evenodd" d="M92.6281 14.7694C91.2374 14.8382 89.4665 14.8235 87.9357 14.8235C87.9205 12.3302 87.9205 8.60155 87.9781 5.52563C89.553 5.53558 90.8918 5.51741 92.058 5.57235C92.0502 5.08788 92.0636 4.28852 92.0926 3.82308C90.9216 3.86115 89.0097 3.85899 88.0135 3.85899C88.0481 2.52541 88.0633 1.6006 88.1277 0.555973C88.1057 0.525694 88.0819 0.497577 88.0598 0.471191C87.446 0.488061 85.7647 0.488061 85.256 0.47595C85.2119 0.513582 85.1673 0.558136 85.1249 0.603554C85.1937 1.59584 85.2136 2.50897 85.2508 3.85985C83.8748 3.85293 82.6429 3.86937 81.5083 3.84385C81.5386 4.32312 81.5234 5.11341 81.5143 5.57365C82.6507 5.5265 83.9051 5.5464 85.288 5.53169C85.3412 8.49817 85.3209 12.1957 85.2028 14.8248C83.6871 14.8248 81.4118 14.8313 80.1769 14.7603C80.1894 15.3222 80.1851 16.1679 80.1431 16.7146C83.556 16.4568 88.9414 16.4529 92.6155 16.6515C92.5926 16.1281 92.6004 15.311 92.6281 14.7694ZM80.2123 12.0196C80.8045 11.5884 81.4092 11.0797 81.8799 10.5502C80.9914 9.68684 79.5964 8.62102 78.7827 8.16424C79.66 7.08933 80.269 6.12127 80.7959 4.98104C80.8019 4.82056 80.814 3.97534 80.8019 3.78545C80.2867 3.80016 78.8022 3.81314 78.2615 3.81141C78.2702 3.02155 78.2996 1.48597 78.3485 0.700015C78.3225 0.659787 78.2918 0.619991 78.2615 0.583224C77.8722 0.593605 76.3089 0.600959 75.8565 0.579764C75.8176 0.615233 75.7786 0.655461 75.744 0.696122C75.8007 1.41936 75.8379 3.24259 75.8193 3.83044C74.9607 3.83909 73.5228 3.84688 72.685 3.82871C72.7049 4.2963 72.7152 5.08659 72.7127 5.54942C74.1656 5.49233 76.8514 5.47373 78.024 5.46983C77.1693 7.89389 74.2755 10.847 72.3891 11.9335C72.4298 12.2766 72.4726 13.367 72.4804 13.6473C73.7171 13.0275 74.8577 12.1529 75.9443 11.2038C75.9443 12.4085 75.9222 15.006 75.7821 16.8699C76.5702 16.9062 77.4608 16.9006 78.3688 16.8595C78.2944 15.1116 78.258 11.4707 78.2732 9.74221C78.967 10.3915 79.7188 11.2838 80.2123 12.0196Z" fill="#006EAF"/>
</g>
<path fill-rule="evenodd" clip-rule="evenodd" d="M60.6745 8.86944C60.694 7.51207 60.6879 3.443 60.6797 2.39275C61.6231 2.31662 62.3269 2.27855 63.176 2.29196C63.7751 2.30148 64.5464 2.32613 65.0364 2.4559C66.5958 2.86813 67.3883 3.81586 67.4856 5.33155C67.6141 7.31829 66.5707 8.82835 63.8698 9.01089C63.0493 9.06625 62.7789 9.03857 62.0838 8.98493L61.9739 10.4452C62.7815 10.5266 63.433 10.5698 64.3495 10.5084C66.5919 10.357 68.2495 9.66664 69.2816 8.43645C70.0169 7.56268 70.3937 6.52757 70.3937 5.04173C70.3937 2.75523 68.9559 1.22051 65.7368 0.918588C65.0888 0.857165 63.9213 0.853271 63.0899 0.853271C62.2512 0.853271 60.7844 0.892634 59.3634 0.892634C58.7315 0.892634 58.0749 0.915992 57.7548 0.888741C57.6907 0.968765 57.6881 0.994718 57.6406 1.06955C57.9027 1.49519 57.9624 2.48661 58.0242 3.92573C58.058 4.7264 58.0792 6.73044 58.0783 8.82359C58.0766 11.3476 58.0454 14.0017 57.9693 14.8327C57.9222 15.3556 57.8374 16.2545 57.7176 16.5378C57.7344 16.5672 57.7496 16.5967 57.7638 16.623C58.9356 16.5646 59.9716 16.5811 61.0647 16.6326C61.0859 16.6049 61.1097 16.5724 61.1326 16.5413C60.8891 16.0966 60.867 15.4608 60.8112 14.6951C60.7489 13.8343 60.6667 11.8238 60.6853 10.3951L60.6745 8.86944Z" fill="#006EAF"/>
<path fill-rule="evenodd" clip-rule="evenodd" d="M19.4933 11.2554C19.5019 12.374 19.2428 15.0766 19.1083 15.9335C19.4664 15.9491 20.3363 15.9754 20.778 15.9491C20.9709 14.8841 21.2897 12.2325 21.3325 11.2619C20.8991 11.2727 19.8782 11.2649 19.4933 11.2554Z" fill="#006EAF"/>
<path fill-rule="evenodd" clip-rule="evenodd" d="M26.9511 14.242C26.7915 13.0468 26.5752 11.6203 26.4991 11.231C26.1569 11.2392 25.2654 11.2361 24.9557 11.231C25.0106 11.7072 25.1278 13.4236 25.124 14.2455C25.63 14.2558 26.5929 14.2602 26.9511 14.242Z" fill="#006EAF"/>
<mask id="mask1" mask-type="alpha" maskUnits="userSpaceOnUse" x="19" y="0" width="20" height="17">
<path fill-rule="evenodd" clip-rule="evenodd" d="M19.0684 0.432617H38.4012V16.8585H19.0684V0.432617Z" fill="white"/>
</mask>
<g mask="url(#mask1)">
<path fill-rule="evenodd" clip-rule="evenodd" d="M38.4012 14.6938C37.3756 14.8115 35.1012 14.8076 33.1642 14.8015C33.1266 14.0571 33.1209 13.0773 33.1132 12.066C34.573 12.0725 36.3439 12.0894 37.1468 12.127C37.1204 11.7611 37.1247 10.7597 37.161 10.357C36.1242 10.4223 34.5263 10.4591 33.1157 10.4738C33.1235 9.65322 33.1253 8.88542 33.1547 8.28763C33.1209 8.2461 33.0807 8.20458 33.0413 8.16651C32.2749 8.17646 31.3366 8.16997 30.6255 8.13969C30.6683 8.78421 30.7077 9.57406 30.7189 10.4772C29.4814 10.4677 28.3559 10.4444 27.5063 10.4102C27.2827 9.37335 26.6503 7.32778 26.2692 6.53144C25.8509 6.53144 25.02 6.54182 24.5822 6.5388L24.497 6.62142C24.6445 6.97092 24.831 7.61543 25.0105 8.30709C24.2392 8.36462 22.9143 8.40961 21.8212 8.42605C23.8075 7.04316 26.0663 4.78218 27.0292 3.27341L27.0396 3.25957L26.9276 3.08439C26.3942 3.0965 25.0663 3.08741 24.6471 3.0753C24.234 3.71938 23.3148 4.8263 22.6331 5.48379C22.3433 5.20306 21.9198 4.72119 21.5037 4.36389C23.0259 3.16657 24.3404 1.69328 25.3189 0.605829L25.2224 0.432373C24.4884 0.466113 23.2785 0.485578 22.4428 0.461787C21.9354 1.23347 20.5024 3.03508 19.2579 3.94691C19.209 3.97502 19.1324 3.98411 19.0684 3.98757V4.85312C19.3889 4.95953 20.7273 6.08634 21.3601 6.77194C20.7697 7.31308 19.995 7.96018 19.3483 8.37111L19.1813 8.38236C19.1471 8.82141 19.1869 9.89372 19.2142 10.2385C20.11 10.2112 21.1404 10.1515 22.0613 10.0719C22.1426 11.8835 22.1184 15.029 21.9622 16.8371C22.4783 16.8687 23.7249 16.8687 24.2626 16.8151C24.1899 15.3881 24.1159 11.4185 24.1164 9.88117C24.5212 9.84138 25.0546 9.80028 25.3617 9.75746C25.4184 9.99277 25.5369 10.4604 25.5845 10.6996C25.9465 10.6991 26.8904 10.7065 27.1404 10.7151C27.1495 11.0876 27.1456 11.7096 27.1149 12.1153C27.8269 12.0825 29.2301 12.0678 30.7172 12.0639C30.7055 12.9965 30.6926 13.9429 30.6489 14.7946C28.666 14.7864 26.659 14.7643 25.8302 14.734C25.8444 15.119 25.8483 15.9937 25.8263 16.6213C28.6695 16.4561 34.8226 16.4245 38.3765 16.5914C38.3605 16.0918 38.3549 15.1817 38.4012 14.6938Z" fill="#006EAF"/>
</g>
<path fill-rule="evenodd" clip-rule="evenodd" d="M26.8023 2.48185C27.8751 2.45806 30.1412 2.42951 31.9562 2.42648C32.7721 2.42562 33.5814 2.43557 34.3146 2.45071C33.6895 3.19124 32.8685 4.01873 31.9787 4.74024C31.2334 4.30422 30.2511 3.67874 29.5512 3.08181C29.1165 3.09522 28.2553 3.09349 27.7613 3.09997L27.6761 3.26564C28.4339 4.11562 29.3791 4.88514 30.5401 5.8212C29.5659 6.55828 28.1532 7.31698 27.2262 7.70758C27.3724 8.07872 27.6216 8.81753 27.7444 9.20726C28.9963 8.71977 30.4886 7.86547 31.9389 6.89091C33.0459 7.59642 36.1114 9.23971 37.4246 9.66837C37.583 9.08961 38.0034 8.12024 38.3793 7.48049C37.0033 7.08037 34.9837 6.35757 33.6623 5.65293C35.0075 4.61739 36.5868 3.14842 37.3265 2.18857C37.3511 2.16695 37.4078 2.1384 37.4389 2.12629C37.4636 1.65653 37.4636 1.09896 37.4445 0.705333C35.7731 0.759835 33.8288 0.764161 32.041 0.752914C30.0898 0.740803 28.0148 0.766324 26.7906 0.68457C26.7729 1.04576 26.7764 2.03978 26.8023 2.48185Z" fill="#006EAF"/>
</svg>
