<svg width="36" height="36" viewBox="0 0 36 36" fill="none" xmlns="http://www.w3.org/2000/svg">
<path fill-rule="evenodd" clip-rule="evenodd" d="M8.3999 17.9999C8.3999 12.9599 12.4799 8.87988 17.5199 8.87988C22.5599 8.87988 26.6399 12.9599 26.6399 17.9999C26.6399 23.0399 22.5599 27.1199 17.5199 27.1199C12.4799 27.1199 8.3999 23.0399 8.3999 17.9999ZM11.6399 17.9999C11.6399 21.2399 14.2799 23.8799 17.5199 23.8799C20.7599 23.8799 23.3999 21.2399 23.3999 17.9999C23.3999 14.7599 20.7599 12.1199 17.5199 12.1199C14.2799 12.1199 11.6399 14.7599 11.6399 17.9999Z" fill="url(#paint0_linear)"/>
<path d="M27.3602 10.8C28.5531 10.8 29.5202 9.83292 29.5202 8.63998C29.5202 7.44705 28.5531 6.47998 27.3602 6.47998C26.1673 6.47998 25.2002 7.44705 25.2002 8.63998C25.2002 9.83292 26.1673 10.8 27.3602 10.8Z" fill="url(#paint1_linear)"/>
<path fill-rule="evenodd" clip-rule="evenodd" d="M29.4 1.43998C31.8 2.27998 33.6 4.19998 34.56 6.59998C35.04 8.03998 35.4 9.47998 35.4 10.92C35.52 12.84 35.52 13.44 35.52 18.24C35.52 23.04 35.52 23.64 35.4 25.56C35.4 27 35.04 28.56 34.56 29.88C33.72 32.28 31.8 34.08 29.4 35.04C27.96 35.52 26.52 35.88 25.08 35.88C23.16 36 22.56 36 17.76 36C12.96 36 12.36 36 10.44 35.88C9 35.88 7.44 35.52 6.12 35.04C3.72 34.2 1.92 32.28 0.96 29.88C0.48 28.44 0.12 27 0.12 25.56C0 23.64 0 23.04 0 18.24C0 13.44 0 12.84 0.12 10.92C0.12 9.47998 0.36 7.91998 0.96 6.59998C1.8 4.19998 3.72 2.39998 6.12 1.43998C7.56 0.95998 9 0.59998 10.44 0.59998C12.36 0.47998 12.96 0.47998 17.76 0.47998C22.56 0.47998 23.16 0.47998 25.08 0.59998C26.52 0.59998 28.08 0.95998 29.4 1.43998ZM31.56 28.8C31.92 27.72 32.16 26.52 32.16 25.44C32.2296 24.3266 32.2185 23.6571 32.1968 22.355C32.1812 21.4118 32.16 20.1365 32.16 18.12C32.16 13.32 32.16 12.84 32.04 10.92C32.04 9.83998 31.8 8.75998 31.44 7.67998C30.84 6.11998 29.64 4.91998 28.08 4.31998C27.12 3.95998 25.92 3.71998 24.84 3.71998C22.92 3.59998 22.44 3.59998 17.64 3.59998C12.84 3.59998 12.36 3.59998 10.44 3.71998C9.36 3.71998 8.28 3.95998 7.2 4.31998C5.64 4.91998 4.44 6.11998 3.96 7.79998C3.6 8.87998 3.36 10.08 3.36 11.16C3.24 13.08 3.24 13.56 3.24 18.36C3.24 23.16 3.24 23.64 3.36 25.56C3.36 26.64 3.6 27.72 3.96 28.8C4.56 30.36 5.76 31.56 7.32 32.16C8.28 32.52 9.48 32.76 10.56 32.76C12.48 32.88 12.96 32.88 17.76 32.88C22.56 32.88 23.04 32.88 24.96 32.76C26.04 32.76 27.12 32.52 28.2 32.16C29.76 31.56 30.96 30.36 31.56 28.8Z" fill="url(#paint2_linear)"/>
<defs>
<linearGradient id="paint0_linear" x1="-5.93069" y1="16.4102" x2="19.5609" y2="45.0713" gradientUnits="userSpaceOnUse">
<stop stop-color="#5555D0"/>
<stop offset="0.392251" stop-color="#BE2C8D"/>
<stop offset="0.690684" stop-color="#F2553F"/>
<stop offset="1" stop-color="#DB2B7C"/>
</linearGradient>
<linearGradient id="paint1_linear" x1="21.8061" y1="8.26347" x2="27.8436" y2="15.0516" gradientUnits="userSpaceOnUse">
<stop stop-color="#5555D0"/>
<stop offset="0.392251" stop-color="#BE2C8D"/>
<stop offset="0.690684" stop-color="#F2553F"/>
<stop offset="1" stop-color="#DB2B7C"/>
</linearGradient>
<linearGradient id="paint2_linear" x1="-27.9069" y1="15.1442" x2="21.7345" y2="70.9581" gradientUnits="userSpaceOnUse">
<stop stop-color="#5555D0"/>
<stop offset="0.392251" stop-color="#BE2C8D"/>
<stop offset="0.690684" stop-color="#F2553F"/>
<stop offset="1" stop-color="#DB2B7C"/>
</linearGradient>
</defs>
</svg>
