<svg width="20" height="20" viewBox="0 0 20 20" fill="none" xmlns="http://www.w3.org/2000/svg">
<path fill-rule="evenodd" clip-rule="evenodd" d="M8.57133 0.835793V4.17896H7.755V0.417896C7.755 0.187099 7.93774 0 8.16317 0H19.5919C19.8173 0 20 0.187099 20 0.417896V8.46575C20 8.69654 19.8173 8.88364 19.5919 8.88364H18.5728L16.6544 11.5321C16.4201 11.8556 15.9184 11.6859 15.9184 11.2832V8.88364H15.5102V8.04785H16.3265C16.552 8.04785 16.7347 8.23495 16.7347 8.46575V10.0182L18.0395 8.21681C18.1165 8.11052 18.2381 8.04785 18.3674 8.04785H19.1837V0.835793H8.57133ZM6.09945 16.4078L6.12251 19.5782C6.1255 19.9886 5.60917 20.1571 5.37968 19.8205L3.05251 16.4078H0.408168C0.182743 16.4078 0 16.2207 0 15.9899V5.37281C0 5.14201 0.182743 4.95492 0.408168 4.95492H14.2859C14.5113 4.95492 14.6941 5.14201 14.6941 5.37281V15.9899C14.6941 16.2207 14.5113 16.4078 14.2859 16.4078H6.09945ZM5.2801 15.993L5.29643 18.2384L3.60004 15.7507C3.52369 15.6387 3.39873 15.572 3.26537 15.572H0.816355V5.79071H13.8777V15.572H5.68825C5.46164 15.572 5.27841 15.761 5.2801 15.993ZM3.26513 12.5369V11.7011H11.4285V12.5369H3.26513ZM3.26513 8.35793V9.19372H11.4285V8.35793H3.26513Z" fill="#E6001E"/>
<mask id="mask0" mask-type="alpha" maskUnits="userSpaceOnUse" x="0" y="0" width="21" height="20">
<path fill-rule="evenodd" clip-rule="evenodd" d="M8.57133 0.835793V4.17896H7.755V0.417896C7.755 0.187099 7.93774 0 8.16317 0H19.5919C19.8173 0 20 0.187099 20 0.417896V8.46575C20 8.69654 19.8173 8.88364 19.5919 8.88364H18.5728L16.6544 11.5321C16.4201 11.8556 15.9184 11.6859 15.9184 11.2832V8.88364H15.5102V8.04785H16.3265C16.552 8.04785 16.7347 8.23495 16.7347 8.46575V10.0182L18.0395 8.21681C18.1165 8.11052 18.2381 8.04785 18.3674 8.04785H19.1837V0.835793H8.57133ZM6.09945 16.4078L6.12251 19.5782C6.1255 19.9886 5.60917 20.1571 5.37968 19.8205L3.05251 16.4078H0.408168C0.182743 16.4078 0 16.2207 0 15.9899V5.37281C0 5.14201 0.182743 4.95492 0.408168 4.95492H14.2859C14.5113 4.95492 14.6941 5.14201 14.6941 5.37281V15.9899C14.6941 16.2207 14.5113 16.4078 14.2859 16.4078H6.09945ZM5.2801 15.993L5.29643 18.2384L3.60004 15.7507C3.52369 15.6387 3.39873 15.572 3.26537 15.572H0.816355V5.79071H13.8777V15.572H5.68825C5.46164 15.572 5.27841 15.761 5.2801 15.993ZM3.26513 12.5369V11.7011H11.4285V12.5369H3.26513ZM3.26513 8.35793V9.19372H11.4285V8.35793H3.26513Z" fill="white"/>
</mask>
<g mask="url(#mask0)">
<rect x="-6.66663" y="-7.5" width="33.3333" height="33.3333" fill="#E6001E"/>
</g>
</svg>
