<svg width="20" height="20" viewBox="0 0 20 20" fill="none" xmlns="http://www.w3.org/2000/svg">
<path fill-rule="evenodd" clip-rule="evenodd" d="M14.4226 5.42403C15.1623 6.12821 16.0023 6.5863 16.7197 6.69858L8.53437 15.2986C8.16178 15.69 6.9716 15.3255 5.93632 14.3406C4.90131 13.3559 4.47851 12.1848 4.85135 11.7925L13.0365 3.19277C13.184 3.90358 13.683 4.71997 14.4226 5.42403ZM13.3259 1.88189L13.314 1.89425C13.0076 2.21565 12.9293 2.67634 13.0365 3.19277L13.8166 2.37317C14.1316 2.04212 13.6455 1.57131 13.3259 1.88189ZM17.9881 6.37319C17.6822 6.68246 17.2323 6.77879 16.7197 6.69858L17.4921 5.88706L17.4999 5.87905L17.5054 5.87316C17.8248 5.54952 18.3199 6.02455 18.0027 6.35789L17.9881 6.37319ZM17.9881 6.37319L8.04156 16.8239C7.99429 16.8735 7.93338 16.9081 7.8665 16.9232L2.78456 18.0704C2.54288 18.125 2.32347 17.9161 2.36604 17.672L3.26118 12.5401C3.27296 12.4726 3.30447 12.41 3.35173 12.3604L13.3135 1.89439C13.3176 1.89009 13.3218 1.88593 13.3259 1.88189C14.0584 1.13551 15.6231 1.6192 16.8937 2.82792C18.1709 4.04299 18.7304 5.5928 18.0032 6.35763L17.9881 6.37319ZM17.5054 5.87316L17.4996 5.87912L17.4921 5.88706C17.1106 6.26553 15.929 5.89933 14.9013 4.92105C13.8666 3.93609 13.4437 2.76455 13.8167 2.37321C14.1895 1.98163 15.3797 2.34614 16.415 3.33105C17.4448 4.31081 17.8685 5.47514 17.5054 5.87316ZM3.13967 17.2783L3.92726 12.763L4.07104 12.6119C4.21841 13.323 4.71753 14.1395 5.45769 14.8437C6.19772 15.5477 7.03757 16.0058 7.75465 16.1181L7.61104 16.2689L3.13967 17.2783Z" fill="#E6001E"/>
<mask id="mask0" mask-type="alpha" maskUnits="userSpaceOnUse" x="2" y="1" width="17" height="18">
<path fill-rule="evenodd" clip-rule="evenodd" d="M14.4226 5.42403C15.1623 6.12821 16.0023 6.5863 16.7197 6.69858L8.53437 15.2986C8.16178 15.69 6.9716 15.3255 5.93632 14.3406C4.90131 13.3559 4.47851 12.1848 4.85135 11.7925L13.0365 3.19277C13.184 3.90358 13.683 4.71997 14.4226 5.42403ZM13.3259 1.88189L13.314 1.89425C13.0076 2.21565 12.9293 2.67634 13.0365 3.19277L13.8166 2.37317C14.1316 2.04212 13.6455 1.57131 13.3259 1.88189ZM17.9881 6.37319C17.6822 6.68246 17.2323 6.77879 16.7197 6.69858L17.4921 5.88706L17.4999 5.87905L17.5054 5.87316C17.8248 5.54952 18.3199 6.02455 18.0027 6.35789L17.9881 6.37319ZM17.9881 6.37319L8.04156 16.8239C7.99429 16.8735 7.93338 16.9081 7.8665 16.9232L2.78456 18.0704C2.54288 18.125 2.32347 17.9161 2.36604 17.672L3.26118 12.5401C3.27296 12.4726 3.30447 12.41 3.35173 12.3604L13.3135 1.89439C13.3176 1.89009 13.3218 1.88593 13.3259 1.88189C14.0584 1.13551 15.6231 1.6192 16.8937 2.82792C18.1709 4.04299 18.7304 5.5928 18.0032 6.35763L17.9881 6.37319ZM17.5054 5.87316L17.4996 5.87912L17.4921 5.88706C17.1106 6.26553 15.929 5.89933 14.9013 4.92105C13.8666 3.93609 13.4437 2.76455 13.8167 2.37321C14.1895 1.98163 15.3797 2.34614 16.415 3.33105C17.4448 4.31081 17.8685 5.47514 17.5054 5.87316ZM3.13967 17.2783L3.92726 12.763L4.07104 12.6119C4.21841 13.323 4.71753 14.1395 5.45769 14.8437C6.19772 15.5477 7.03757 16.0058 7.75465 16.1181L7.61104 16.2689L3.13967 17.2783Z" fill="white"/>
</mask>
<g mask="url(#mask0)">
<rect x="-3.88879" y="-4.72217" width="27.7778" height="27.7778" fill="#E6001E"/>
</g>
<path d="M3.07806 15.6128L4.64959 17.2156L2.69958 17.6295L3.07806 15.6128Z" fill="#E6001E"/>
<mask id="mask1" mask-type="alpha" maskUnits="userSpaceOnUse" x="2" y="15" width="3" height="3">
<path d="M3.07806 15.6128L4.64959 17.2156L2.69958 17.6295L3.07806 15.6128Z" fill="white"/>
</mask>
<g mask="url(#mask1)">
<rect x="1.66675" y="1.52783" width="27.7778" height="27.7778" fill="#E6001E"/>
</g>
</svg>
