<svg width="20" height="20" viewBox="0 0 20 20" fill="none" xmlns="http://www.w3.org/2000/svg">
<path fill-rule="evenodd" clip-rule="evenodd" d="M7.6147 17.0934H0.823211V0.844538H14.4885V5.52412H15.3117V0H0V17.938H7.6147V17.0934ZM2.67536 10.2188V11.0634H6.0283V10.2188H2.67536ZM2.67536 7.81223V6.96769H10.1444V7.81223H2.67536ZM2.67536 3.71613V4.56067H12.614V3.71613H2.67536ZM11.9359 12.2201H8.64782L11.0332 15.0976L10.4716 18.4563L13.4335 16.8593L16.3945 18.4562L15.8328 15.0975L18.2189 12.2201H14.931L13.4335 9.10633L11.9359 12.2201ZM15.4428 11.3756L13.4334 7.19764L11.4241 11.3756H6.86698L10.1568 15.3439L9.37822 19.9999L13.4334 17.8134L17.4878 20L16.7092 15.344L20 11.3756H15.4428Z" fill="#E6001E"/>
<mask id="mask0" mask-type="alpha" maskUnits="userSpaceOnUse" x="0" y="0" width="21" height="20">
<path fill-rule="evenodd" clip-rule="evenodd" d="M7.6147 17.0934H0.823211V0.844538H14.4885V5.52412H15.3117V0H0V17.938H7.6147V17.0934ZM2.67536 10.2188V11.0634H6.0283V10.2188H2.67536ZM2.67536 7.81223V6.96769H10.1444V7.81223H2.67536ZM2.67536 3.71613V4.56067H12.614V3.71613H2.67536ZM11.9359 12.2201H8.64782L11.0332 15.0976L10.4716 18.4563L13.4335 16.8593L16.3945 18.4562L15.8328 15.0975L18.2189 12.2201H14.931L13.4335 9.10633L11.9359 12.2201ZM15.4428 11.3756L13.4334 7.19764L11.4241 11.3756H6.86698L10.1568 15.3439L9.37822 19.9999L13.4334 17.8134L17.4878 20L16.7092 15.344L20 11.3756H15.4428Z" fill="white"/>
</mask>
<g mask="url(#mask0)">
<rect x="-5" y="-8.33325" width="33.3333" height="33.3333" fill="#E6001E"/>
</g>
</svg>
