<svg width="28" height="28" viewBox="0 0 28 28" fill="none" xmlns="http://www.w3.org/2000/svg">
<path d="M5.83301 15.9442L10.1112 19.8327L22.1663 8.16602" stroke="#E6001E" stroke-width="2" stroke-linejoin="round"/>
<path fill-rule="evenodd" clip-rule="evenodd" d="M14 0C6.2685 0 0 6.2685 0 14C0 21.7315 6.2685 28 14 28C21.7315 28 28 21.7315 28 14C28 6.2685 21.7315 0 14 0ZM14 1.75C20.755 1.75 26.25 7.245 26.25 14C26.25 20.755 20.755 26.25 14 26.25C7.245 26.25 1.75 20.755 1.75 14C1.75 7.245 7.245 1.75 14 1.75Z" fill="#E6001E"/>
</svg>
