<svg width="32" height="32" viewBox="0 0 32 32" fill="none" xmlns="http://www.w3.org/2000/svg">
<path fill-rule="evenodd" clip-rule="evenodd" d="M13.714 1.33727V6.68634H12.4078V0.668634C12.4078 0.299358 12.7002 0 13.0609 0H31.3468C31.7075 0 31.9999 0.299358 31.9999 0.668634V13.5452C31.9999 13.9145 31.7075 14.2138 31.3468 14.2138H29.7164L26.6468 18.4514C26.2719 18.969 25.4692 18.6975 25.4692 18.0531V14.2138H24.8161V12.8766H26.1223C26.483 12.8766 26.7754 13.1759 26.7754 13.5452V16.0291L28.8631 13.1469C28.9863 12.9768 29.1808 12.8766 29.3876 12.8766H30.6938V1.33727H13.714ZM9.75912 26.2525L9.79602 31.3251C9.8008 31.9818 8.97468 32.2513 8.60749 31.7128L4.88402 26.2525H0.653069C0.292389 26.2525 0 25.9531 0 25.5838V8.5965C0 8.22722 0.292389 7.92786 0.653069 7.92786H22.8574C23.2181 7.92786 23.5105 8.22722 23.5105 8.5965V25.5838C23.5105 25.9531 23.2181 26.2525 22.8574 26.2525H9.75912ZM8.44808 25.5888L8.47422 29.1814L5.75999 25.2011C5.63784 25.0219 5.43791 24.9152 5.22452 24.9152H1.3061V9.26513H22.2043V24.9152H9.10114C8.73855 24.9152 8.44538 25.2176 8.44808 25.5888ZM5.22411 20.059V18.7218H18.2855V20.059H5.22411ZM5.22411 13.3727V14.71H18.2855V13.3727H5.22411Z" fill="black"/>
<mask id="mask0" mask-type="alpha" maskUnits="userSpaceOnUse" x="0" y="0" width="32" height="32">
<path fill-rule="evenodd" clip-rule="evenodd" d="M13.714 1.33727V6.68634H12.4078V0.668634C12.4078 0.299358 12.7002 0 13.0609 0H31.3468C31.7075 0 31.9999 0.299358 31.9999 0.668634V13.5452C31.9999 13.9145 31.7075 14.2138 31.3468 14.2138H29.7164L26.6468 18.4514C26.2719 18.969 25.4692 18.6975 25.4692 18.0531V14.2138H24.8161V12.8766H26.1223C26.483 12.8766 26.7754 13.1759 26.7754 13.5452V16.0291L28.8631 13.1469C28.9863 12.9768 29.1808 12.8766 29.3876 12.8766H30.6938V1.33727H13.714ZM9.75912 26.2525L9.79602 31.3251C9.8008 31.9818 8.97468 32.2513 8.60749 31.7128L4.88402 26.2525H0.653069C0.292389 26.2525 0 25.9531 0 25.5838V8.5965C0 8.22722 0.292389 7.92786 0.653069 7.92786H22.8574C23.2181 7.92786 23.5105 8.22722 23.5105 8.5965V25.5838C23.5105 25.9531 23.2181 26.2525 22.8574 26.2525H9.75912ZM8.44808 25.5888L8.47422 29.1814L5.75999 25.2011C5.63784 25.0219 5.43791 24.9152 5.22452 24.9152H1.3061V9.26513H22.2043V24.9152H9.10114C8.73855 24.9152 8.44538 25.2176 8.44808 25.5888ZM5.22411 20.059V18.7218H18.2855V20.059H5.22411ZM5.22411 13.3727V14.71H18.2855V13.3727H5.22411Z" fill="white"/>
</mask>
<g mask="url(#mask0)">
<rect x="-10.667" y="-12" width="53.3333" height="53.3333" fill="#E6001E"/>
</g>
</svg>
