<svg width="124" height="23" viewBox="0 0 124 23" fill="none" xmlns="http://www.w3.org/2000/svg">
<path fill-rule="evenodd" clip-rule="evenodd" d="M3.7249 19.7608C3.71971 17.8622 3.74105 14.8198 3.74508 12.5654C5.92172 12.4898 8.54129 12.4944 10.3771 12.4944C12.2411 12.4944 14.9899 12.4898 17.0869 12.5757C17.0736 14.7408 17.0644 17.7059 17.0073 19.7608H3.7249ZM17.0665 3.56757C17.0994 5.23897 17.0988 7.78414 17.096 10.3755C15.2694 10.4308 12.8119 10.4481 10.2488 10.4464C7.82133 10.4452 5.46533 10.4285 3.75067 10.3789C3.75874 7.72128 3.75125 5.09479 3.77201 3.56757H17.0665ZM17.8349 21.9617C18.8534 21.9968 19.8616 21.9899 20.5254 21.9842C20.62 21.885 20.718 21.7794 20.8149 21.671C20.6062 16.865 20.635 6.63469 20.8945 1.55588L20.5756 1.32403C16.4698 1.47629 5.0629 1.4538 0.343984 1.27559L0.0158162 1.61298C0.200951 3.81095 0.237863 7.54306 0.230365 11.5537C0.222867 15.4883 0.170384 19.142 0.000244141 21.6918C0.061379 21.7858 0.125398 21.8786 0.192877 21.9697C0.812877 21.9646 2.17803 21.9744 2.69364 21.9657C5.7798 21.8953 14.3917 21.8763 17.8349 21.9617V21.9617Z" fill="#006EAF"/>
<path fill-rule="evenodd" clip-rule="evenodd" d="M63.4462 20.4004C62.6439 20.3848 61.7938 20.3784 61.3186 20.2625C60.3047 20.0151 59.9632 19.4453 59.9217 18.2226V12.2181C61.254 12.1448 61.7114 12.1454 62.5453 12.1454C67.5365 12.1454 69.0118 13.7326 69.0591 16.02C69.1271 19.323 67.0024 20.4684 63.4462 20.4004M65.4469 3.15225C67.33 3.62057 68.1369 4.86634 68.1369 6.46738C68.1369 8.13994 67.2331 9.58295 64.8996 10.0888C63.8078 10.2145 61.5303 10.2254 59.9217 10.1424V2.99365C60.8947 2.95789 61.9715 2.92098 63.1959 2.92098C64.0374 2.92098 64.9048 3.01787 65.4469 3.15225M67.6052 10.6822C70.3603 9.82057 71.94 7.91443 71.94 5.94081C71.94 3.13437 70.5466 1.70924 67.0002 1.1844C66.142 1.05694 65.0266 1.03214 63.5265 1.03214C60.682 1.03214 58.935 1.14057 56.2843 1.0754L56.0646 1.24438C56.4285 2.10662 56.4475 4.95862 56.5064 6.90282C56.5785 9.32572 56.5421 11.2578 56.5133 13.5723C56.4746 16.5535 56.4602 20.8537 56.1257 21.9247L56.3731 22.1681C57.0208 22.1358 57.4257 22.1116 57.6968 22.1116C58.822 22.1116 61.5402 22.1831 64.0525 22.1831C69.1001 22.1831 72.8772 20.3554 73.0935 16.178C73.2487 13.1588 71.7549 11.2907 67.6052 10.6822" fill="#006EAF"/>
<mask id="mask0" mask-type="alpha" maskUnits="userSpaceOnUse" x="96" y="0" width="28" height="23">
<path fill-rule="evenodd" clip-rule="evenodd" d="M96.5187 0.628363H123.504V22.5255H96.5187V0.628363Z" fill="white"/>
</mask>
<g mask="url(#mask0)">
<path fill-rule="evenodd" clip-rule="evenodd" d="M123.504 19.6926C121.65 19.7843 119.288 19.7647 117.247 19.7647C117.227 16.4404 117.227 11.4688 117.304 7.36762C119.404 7.38088 121.189 7.35666 122.744 7.42991C122.733 6.78395 122.751 5.71813 122.79 5.09755C121.229 5.14831 118.679 5.14542 117.351 5.14542C117.397 3.36732 117.418 2.13424 117.503 0.741405C117.474 0.701032 117.442 0.663544 117.413 0.628363C116.595 0.650856 114.353 0.650856 113.674 0.634707C113.616 0.684884 113.556 0.744288 113.5 0.804846C113.591 2.1279 113.618 3.3454 113.668 5.14658C111.833 5.13735 110.19 5.15927 108.678 5.12524C108.718 5.76427 108.698 6.81798 108.686 7.43164C110.201 7.36877 111.873 7.3953 113.717 7.37569C113.788 11.331 113.761 16.261 113.604 19.7665C111.583 19.7665 108.549 19.7751 106.902 19.6805C106.919 20.4297 106.913 21.5573 106.857 22.2863C111.408 21.9425 118.588 21.9373 123.487 22.2021C123.457 21.5042 123.467 20.4147 123.504 19.6926M106.95 16.0263C107.739 15.4513 108.546 14.773 109.173 14.0671C107.988 12.9159 106.128 11.4948 105.044 10.8858C106.213 9.45255 107.025 8.1618 107.728 6.6415C107.736 6.42753 107.752 5.30057 107.736 5.04738C107.049 5.06699 105.069 5.08429 104.349 5.08198C104.36 4.02885 104.399 1.9814 104.464 0.93346C104.43 0.879823 104.389 0.826763 104.349 0.777739C103.829 0.791581 101.745 0.801386 101.142 0.773125C101.09 0.820418 101.038 0.874056 100.992 0.92827C101.067 1.89259 101.117 4.32356 101.092 5.10736C99.9474 5.11889 98.0303 5.12927 96.9132 5.10505C96.9397 5.72851 96.9535 6.78222 96.9501 7.39934C98.8874 7.32321 102.468 7.29841 104.032 7.29322C102.892 10.5253 99.0339 14.4627 96.5187 15.9115C96.5729 16.3689 96.63 17.8228 96.6404 18.1966C98.2893 17.3701 99.8102 16.2039 101.259 14.9385C101.259 16.5448 101.23 20.0081 101.043 22.4933C102.093 22.5418 103.281 22.5343 104.492 22.4795C104.392 20.1488 104.344 15.2944 104.364 12.9897C105.289 13.8554 106.292 15.0452 106.95 16.0263" fill="#006EAF"/>
</g>
<path fill-rule="evenodd" clip-rule="evenodd" d="M80.8994 11.8261C80.9254 10.0163 80.9173 4.59083 80.9063 3.19049C82.1642 3.08898 83.1026 3.03823 84.2347 3.05611C85.0335 3.0688 86.0618 3.10167 86.7153 3.2747C88.7945 3.82433 89.8511 5.08798 89.9808 7.10889C90.1521 9.75788 88.761 11.7713 85.1598 12.0147C84.0657 12.0885 83.7053 12.0516 82.7784 11.9801L82.6319 13.9272C83.7087 14.0356 84.5773 14.0933 85.7994 14.0114C88.7893 13.8095 90.9993 12.889 92.3755 11.2488C93.3559 10.0837 93.8583 8.70359 93.8583 6.72247C93.8583 3.6738 91.9412 1.62752 87.649 1.22495C86.7851 1.14305 85.2284 1.13786 84.1199 1.13786C83.0016 1.13786 81.0459 1.19034 79.1513 1.19034C78.3087 1.19034 77.4332 1.22149 77.0064 1.18515C76.921 1.29185 76.9176 1.32645 76.8541 1.42623C77.2036 1.99375 77.2832 3.31565 77.3657 5.23447C77.4107 6.30203 77.4389 8.97408 77.4378 11.7649C77.4355 15.1303 77.394 18.6692 77.2925 19.7771C77.2296 20.4744 77.1165 21.6728 76.9568 22.0506C76.9793 22.0898 76.9995 22.129 77.0185 22.1642C78.5809 22.0864 79.9622 22.1083 81.4196 22.1769C81.4479 22.14 81.4796 22.0967 81.5102 22.0552C81.1855 21.4623 81.1561 20.6145 81.0817 19.5937C80.9986 18.446 80.889 15.7652 80.9138 13.8603L80.8994 11.8261Z" fill="#006EAF"/>
<path fill-rule="evenodd" clip-rule="evenodd" d="M25.9907 15.0072C26.0023 16.4986 25.6568 20.1021 25.4774 21.2447C25.955 21.2654 27.1148 21.3006 27.7036 21.2654C27.9609 19.8455 28.3859 16.31 28.443 15.0158C27.8651 15.0302 26.504 15.0199 25.9907 15.0072" fill="#006EAF"/>
<path fill-rule="evenodd" clip-rule="evenodd" d="M35.9346 18.9895C35.7217 17.3959 35.4334 15.4938 35.3319 14.9748C34.8757 14.9857 33.687 14.9817 33.274 14.9748C33.3473 15.6098 33.5036 17.8983 33.4984 18.9941C34.1732 19.0079 35.457 19.0137 35.9346 18.9895" fill="#006EAF"/>
<mask id="mask1" mask-type="alpha" maskUnits="userSpaceOnUse" x="25" y="0" width="27" height="23">
<path fill-rule="evenodd" clip-rule="evenodd" d="M25.4246 0.576975H51.2016V22.4782H25.4246V0.576975Z" fill="white"/>
</mask>
<g mask="url(#mask1)">
<path fill-rule="evenodd" clip-rule="evenodd" d="M51.2016 19.5918C49.8341 19.7487 46.8016 19.7435 44.2189 19.7354C44.1687 18.7429 44.1612 17.4365 44.1509 16.0881C46.0974 16.0968 48.4586 16.1193 49.529 16.1694C49.4938 15.6815 49.4996 14.3463 49.548 13.8094C48.1656 13.8965 46.0351 13.9455 44.1543 13.9651C44.1647 12.871 44.167 11.8473 44.2062 11.0502C44.1612 10.9949 44.1076 10.9395 44.0551 10.8888C43.0331 10.902 41.7822 10.8934 40.834 10.853C40.8911 11.7123 40.9436 12.7655 40.9586 13.9697C39.3085 13.957 37.8078 13.9259 36.6751 13.8803C36.3769 12.4979 35.5337 9.77045 35.0256 8.70866C34.4679 8.70866 33.36 8.72251 32.7763 8.71847L32.6627 8.82863C32.8594 9.29464 33.1079 10.154 33.3473 11.0762C32.319 11.1529 30.5524 11.2129 29.095 11.2348C31.7434 9.39095 34.7551 6.37631 36.039 4.36463L36.0528 4.34617L35.9034 4.11259C35.1923 4.12874 33.4217 4.11663 32.8628 4.10048C32.312 4.95925 31.0865 6.43514 30.1775 7.31179C29.7911 6.93748 29.2265 6.29499 28.6716 5.8186C30.7012 4.22217 32.4539 2.25778 33.7585 0.807845L33.6299 0.576571C32.6512 0.621557 31.038 0.64751 29.9237 0.615789C29.2472 1.6447 27.3365 4.04684 25.6772 5.26262C25.612 5.30011 25.5099 5.31222 25.4246 5.31683V6.4709C25.8519 6.61278 27.6364 8.11519 28.4802 9.02933C27.6929 9.75084 26.6599 10.6136 25.7977 11.1616L25.5751 11.1766C25.5295 11.7619 25.5826 13.1917 25.6189 13.6514C26.8134 13.615 28.1872 13.5354 29.4151 13.4293C29.5235 15.8447 29.4912 20.0388 29.283 22.4496C29.971 22.4917 31.6332 22.4917 32.3501 22.4202C32.2532 20.5175 32.1546 15.2247 32.1552 13.175C32.695 13.1219 33.4061 13.0671 33.8156 13.01C33.8912 13.3238 34.0492 13.9472 34.1126 14.2662C34.5954 14.2656 35.8538 14.2754 36.1872 14.2869C36.1993 14.7835 36.1941 15.6129 36.1532 16.1539C37.1025 16.11 38.9734 16.0904 40.9563 16.0852C40.9407 17.3287 40.9234 18.5906 40.8652 19.7262C38.2214 19.7152 35.5453 19.6858 34.4402 19.6455C34.4593 20.1588 34.4644 21.3249 34.435 22.1618C38.226 21.9415 46.4302 21.8994 51.1687 22.122C51.1474 21.4559 51.1399 20.2424 51.2016 19.5918" fill="#006EAF"/>
</g>
<path fill-rule="evenodd" clip-rule="evenodd" d="M35.7363 3.30924C37.1667 3.27752 40.1882 3.23946 42.6082 3.23542C43.696 3.23427 44.7751 3.24753 45.7527 3.26772C44.9193 4.2551 43.8246 5.35841 42.6382 6.32042C41.6445 5.73907 40.3347 4.90509 39.4016 4.10919C38.8219 4.12707 37.6736 4.12476 37.015 4.13341L36.9014 4.3543C37.9118 5.48761 39.172 6.51363 40.72 7.76171C39.4212 8.74448 37.5375 9.75609 36.3016 10.2769C36.4965 10.7717 36.8287 11.7568 36.9925 12.2765C38.6616 11.6265 40.6514 10.4874 42.5852 9.188C44.0611 10.1287 48.1485 12.3197 49.8995 12.8913C50.1105 12.1196 50.6711 10.8271 51.1723 9.9741C49.3377 9.44061 46.6449 8.47687 44.8829 7.53735C46.6766 6.15663 48.7823 4.19801 49.7685 2.91821C49.8014 2.88937 49.877 2.85131 49.9185 2.83516C49.9514 2.20881 49.9514 1.46539 49.926 0.940554C47.6974 1.01322 45.105 1.01899 42.7213 1.004C40.1196 0.987847 37.353 1.02188 35.7208 0.91287C35.6971 1.39445 35.7017 2.71981 35.7363 3.30924" fill="#006EAF"/>
</svg>
