<svg width="93" height="18" viewBox="0 0 93 18" fill="none" xmlns="http://www.w3.org/2000/svg">
<path fill-rule="evenodd" clip-rule="evenodd" d="M2.79367 14.8206C2.78978 13.3967 2.80579 11.1149 2.80881 9.42405C4.44129 9.36739 6.40597 9.37085 7.7828 9.37085C9.18083 9.37085 11.2424 9.36739 12.8152 9.43184C12.8052 11.0557 12.7983 13.2794 12.7555 14.8206H2.79367ZM12.8 2.67571C12.8247 3.92927 12.8243 5.83814 12.8221 7.78163C11.4522 7.82315 9.60906 7.83613 7.68677 7.83483C5.86613 7.83397 4.09913 7.82142 2.81314 7.78422C2.8192 5.791 2.81357 3.82113 2.82914 2.67571H12.8ZM13.3762 16.4713C14.1401 16.4977 14.8962 16.4925 15.3941 16.4882C15.465 16.4138 15.5386 16.3346 15.6112 16.2533C15.4547 12.6488 15.4763 4.97606 15.6709 1.16695L15.4317 0.993061C12.3523 1.10726 3.79721 1.09039 0.258018 0.956726L0.0118927 1.20977C0.150744 2.85825 0.178428 5.65734 0.172804 8.66534C0.167181 11.6163 0.127818 14.3565 0.000213623 16.2689C0.0460648 16.3394 0.0940787 16.409 0.144688 16.4773C0.609688 16.4735 1.63355 16.4808 2.02026 16.4743C4.33488 16.4215 10.7938 16.4073 13.3762 16.4713V16.4713Z" fill="#006EAF"/>
<path fill-rule="evenodd" clip-rule="evenodd" d="M47.5846 15.3003C46.9829 15.2886 46.3453 15.2838 45.9889 15.1969C45.2284 15.0113 44.9724 14.584 44.9412 13.6669V9.16357C45.9404 9.10864 46.2835 9.10907 46.9089 9.10907C50.6523 9.10907 51.7588 10.2995 51.7942 12.015C51.8453 14.4923 50.2517 15.3513 47.5846 15.3003M49.0851 2.36419C50.4974 2.71543 51.1026 3.64976 51.1026 4.85054C51.1026 6.10496 50.4248 7.18722 48.6746 7.56657C47.8558 7.66087 46.1476 7.66909 44.9412 7.6068V2.24524C45.671 2.21842 46.4785 2.19074 47.3969 2.19074C48.028 2.19074 48.6785 2.26341 49.0851 2.36419M50.7038 8.01167C52.7701 7.36543 53.9549 5.93583 53.9549 4.45561C53.9549 2.35078 52.9098 1.28193 50.25 0.888304C49.6064 0.792709 48.7698 0.774109 47.6447 0.774109C45.5113 0.774109 44.2011 0.85543 42.2131 0.806551L42.0483 0.93329C42.3212 1.57996 42.3355 3.71896 42.3796 5.17712C42.4337 6.9943 42.4064 8.44336 42.3848 10.1792C42.3558 12.4151 42.345 15.6403 42.0941 16.4435L42.2797 16.6261C42.7655 16.6018 43.0691 16.5837 43.2724 16.5837C44.1163 16.5837 46.155 16.6373 48.0392 16.6373C51.825 16.6373 54.6578 15.2665 54.82 12.1335C54.9363 9.86908 53.816 8.46802 50.7038 8.01167" fill="#006EAF"/>
<mask id="mask0" mask-type="alpha" maskUnits="userSpaceOnUse" x="72" y="0" width="21" height="17">
<path fill-rule="evenodd" clip-rule="evenodd" d="M72.3891 0.471252H92.628V16.8941H72.3891V0.471252Z" fill="white"/>
</mask>
<g mask="url(#mask0)">
<path fill-rule="evenodd" clip-rule="evenodd" d="M92.6281 14.7695C91.2374 14.8382 89.4665 14.8235 87.9357 14.8235C87.9205 12.3303 87.9205 8.60162 87.9781 5.52569C89.553 5.53564 90.8918 5.51748 92.058 5.57241C92.0502 5.08795 92.0636 4.28858 92.0926 3.82315C90.9216 3.86121 89.0097 3.85905 88.0135 3.85905C88.0481 2.52547 88.0633 1.60066 88.1277 0.556034C88.1057 0.525755 88.0819 0.497638 88.0598 0.471252C87.446 0.488122 85.7647 0.488122 85.256 0.476011C85.2119 0.513643 85.1673 0.558197 85.1249 0.603615C85.1937 1.5959 85.2136 2.50903 85.2508 3.85991C83.8748 3.85299 82.6429 3.86943 81.5083 3.84391C81.5386 4.32318 81.5234 5.11347 81.5143 5.57371C82.6507 5.52656 83.9051 5.54646 85.288 5.53175C85.3412 8.49823 85.3209 12.1957 85.2028 14.8248C83.6871 14.8248 81.4118 14.8313 80.1769 14.7604C80.1894 15.3223 80.1851 16.1679 80.1431 16.7147C83.556 16.4569 88.9414 16.453 92.6155 16.6515C92.5926 16.1281 92.6004 15.311 92.6281 14.7695M80.2123 12.0197C80.8045 11.5884 81.4092 11.0797 81.8799 10.5503C80.9914 9.6869 79.5964 8.62108 78.7827 8.1643C79.66 7.08939 80.269 6.12133 80.7959 4.9811C80.8019 4.82062 80.814 3.97541 80.8019 3.78551C80.2867 3.80022 78.8022 3.8132 78.2615 3.81147C78.2702 3.02162 78.2996 1.48603 78.3485 0.700076C78.3225 0.659848 78.2918 0.620052 78.2615 0.583285C77.8722 0.593666 76.3089 0.60102 75.8565 0.579825C75.8176 0.615294 75.7786 0.655522 75.744 0.696183C75.8007 1.41942 75.8379 3.24265 75.8193 3.8305C74.9607 3.83915 73.5228 3.84694 72.685 3.82877C72.7049 4.29636 72.7152 5.08665 72.7127 5.54948C74.1656 5.49239 76.8514 5.47379 78.024 5.46989C77.1693 7.89395 74.2755 10.847 72.3891 11.9336C72.4298 12.2766 72.4726 13.3671 72.4804 13.6474C73.7171 13.0275 74.8577 12.1529 75.9443 11.2039C75.9443 12.4086 75.9222 15.0061 75.7821 16.87C76.5702 16.9063 77.4608 16.9007 78.3688 16.8596C78.2944 15.1116 78.258 11.4708 78.2732 9.74227C78.967 10.3915 79.7188 11.2839 80.2123 12.0197" fill="#006EAF"/>
</g>
<path fill-rule="evenodd" clip-rule="evenodd" d="M60.6745 8.86956C60.694 7.51219 60.6879 3.44312 60.6797 2.39287C61.6231 2.31674 62.3269 2.27867 63.176 2.29208C63.7751 2.3016 64.5464 2.32625 65.0364 2.45602C66.5958 2.86825 67.3883 3.81598 67.4856 5.33167C67.6141 7.31841 66.5707 8.82847 63.8698 9.01101C63.0493 9.06637 62.7789 9.03869 62.0838 8.98505L61.9739 10.4454C62.7815 10.5267 63.433 10.5699 64.3495 10.5085C66.5919 10.3571 68.2495 9.66677 69.2816 8.43657C70.0169 7.5628 70.3937 6.52769 70.3937 5.04185C70.3937 2.75535 68.9559 1.22064 65.7368 0.91871C65.0888 0.857287 63.9213 0.853394 63.0899 0.853394C62.2512 0.853394 60.7844 0.892756 59.3634 0.892756C58.7315 0.892756 58.0749 0.916114 57.7548 0.888863C57.6907 0.968887 57.6881 0.99484 57.6406 1.06967C57.9027 1.49531 57.9624 2.48673 58.0242 3.92585C58.058 4.72652 58.0792 6.73056 58.0783 8.82371C58.0766 11.3477 58.0454 14.0019 57.9693 14.8328C57.9222 15.3558 57.8374 16.2546 57.7176 16.538C57.7344 16.5674 57.7496 16.5968 57.7638 16.6232C58.9356 16.5648 59.9716 16.5812 61.0647 16.6327C61.0859 16.605 61.1097 16.5726 61.1326 16.5414C60.8891 16.0967 60.867 15.4609 60.8112 14.6953C60.7489 13.8345 60.6667 11.8239 60.6853 10.3952L60.6745 8.86956Z" fill="#006EAF"/>
<path fill-rule="evenodd" clip-rule="evenodd" d="M19.4933 11.2554C19.5019 12.374 19.2428 15.0766 19.1083 15.9335C19.4664 15.9491 20.3363 15.9754 20.778 15.9491C20.9709 14.8841 21.2897 12.2325 21.3325 11.2619C20.8991 11.2727 19.8782 11.2649 19.4933 11.2554" fill="#006EAF"/>
<path fill-rule="evenodd" clip-rule="evenodd" d="M26.9511 14.2421C26.7915 13.047 26.5752 11.6204 26.4991 11.2311C26.1569 11.2393 25.2654 11.2363 24.9557 11.2311C25.0106 11.7073 25.1278 13.4237 25.124 14.2456C25.63 14.256 26.5929 14.2603 26.9511 14.2421" fill="#006EAF"/>
<mask id="mask1" mask-type="alpha" maskUnits="userSpaceOnUse" x="19" y="0" width="20" height="17">
<path fill-rule="evenodd" clip-rule="evenodd" d="M19.0684 0.432739H38.4012V16.8587H19.0684V0.432739Z" fill="white"/>
</mask>
<g mask="url(#mask1)">
<path fill-rule="evenodd" clip-rule="evenodd" d="M38.4012 14.6939C37.3756 14.8115 35.1012 14.8076 33.1642 14.8016C33.1266 14.0572 33.1209 13.0774 33.1132 12.0661C34.573 12.0726 36.3439 12.0894 37.1468 12.1271C37.1204 11.7611 37.1247 10.7598 37.161 10.357C36.1242 10.4224 34.5263 10.4591 33.1157 10.4738C33.1235 9.65328 33.1253 8.88549 33.1547 8.28769C33.1209 8.24616 33.0807 8.20464 33.0413 8.16657C32.2749 8.17652 31.3366 8.17003 30.6255 8.13976C30.6683 8.78427 30.7077 9.57412 30.7189 10.4773C29.4814 10.4678 28.3559 10.4444 27.5063 10.4103C27.2827 9.37341 26.6503 7.32784 26.2692 6.5315C25.8509 6.5315 25.02 6.54189 24.5822 6.53886L24.497 6.62148C24.6445 6.97098 24.831 7.61549 25.0105 8.30716C24.2392 8.36469 22.9143 8.40967 21.8212 8.42611C23.8075 7.04322 26.0663 4.78224 27.0292 3.27348L27.0396 3.25963L26.9276 3.08445C26.3942 3.09656 25.0663 3.08748 24.6471 3.07536C24.234 3.71944 23.3148 4.82636 22.6331 5.48385C22.3433 5.20312 21.9198 4.72125 21.5037 4.36396C23.0259 3.16663 24.3404 1.69334 25.3189 0.60589L25.2224 0.432434C24.4884 0.466174 23.2785 0.485639 22.4428 0.461848C21.9354 1.23353 20.5024 3.03514 19.2579 3.94697C19.209 3.97509 19.1324 3.98417 19.0684 3.98763V4.85318C19.3889 4.95959 20.7273 6.0864 21.3601 6.77201C20.7697 7.31314 19.995 7.96024 19.3483 8.37117L19.1813 8.38242C19.1471 8.82147 19.1869 9.89378 19.2142 10.2385C20.11 10.2113 21.1404 10.1516 22.0613 10.072C22.1426 11.8835 22.1184 15.0291 21.9622 16.8372C22.4783 16.8688 23.7249 16.8688 24.2626 16.8151C24.1899 15.3881 24.1159 11.4185 24.1164 9.88123C24.5212 9.84144 25.0546 9.80035 25.3617 9.75752C25.4184 9.99283 25.5369 10.4604 25.5845 10.6996C25.9465 10.6992 26.8904 10.7066 27.1404 10.7152C27.1495 11.0876 27.1456 11.7097 27.1149 12.1154C27.8269 12.0825 29.2301 12.0678 30.7172 12.0639C30.7055 12.9965 30.6926 13.943 30.6489 14.7947C28.666 14.7864 26.659 14.7644 25.8302 14.7341C25.8444 15.1191 25.8483 15.9937 25.8263 16.6214C28.6695 16.4561 34.8226 16.4245 38.3765 16.5915C38.3605 16.0919 38.3549 15.1818 38.4012 14.6939" fill="#006EAF"/>
</g>
<path fill-rule="evenodd" clip-rule="evenodd" d="M26.8023 2.48191C27.8751 2.45812 30.1412 2.42957 31.9562 2.42654C32.7721 2.42568 33.5814 2.43563 34.3146 2.45077C33.6895 3.19131 32.8685 4.01879 31.9787 4.7403C31.2334 4.30428 30.2511 3.6788 29.5512 3.08187C29.1165 3.09528 28.2553 3.09355 27.7613 3.10004L27.6761 3.26571C28.4339 4.11568 29.3791 4.8852 30.5401 5.82126C29.5659 6.55834 28.1532 7.31705 27.2262 7.70765C27.3724 8.07878 27.6216 8.81759 27.7444 9.20732C28.9963 8.71983 30.4886 7.86553 31.9389 6.89098C33.0459 7.59648 36.1114 9.23977 37.4246 9.66843C37.583 9.08967 38.0034 8.12031 38.3793 7.48055C37.0033 7.08044 34.9837 6.35763 33.6623 5.65299C35.0075 4.61745 36.5868 3.14848 37.3265 2.18864C37.3511 2.16701 37.4078 2.13846 37.4389 2.12635C37.4636 1.65659 37.4636 1.09902 37.4445 0.705394C35.7731 0.759896 33.8288 0.764222 32.041 0.752976C30.0898 0.740864 28.0148 0.766385 26.7906 0.684631C26.7729 1.04582 26.7764 2.03984 26.8023 2.48191" fill="#006EAF"/>
</svg>
