<svg width="20" height="20" viewBox="0 0 20 20" fill="none" xmlns="http://www.w3.org/2000/svg">
<path fill-rule="evenodd" clip-rule="evenodd" d="M17.7082 9.16049C17.7082 5.92451 15.5897 3.17431 12.6667 2.22395C12.6525 0.995188 11.6489 0.000244141 10.4168 0.000244141C9.1848 0.000244141 8.18118 0.995106 8.16696 2.2238C5.24368 3.17402 3.12491 5.92434 3.12491 9.16049V15.5063C3.12491 15.7363 3.31158 15.923 3.54158 15.923C3.77158 15.923 3.95824 15.7363 3.95824 15.5063V9.16049C3.95824 5.59883 6.85574 2.70216 10.4166 2.70216C13.9774 2.70216 16.8749 5.59883 16.8749 9.16049V15.5063C16.8749 15.7363 17.0616 15.923 17.2916 15.923C17.5216 15.923 17.7082 15.7363 17.7082 15.5063V9.16049ZM10.4168 0.833578C11.1132 0.833578 11.6943 1.33938 11.8118 2.00274C11.3601 1.91487 10.8936 1.86883 10.4166 1.86883C9.9397 1.86883 9.47337 1.91484 9.0218 2.00265C9.13919 1.33934 9.71967 0.833578 10.4168 0.833578ZM7.78159 17.3334C7.78159 18.7859 8.96326 19.9684 10.4166 19.9684C11.8699 19.9684 13.0516 18.7859 13.0516 17.3334C13.0516 17.1034 12.8649 16.9167 12.6349 16.9167C12.4049 16.9167 12.2183 17.1034 12.2183 17.3334C12.2183 18.3267 11.4099 19.1351 10.4166 19.1351C9.42326 19.1351 8.61493 18.3267 8.61493 17.3334C8.61493 17.1034 8.42826 16.9167 8.19826 16.9167C7.96826 16.9167 7.78159 17.1034 7.78159 17.3334Z" fill="black"/>
<mask id="mask0" mask-type="alpha" maskUnits="userSpaceOnUse" x="3" y="0" width="15" height="20">
<path fill-rule="evenodd" clip-rule="evenodd" d="M17.7082 9.16049C17.7082 5.92451 15.5897 3.17431 12.6667 2.22395C12.6525 0.995188 11.6489 0.000244141 10.4168 0.000244141C9.1848 0.000244141 8.18118 0.995106 8.16696 2.2238C5.24368 3.17402 3.12491 5.92434 3.12491 9.16049V15.5063C3.12491 15.7363 3.31158 15.923 3.54158 15.923C3.77158 15.923 3.95824 15.7363 3.95824 15.5063V9.16049C3.95824 5.59883 6.85574 2.70216 10.4166 2.70216C13.9774 2.70216 16.8749 5.59883 16.8749 9.16049V15.5063C16.8749 15.7363 17.0616 15.923 17.2916 15.923C17.5216 15.923 17.7082 15.7363 17.7082 15.5063V9.16049ZM10.4168 0.833578C11.1132 0.833578 11.6943 1.33938 11.8118 2.00274C11.3601 1.91487 10.8936 1.86883 10.4166 1.86883C9.9397 1.86883 9.47337 1.91484 9.0218 2.00265C9.13919 1.33934 9.71967 0.833578 10.4168 0.833578ZM7.78159 17.3334C7.78159 18.7859 8.96326 19.9684 10.4166 19.9684C11.8699 19.9684 13.0516 18.7859 13.0516 17.3334C13.0516 17.1034 12.8649 16.9167 12.6349 16.9167C12.4049 16.9167 12.2183 17.1034 12.2183 17.3334C12.2183 18.3267 11.4099 19.1351 10.4166 19.1351C9.42326 19.1351 8.61493 18.3267 8.61493 17.3334C8.61493 17.1034 8.42826 16.9167 8.19826 16.9167C7.96826 16.9167 7.78159 17.1034 7.78159 17.3334Z" fill="white"/>
</mask>
<g mask="url(#mask0)">
<rect x="-6.66666" y="-7.5" width="33.3333" height="33.3333" fill="#242424"/>
</g>
<path fill-rule="evenodd" clip-rule="evenodd" d="M2.93207 16.958H17.9012L17.1287 15.9588H3.70457L2.93207 16.958ZM18.7496 17.7913H2.08294C1.92461 17.7913 1.77961 17.7013 1.70961 17.5588C1.63961 17.4155 1.65627 17.2455 1.75377 17.1197L3.17044 15.2872C3.24961 15.1847 3.37127 15.1255 3.50044 15.1255H17.3329C17.4621 15.1255 17.5838 15.1847 17.6629 15.2872L19.0796 17.1197C19.1771 17.2455 19.1938 17.4155 19.1238 17.5588C19.0538 17.7013 18.9088 17.7913 18.7496 17.7913Z" fill="black"/>
<mask id="mask1" mask-type="alpha" maskUnits="userSpaceOnUse" x="1" y="15" width="19" height="3">
<path fill-rule="evenodd" clip-rule="evenodd" d="M2.93207 16.958H17.9012L17.1287 15.9588H3.70457L2.93207 16.958ZM18.7496 17.7913H2.08294C1.92461 17.7913 1.77961 17.7013 1.70961 17.5588C1.63961 17.4155 1.65627 17.2455 1.75377 17.1197L3.17044 15.2872C3.24961 15.1847 3.37127 15.1255 3.50044 15.1255H17.3329C17.4621 15.1255 17.5838 15.1847 17.6629 15.2872L19.0796 17.1197C19.1771 17.2455 19.1938 17.4155 19.1238 17.5588C19.0538 17.7013 18.9088 17.7913 18.7496 17.7913Z" fill="white"/>
</mask>
<g mask="url(#mask1)">
<rect width="33.3333" height="33.3333" fill="#242424"/>
</g>
</svg>
