<svg width="21" height="20" viewBox="0 0 21 20" fill="none" xmlns="http://www.w3.org/2000/svg">
<path fill-rule="evenodd" clip-rule="evenodd" d="M2.70855 16.8667V17.7H0.000213623V0H15.5002V12.1175H14.6669V0.833333H0.833547V16.8667H2.70855ZM2.70855 10.9165V10.0832H12.7919V10.9165H2.70855ZM2.70855 6.87517V7.7085H12.7919V6.87517H2.70855ZM2.70855 4.50008V3.66675H12.7919V4.50008H2.70855ZM7.58251 17.2761V13.9627H8.68751V19.1002H7.58251L5.58584 15.7869V19.1002H4.47751V13.9627H5.58584L7.58251 17.2761ZM11.0454 13.9627H9.93868V19.1002H10.6862H13.4062V18.2077H11.0454V16.8911H13.0528V16.0277H11.0454V14.8594H13.4029V13.9627H11.0454ZM18.3582 17.5336L19.0215 13.9627H20.1223L18.9965 19.1002H18.2873H17.8748L17.0773 15.7619L16.2832 19.1002H15.6482H15.1623L14.0323 13.9627H15.1332L15.7998 17.5336L16.6082 13.9627H17.1973H17.5465L18.3582 17.5336Z" fill="black"/>
<mask id="mask0" mask-type="alpha" maskUnits="userSpaceOnUse" x="0" y="0" width="21" height="20">
<path fill-rule="evenodd" clip-rule="evenodd" d="M2.70855 16.8667V17.7H0.000213623V0H15.5002V12.1175H14.6669V0.833333H0.833547V16.8667H2.70855ZM2.70855 10.9165V10.0832H12.7919V10.9165H2.70855ZM2.70855 6.87517V7.7085H12.7919V6.87517H2.70855ZM2.70855 4.50008V3.66675H12.7919V4.50008H2.70855ZM7.58251 17.2761V13.9627H8.68751V19.1002H7.58251L5.58584 15.7869V19.1002H4.47751V13.9627H5.58584L7.58251 17.2761ZM11.0454 13.9627H9.93868V19.1002H10.6862H13.4062V18.2077H11.0454V16.8911H13.0528V16.0277H11.0454V14.8594H13.4029V13.9627H11.0454ZM18.3582 17.5336L19.0215 13.9627H20.1223L18.9965 19.1002H18.2873H17.8748L17.0773 15.7619L16.2832 19.1002H15.6482H15.1623L14.0323 13.9627H15.1332L15.7998 17.5336L16.6082 13.9627H17.1973H17.5465L18.3582 17.5336Z" fill="white"/>
</mask>
<g mask="url(#mask0)">
<rect x="-8.33331" y="-6.66675" width="33.3333" height="33.3333" fill="#242424"/>
</g>
</svg>
